<ttFont>
    <TTGlyph name=".notdef" xMin="50" yMin="0" xMax="450" yMax="750">
      <contour>
        <pt x="50" y="0" on="1"/>
        <pt x="50" y="750" on="1"/>
        <pt x="450" y="750" on="1"/>
        <pt x="450" y="0" on="1"/>
      </contour>
      <contour>
        <pt x="400" y="50" on="1"/>
        <pt x="400" y="700" on="1"/>
        <pt x="100" y="700" on="1"/>
        <pt x="100" y="50" on="1"/>
      </contour>
    </TTGlyph>
    <TTGlyph name="A" xMin="-6" yMin="0" xMax="476" yMax="619">
      <contour>
        <pt x="356" y="144" on="1"/>
        <pt x="180" y="144" on="1"/>
        <pt x="165" y="110" on="0"/>
        <pt x="133" y="38" on="0"/>
        <pt x="119" y="0" on="1"/>
        <pt x="-6" y="0" on="1"/>
        <pt x="79" y="186" on="0"/>
        <pt x="237" y="497" on="0"/>
        <pt x="312" y="619" on="1"/>
        <pt x="443" y="619" on="1"/>
        <pt x="457" y="501" on="0"/>
        <pt x="474" y="238" on="0"/>
        <pt x="476" y="89" on="1"/>
        <pt x="476" y="0" on="1"/>
        <pt x="352" y="0" on="1"/>
      </contour>
      <contour>
        <pt x="352" y="502" on="1"/>
        <pt x="339" y="477" on="0"/>
        <pt x="314" y="429" on="0"/>
        <pt x="285" y="370" on="0"/>
        <pt x="249" y="294" on="0"/>
        <pt x="226" y="243" on="1"/>
        <pt x="358" y="243" on="1"/>
        <pt x="359" y="294" on="0"/>
        <pt x="358" y="370" on="0"/>
        <pt x="356" y="429" on="0"/>
        <pt x="353" y="478" on="0"/>
      </contour>
    </TTGlyph>
    <TTGlyph name="AE" xMin="-13" yMin="0" xMax="605" yMax="619">
      <contour>
        <pt x="271" y="144" on="1"/>
        <pt x="172" y="144" on="1"/>
        <pt x="110" y="0" on="1"/>
        <pt x="-13" y="0" on="1"/>
        <pt x="38" y="106" on="0"/>
        <pt x="119" y="270" on="0"/>
        <pt x="194" y="411" on="0"/>
        <pt x="271" y="544" on="0"/>
        <pt x="319" y="619" on="1"/>
        <pt x="605" y="619" on="1"/>
        <pt x="581" y="517" on="1"/>
        <pt x="469" y="517" on="1"/>
        <pt x="435" y="378" on="1"/>
        <pt x="524" y="378" on="1"/>
        <pt x="500" y="276" on="1"/>
        <pt x="411" y="276" on="1"/>
        <pt x="369" y="102" on="1"/>
        <pt x="495" y="102" on="1"/>
        <pt x="471" y="0" on="1"/>
        <pt x="237" y="0" on="1"/>
      </contour>
      <contour>
        <pt x="365" y="536" on="1"/>
        <pt x="327" y="469" on="0"/>
        <pt x="255" y="327" on="0"/>
        <pt x="217" y="243" on="1"/>
        <pt x="295" y="243" on="1"/>
      </contour>
    </TTGlyph>
    <TTGlyph name="AEacute" xMin="-13" yMin="0" xMax="605" yMax="830">
      <component glyphName="AE" x="0" y="0" flags="0x204"/>
      <component glyphName="acute" x="94" y="139" flags="0x4"/>
    </TTGlyph>
    <TTGlyph name="Aacute" xMin="-6" yMin="0" xMax="529" yMax="830">
      <component glyphName="A" x="0" y="0" flags="0x204"/>
      <component glyphName="acute" x="34" y="139" flags="0x4"/>
    </TTGlyph>
    <TTGlyph name="Abreve" xMin="-6" yMin="0" xMax="562" yMax="821">
      <component glyphName="A" x="0" y="0" flags="0x204"/>
      <component glyphName="breve" x="36" y="139" flags="0x4"/>
    </TTGlyph>
    <TTGlyph name="Acircumflex" xMin="-6" yMin="0" xMax="535" yMax="830">
      <component glyphName="A" x="0" y="0" flags="0x204"/>
      <component glyphName="circumflex" x="34" y="139" flags="0x4"/>
    </TTGlyph>
    <TTGlyph name="Adieresis" xMin="-6" yMin="0" xMax="573" yMax="812">
      <component glyphName="A" x="0" y="0" flags="0x204"/>
      <component glyphName="dieresis" x="34" y="139" flags="0x4"/>
    </TTGlyph>
    <TTGlyph name="Agrave" xMin="-6" yMin="0" xMax="491" yMax="830">
      <component glyphName="A" x="0" y="0" flags="0x204"/>
      <component glyphName="grave" x="34" y="139" flags="0x4"/>
    </TTGlyph>
    <TTGlyph name="Alpha" xMin="-6" yMin="0" xMax="476" yMax="619">
      <component glyphName="A" x="0" y="0" flags="0x204"/>
    </TTGlyph>
    <TTGlyph name="Alphatonos" xMin="-6" yMin="0" xMax="476" yMax="658">
      <component glyphName="A" x="0" y="0" flags="0x204"/>
      <component glyphName="tonos.cap" x="-172" y="0" flags="0x4"/>
    </TTGlyph>
    <TTGlyph name="Amacron" xMin="-6" yMin="0" xMax="559" yMax="786">
      <component glyphName="A" x="0" y="0" flags="0x204"/>
      <component glyphName="macron" x="36" y="139" flags="0x4"/>
    </TTGlyph>
    <TTGlyph name="Aogonek" xMin="6" yMin="-170" xMax="488" yMax="619">
      <contour>
        <pt x="368" y="144" on="1"/>
        <pt x="192" y="144" on="1"/>
        <pt x="177" y="110" on="0"/>
        <pt x="145" y="38" on="0"/>
        <pt x="131" y="0" on="1"/>
        <pt x="6" y="0" on="1"/>
        <pt x="91" y="186" on="0"/>
        <pt x="249" y="497" on="0"/>
        <pt x="324" y="619" on="1"/>
        <pt x="455" y="619" on="1"/>
        <pt x="470" y="491" on="0"/>
        <pt x="488" y="209" on="0"/>
        <pt x="488" y="45" on="1"/>
        <pt x="488" y="0" on="1"/>
        <pt x="484" y="-3" on="1"/>
        <pt x="439" y="-36" on="0"/>
        <pt x="403" y="-75" on="0"/>
        <pt x="403" y="-87" on="1"/>
        <pt x="403" y="-101" on="0"/>
        <pt x="425" y="-101" on="1"/>
        <pt x="438" y="-101" on="0"/>
        <pt x="467" y="-94" on="0"/>
        <pt x="473" y="-92" on="1"/>
        <pt x="465" y="-156" on="1"/>
        <pt x="448" y="-162" on="0"/>
        <pt x="403" y="-170" on="0"/>
        <pt x="380" y="-170" on="1"/>
        <pt x="325" y="-170" on="0"/>
        <pt x="281" y="-138" on="0"/>
        <pt x="281" y="-117" on="1"/>
        <pt x="281" y="-88" on="0"/>
        <pt x="325" y="-33" on="0"/>
        <pt x="381" y="0" on="1"/>
        <pt x="364" y="0" on="1"/>
      </contour>
      <contour>
        <pt x="364" y="502" on="1"/>
        <pt x="351" y="477" on="0"/>
        <pt x="326" y="429" on="0"/>
        <pt x="297" y="370" on="0"/>
        <pt x="261" y="294" on="0"/>
        <pt x="238" y="243" on="1"/>
        <pt x="370" y="243" on="1"/>
        <pt x="370" y="263" on="0"/>
        <pt x="371" y="297" on="0"/>
        <pt x="371" y="313" on="1"/>
        <pt x="371" y="346" on="0"/>
        <pt x="369" y="399" on="0"/>
        <pt x="367" y="443" on="0"/>
        <pt x="365" y="482" on="0"/>
      </contour>
    </TTGlyph>
    <TTGlyph name="Aring" xMin="-6" yMin="0" xMax="490" yMax="788">
      <contour>
        <pt x="356" y="144" on="1"/>
        <pt x="180" y="144" on="1"/>
        <pt x="165" y="110" on="0"/>
        <pt x="133" y="38" on="0"/>
        <pt x="119" y="0" on="1"/>
        <pt x="-6" y="0" on="1"/>
        <pt x="78" y="183" on="0"/>
        <pt x="234" y="491" on="0"/>
        <pt x="308" y="612" on="1"/>
        <pt x="295" y="625" on="0"/>
        <pt x="280" y="662" on="0"/>
        <pt x="280" y="685" on="1"/>
        <pt x="280" y="710" on="0"/>
        <pt x="297" y="749" on="0"/>
        <pt x="326" y="775" on="0"/>
        <pt x="364" y="788" on="0"/>
        <pt x="384" y="788" on="1"/>
        <pt x="427" y="788" on="0"/>
        <pt x="490" y="736" on="0"/>
        <pt x="490" y="685" on="1"/>
        <pt x="490" y="654" on="0"/>
        <pt x="465" y="611" on="0"/>
        <pt x="445" y="599" on="1"/>
        <pt x="459" y="467" on="0"/>
        <pt x="478" y="171" on="0"/>
        <pt x="476" y="0" on="1"/>
        <pt x="352" y="0" on="1"/>
      </contour>
      <contour>
        <pt x="352" y="502" on="1"/>
        <pt x="339" y="477" on="0"/>
        <pt x="314" y="429" on="0"/>
        <pt x="285" y="370" on="0"/>
        <pt x="249" y="294" on="0"/>
        <pt x="226" y="243" on="1"/>
        <pt x="358" y="243" on="1"/>
        <pt x="359" y="294" on="0"/>
        <pt x="358" y="370" on="0"/>
        <pt x="356" y="429" on="0"/>
        <pt x="353" y="478" on="0"/>
      </contour>
      <contour>
        <pt x="425" y="685" on="1"/>
        <pt x="425" y="706" on="0"/>
        <pt x="401" y="727" on="0"/>
        <pt x="384" y="727" on="1"/>
        <pt x="369" y="727" on="0"/>
        <pt x="344" y="706" on="0"/>
        <pt x="344" y="685" on="1"/>
        <pt x="344" y="665" on="0"/>
        <pt x="369" y="643" on="0"/>
        <pt x="384" y="643" on="1"/>
        <pt x="401" y="643" on="0"/>
        <pt x="425" y="665" on="0"/>
      </contour>
    </TTGlyph>
    <TTGlyph name="Aringacute" xMin="-6" yMin="0" xMax="491" yMax="830">
      <contour>
        <pt x="348" y="473" on="1"/>
        <pt x="336" y="452" on="0"/>
        <pt x="314" y="411" on="0"/>
        <pt x="287" y="359" on="0"/>
        <pt x="251" y="287" on="0"/>
        <pt x="226" y="235" on="1"/>
        <pt x="358" y="235" on="1"/>
        <pt x="358" y="281" on="0"/>
        <pt x="357" y="352" on="0"/>
        <pt x="354" y="407" on="0"/>
        <pt x="350" y="452" on="0"/>
      </contour>
      <contour>
        <pt x="491" y="764" on="1"/>
        <pt x="336" y="709" on="1"/>
        <pt x="319" y="757" on="1"/>
        <pt x="465" y="830" on="1"/>
      </contour>
      <contour>
        <pt x="473" y="607" on="1"/>
        <pt x="473" y="585" on="0"/>
        <pt x="458" y="552" on="0"/>
        <pt x="445" y="541" on="1"/>
        <pt x="459" y="420" on="0"/>
        <pt x="478" y="153" on="0"/>
        <pt x="476" y="0" on="1"/>
        <pt x="352" y="0" on="1"/>
        <pt x="355" y="133" on="1"/>
        <pt x="179" y="133" on="1"/>
        <pt x="164" y="101" on="0"/>
        <pt x="135" y="37" on="0"/>
        <pt x="119" y="0" on="1"/>
        <pt x="-6" y="0" on="1"/>
        <pt x="78" y="172" on="0"/>
        <pt x="228" y="455" on="0"/>
        <pt x="299" y="570" on="1"/>
        <pt x="292" y="584" on="0"/>
        <pt x="292" y="607" on="1"/>
        <pt x="292" y="628" on="0"/>
        <pt x="307" y="661" on="0"/>
        <pt x="332" y="684" on="0"/>
        <pt x="365" y="695" on="0"/>
        <pt x="382" y="695" on="1"/>
        <pt x="418" y="695" on="0"/>
        <pt x="473" y="650" on="0"/>
      </contour>
      <contour>
        <pt x="418" y="607" on="1"/>
        <pt x="417" y="625" on="0"/>
        <pt x="396" y="644" on="0"/>
        <pt x="382" y="644" on="1"/>
        <pt x="369" y="644" on="0"/>
        <pt x="347" y="625" on="0"/>
        <pt x="347" y="607" on="1"/>
        <pt x="347" y="589" on="0"/>
        <pt x="369" y="570" on="0"/>
        <pt x="382" y="570" on="1"/>
        <pt x="396" y="570" on="0"/>
        <pt x="417" y="589" on="0"/>
      </contour>
    </TTGlyph>
    <TTGlyph name="At" xMin="52" yMin="-77" xMax="557" yMax="691">
      <component glyphName="at" x="-3" y="58" flags="0x204"/>
    </TTGlyph>
    <TTGlyph name="Atilde" xMin="-6" yMin="0" xMax="561" yMax="813">
      <component glyphName="A" x="0" y="0" flags="0x204"/>
      <component glyphName="tilde" x="34" y="139" flags="0x4"/>
    </TTGlyph>
    <TTGlyph name="B" xMin="39" yMin="-8" xMax="536" yMax="626">
      <contour>
        <pt x="207" y="-8" on="1"/>
        <pt x="192" y="-8" on="0"/>
        <pt x="151" y="-6" on="0"/>
        <pt x="105" y="-1" on="0"/>
        <pt x="58" y="7" on="0"/>
        <pt x="39" y="13" on="1"/>
        <pt x="182" y="607" on="1"/>
        <pt x="202" y="612" on="0"/>
        <pt x="247" y="619" on="0"/>
        <pt x="290" y="624" on="0"/>
        <pt x="330" y="626" on="0"/>
        <pt x="345" y="626" on="1"/>
        <pt x="388" y="626" on="0"/>
        <pt x="458" y="610" on="0"/>
        <pt x="508" y="574" on="0"/>
        <pt x="536" y="519" on="0"/>
        <pt x="536" y="480" on="1"/>
        <pt x="536" y="435" on="0"/>
        <pt x="487" y="352" on="0"/>
        <pt x="423" y="327" on="1"/>
        <pt x="465" y="307" on="0"/>
        <pt x="503" y="248" on="0"/>
        <pt x="503" y="204" on="1"/>
        <pt x="503" y="156" on="0"/>
        <pt x="465" y="78" on="0"/>
        <pt x="390" y="23" on="0"/>
        <pt x="279" y="-8" on="0"/>
      </contour>
      <contour>
        <pt x="221" y="272" on="1"/>
        <pt x="180" y="101" on="1"/>
        <pt x="191" y="99" on="0"/>
        <pt x="226" y="97" on="0"/>
        <pt x="251" y="97" on="1"/>
        <pt x="269" y="97" on="0"/>
        <pt x="315" y="107" on="0"/>
        <pt x="355" y="131" on="0"/>
        <pt x="383" y="173" on="0"/>
        <pt x="383" y="205" on="1"/>
        <pt x="383" y="245" on="0"/>
        <pt x="329" y="272" on="0"/>
        <pt x="286" y="272" on="1"/>
      </contour>
      <contour>
        <pt x="246" y="371" on="1"/>
        <pt x="284" y="371" on="1"/>
        <pt x="309" y="371" on="0"/>
        <pt x="357" y="380" on="0"/>
        <pt x="395" y="402" on="0"/>
        <pt x="419" y="438" on="0"/>
        <pt x="419" y="464" on="1"/>
        <pt x="419" y="496" on="0"/>
        <pt x="375" y="522" on="0"/>
        <pt x="336" y="522" on="1"/>
        <pt x="320" y="522" on="0"/>
        <pt x="291" y="521" on="0"/>
        <pt x="280" y="519" on="1"/>
      </contour>
    </TTGlyph>
    <TTGlyph name="Backslash" xMin="206" yMin="-123" xMax="404" yMax="741">
      <component glyphName="backslash" x="0" y="42" flags="0x204"/>
    </TTGlyph>
    <TTGlyph name="Beta" xMin="39" yMin="-8" xMax="536" yMax="626">
      <component glyphName="B" x="0" y="0" flags="0x204"/>
    </TTGlyph>
    <TTGlyph name="Braceleft" xMin="91" yMin="-123" xMax="571" yMax="741">
      <component glyphName="braceleft" x="-8" y="42" flags="0x204"/>
    </TTGlyph>
    <TTGlyph name="Braceright" xMin="-16" yMin="-123" xMax="463" yMax="741">
      <component glyphName="braceright" x="-20" y="42" flags="0x204"/>
    </TTGlyph>
    <TTGlyph name="Bracketleft" xMin="89" yMin="-123" xMax="575" yMax="741">
      <component glyphName="bracketleft" x="0" y="42" flags="0x204"/>
    </TTGlyph>
    <TTGlyph name="Bracketright" xMin="7" yMin="-123" xMax="493" yMax="741">
      <component glyphName="bracketright" x="-8" y="42" flags="0x204"/>
    </TTGlyph>
    <TTGlyph name="Bullet" xMin="174" yMin="194" xMax="446" yMax="480">
      <component glyphName="bullet" x="0" y="23" flags="0x204"/>
    </TTGlyph>
    <TTGlyph name="C" xMin="88" yMin="-13" xMax="569" yMax="633">
      <contour>
        <pt x="288" y="-13" on="1"/>
        <pt x="237" y="-13" on="0"/>
        <pt x="161" y="18" on="0"/>
        <pt x="112" y="75" on="0"/>
        <pt x="88" y="156" on="0"/>
        <pt x="88" y="205" on="1"/>
        <pt x="88" y="280" on="0"/>
        <pt x="129" y="433" on="0"/>
        <pt x="211" y="556" on="0"/>
        <pt x="336" y="633" on="0"/>
        <pt x="420" y="633" on="1"/>
        <pt x="452" y="633" on="0"/>
        <pt x="502" y="621" on="0"/>
        <pt x="540" y="606" on="0"/>
        <pt x="564" y="589" on="0"/>
        <pt x="569" y="585" on="1"/>
        <pt x="523" y="490" on="1"/>
        <pt x="503" y="505" on="0"/>
        <pt x="449" y="526" on="0"/>
        <pt x="407" y="526" on="1"/>
        <pt x="358" y="526" on="0"/>
        <pt x="285" y="468" on="0"/>
        <pt x="236" y="378" on="0"/>
        <pt x="212" y="269" on="0"/>
        <pt x="212" y="217" on="1"/>
        <pt x="212" y="190" on="0"/>
        <pt x="223" y="146" on="0"/>
        <pt x="248" y="113" on="0"/>
        <pt x="289" y="95" on="0"/>
        <pt x="319" y="95" on="1"/>
        <pt x="365" y="95" on="0"/>
        <pt x="427" y="117" on="0"/>
        <pt x="447" y="129" on="1"/>
        <pt x="461" y="30" on="1"/>
        <pt x="435" y="14" on="0"/>
        <pt x="345" y="-13" on="0"/>
      </contour>
    </TTGlyph>
    <TTGlyph name="Cacute" xMin="88" yMin="-13" xMax="569" yMax="830">
      <component glyphName="C" x="0" y="0" flags="0x204"/>
      <component glyphName="acute" x="45" y="139" flags="0x4"/>
    </TTGlyph>
    <TTGlyph name="Ccaron" xMin="88" yMin="-13" xMax="580" yMax="830">
      <component glyphName="C" x="0" y="0" flags="0x204"/>
      <component glyphName="caron" x="63" y="139" flags="0x4"/>
    </TTGlyph>
    <TTGlyph name="Ccedilla" xMin="88" yMin="-170" xMax="569" yMax="633">
      <contour>
        <pt x="300" y="-25" on="1"/>
        <pt x="322" y="-36" on="0"/>
        <pt x="340" y="-66" on="0"/>
        <pt x="340" y="-84" on="1"/>
        <pt x="340" y="-125" on="0"/>
        <pt x="271" y="-170" on="0"/>
        <pt x="217" y="-170" on="1"/>
        <pt x="169" y="-170" on="0"/>
        <pt x="131" y="-150" on="1"/>
        <pt x="157" y="-92" on="1"/>
        <pt x="168" y="-98" on="0"/>
        <pt x="197" y="-105" on="0"/>
        <pt x="211" y="-105" on="1"/>
        <pt x="234" y="-105" on="0"/>
        <pt x="249" y="-87" on="0"/>
        <pt x="249" y="-80" on="1"/>
        <pt x="249" y="-69" on="0"/>
        <pt x="238" y="-54" on="0"/>
        <pt x="223" y="-49" on="1"/>
        <pt x="205" y="-43" on="1"/>
        <pt x="229" y="-7" on="1"/>
        <pt x="157" y="10" on="0"/>
        <pt x="88" y="121" on="0"/>
        <pt x="88" y="205" on="1"/>
        <pt x="88" y="280" on="0"/>
        <pt x="129" y="433" on="0"/>
        <pt x="211" y="556" on="0"/>
        <pt x="336" y="633" on="0"/>
        <pt x="420" y="633" on="1"/>
        <pt x="452" y="633" on="0"/>
        <pt x="502" y="621" on="0"/>
        <pt x="540" y="606" on="0"/>
        <pt x="564" y="589" on="0"/>
        <pt x="569" y="585" on="1"/>
        <pt x="523" y="490" on="1"/>
        <pt x="503" y="505" on="0"/>
        <pt x="449" y="526" on="0"/>
        <pt x="407" y="526" on="1"/>
        <pt x="358" y="526" on="0"/>
        <pt x="285" y="468" on="0"/>
        <pt x="236" y="378" on="0"/>
        <pt x="212" y="269" on="0"/>
        <pt x="212" y="217" on="1"/>
        <pt x="212" y="190" on="0"/>
        <pt x="223" y="146" on="0"/>
        <pt x="248" y="113" on="0"/>
        <pt x="289" y="95" on="0"/>
        <pt x="319" y="95" on="1"/>
        <pt x="365" y="95" on="0"/>
        <pt x="427" y="117" on="0"/>
        <pt x="447" y="129" on="1"/>
        <pt x="461" y="30" on="1"/>
        <pt x="438" y="16" on="0"/>
        <pt x="359" y="-10" on="0"/>
        <pt x="308" y="-12" on="1"/>
      </contour>
    </TTGlyph>
    <TTGlyph name="Ccircumflex" xMin="88" yMin="-13" xMax="572" yMax="830">
      <component glyphName="C" x="0" y="0" flags="0x204"/>
      <component glyphName="circumflex" x="71" y="139" flags="0x4"/>
    </TTGlyph>
    <TTGlyph name="Cdotaccent" xMin="88" yMin="-13" xMax="569" yMax="814">
      <component glyphName="C" x="0" y="0" flags="0x204"/>
      <component glyphName="dotaccent" x="63" y="139" flags="0x4"/>
    </TTGlyph>
    <TTGlyph name="Chi" xMin="2" yMin="0" xMax="610" yMax="619">
      <component glyphName="X" x="0" y="0" flags="0x204"/>
    </TTGlyph>
    <TTGlyph name="D" xMin="31" yMin="-8" xMax="529" yMax="626">
      <contour>
        <pt x="177" y="100" on="1"/>
        <pt x="182" y="99" on="0"/>
        <pt x="194" y="99" on="0"/>
        <pt x="199" y="99" on="1"/>
        <pt x="256" y="99" on="0"/>
        <pt x="335" y="158" on="0"/>
        <pt x="383" y="249" on="0"/>
        <pt x="405" y="357" on="0"/>
        <pt x="405" y="405" on="1"/>
        <pt x="405" y="429" on="0"/>
        <pt x="397" y="471" on="0"/>
        <pt x="377" y="502" on="0"/>
        <pt x="341" y="519" on="0"/>
        <pt x="313" y="519" on="1"/>
        <pt x="295" y="519" on="0"/>
        <pt x="277" y="516" on="1"/>
      </contour>
      <contour>
        <pt x="529" y="409" on="1"/>
        <pt x="529" y="329" on="0"/>
        <pt x="491" y="178" on="0"/>
        <pt x="407" y="62" on="0"/>
        <pt x="274" y="-8" on="0"/>
        <pt x="180" y="-8" on="1"/>
        <pt x="148" y="-8" on="0"/>
        <pt x="66" y="-1" on="0"/>
        <pt x="31" y="7" on="1"/>
        <pt x="177" y="611" on="1"/>
        <pt x="221" y="620" on="0"/>
        <pt x="282" y="626" on="0"/>
        <pt x="314" y="626" on="1"/>
        <pt x="414" y="626" on="0"/>
        <pt x="529" y="513" on="0"/>
      </contour>
    </TTGlyph>
    <TTGlyph name="Dcaron" xMin="31" yMin="-8" xMax="529" yMax="830">
      <component glyphName="D" x="0" y="0" flags="0x204"/>
      <component glyphName="caron" x="0" y="139" flags="0x4"/>
    </TTGlyph>
    <TTGlyph name="Dcroat" xMin="50" yMin="-8" xMax="529" yMax="626">
      <component glyphName="Eth" x="0" y="0" flags="0x204"/>
    </TTGlyph>
    <TTGlyph name="Delta" xMin="-6" yMin="0" xMax="474" yMax="619">
      <component glyphName="uni0394" x="0" y="0" flags="0x204"/>
    </TTGlyph>
    <TTGlyph name="E" xMin="53" yMin="0" xMax="568" yMax="619">
      <contour>
        <pt x="53" y="0" on="1"/>
        <pt x="201" y="619" on="1"/>
        <pt x="568" y="619" on="1"/>
        <pt x="544" y="517" on="1"/>
        <pt x="300" y="517" on="1"/>
        <pt x="266" y="378" on="1"/>
        <pt x="478" y="378" on="1"/>
        <pt x="454" y="276" on="1"/>
        <pt x="242" y="276" on="1"/>
        <pt x="200" y="102" on="1"/>
        <pt x="466" y="102" on="1"/>
        <pt x="442" y="0" on="1"/>
      </contour>
    </TTGlyph>
    <TTGlyph name="Eacute" xMin="53" yMin="0" xMax="568" yMax="830">
      <component glyphName="E" x="0" y="0" flags="0x204"/>
      <component glyphName="acute" x="35" y="139" flags="0x4"/>
    </TTGlyph>
    <TTGlyph name="Ebreve" xMin="53" yMin="0" xMax="580" yMax="821">
      <component glyphName="E" x="0" y="0" flags="0x204"/>
      <component glyphName="breve" x="54" y="139" flags="0x4"/>
    </TTGlyph>
    <TTGlyph name="Ecaron" xMin="53" yMin="0" xMax="571" yMax="830">
      <component glyphName="E" x="0" y="0" flags="0x204"/>
      <component glyphName="caron" x="54" y="139" flags="0x4"/>
    </TTGlyph>
    <TTGlyph name="Ecircumflex" xMin="53" yMin="0" xMax="568" yMax="830">
      <component glyphName="E" x="0" y="0" flags="0x204"/>
      <component glyphName="circumflex" x="40" y="139" flags="0x4"/>
    </TTGlyph>
    <TTGlyph name="Edieresis" xMin="53" yMin="0" xMax="574" yMax="812">
      <component glyphName="E" x="0" y="0" flags="0x204"/>
      <component glyphName="dieresis" x="35" y="139" flags="0x4"/>
    </TTGlyph>
    <TTGlyph name="Edotaccent" xMin="53" yMin="0" xMax="568" yMax="814">
      <component glyphName="E" x="0" y="0" flags="0x204"/>
      <component glyphName="dotaccent" x="54" y="139" flags="0x4"/>
    </TTGlyph>
    <TTGlyph name="Egrave" xMin="53" yMin="0" xMax="568" yMax="830">
      <component glyphName="E" x="0" y="0" flags="0x204"/>
      <component glyphName="grave" x="47" y="139" flags="0x4"/>
    </TTGlyph>
    <TTGlyph name="Emacron" xMin="53" yMin="0" xMax="577" yMax="786">
      <component glyphName="E" x="0" y="0" flags="0x204"/>
      <component glyphName="macron" x="54" y="139" flags="0x4"/>
    </TTGlyph>
    <TTGlyph name="Emdash" xMin="34" yMin="259" xMax="556" yMax="351">
      <component glyphName="emdash" x="0" y="38" flags="0x204"/>
    </TTGlyph>
    <TTGlyph name="Endash" xMin="88" yMin="259" xMax="504" yMax="351">
      <component glyphName="endash" x="0" y="38" flags="0x204"/>
    </TTGlyph>
    <TTGlyph name="Eng" xMin="26" yMin="-167" xMax="585" yMax="619">
      <contour>
        <pt x="255" y="-167" on="1"/>
        <pt x="204" y="-167" on="0"/>
        <pt x="171" y="-149" on="1"/>
        <pt x="207" y="-54" on="1"/>
        <pt x="218" y="-58" on="0"/>
        <pt x="238" y="-62" on="0"/>
        <pt x="255" y="-62" on="1"/>
        <pt x="290" y="-62" on="0"/>
        <pt x="322" y="-25" on="0"/>
        <pt x="330" y="7" on="1"/>
        <pt x="334" y="21" on="1"/>
        <pt x="326" y="66" on="0"/>
        <pt x="305" y="169" on="0"/>
        <pt x="281" y="279" on="0"/>
        <pt x="254" y="390" on="0"/>
        <pt x="240" y="444" on="1"/>
        <pt x="135" y="0" on="1"/>
        <pt x="26" y="0" on="1"/>
        <pt x="174" y="619" on="1"/>
        <pt x="279" y="619" on="1"/>
        <pt x="293" y="575" on="0"/>
        <pt x="324" y="471" on="0"/>
        <pt x="351" y="365" on="0"/>
        <pt x="374" y="261" on="0"/>
        <pt x="381" y="218" on="1"/>
        <pt x="476" y="619" on="1"/>
        <pt x="585" y="619" on="1"/>
        <pt x="441" y="19" on="1"/>
        <pt x="430" y="-27" on="0"/>
        <pt x="402" y="-97" on="0"/>
        <pt x="359" y="-143" on="0"/>
        <pt x="298" y="-167" on="0"/>
      </contour>
    </TTGlyph>
    <TTGlyph name="Eogonek" xMin="53" yMin="-170" xMax="568" yMax="619">
      <contour>
        <pt x="419" y="-156" on="1"/>
        <pt x="402" y="-162" on="0"/>
        <pt x="357" y="-170" on="0"/>
        <pt x="334" y="-170" on="1"/>
        <pt x="279" y="-170" on="0"/>
        <pt x="235" y="-138" on="0"/>
        <pt x="235" y="-117" on="1"/>
        <pt x="235" y="-88" on="0"/>
        <pt x="277" y="-33" on="0"/>
        <pt x="333" y="0" on="1"/>
        <pt x="53" y="0" on="1"/>
        <pt x="201" y="619" on="1"/>
        <pt x="568" y="619" on="1"/>
        <pt x="544" y="517" on="1"/>
        <pt x="300" y="517" on="1"/>
        <pt x="266" y="378" on="1"/>
        <pt x="478" y="378" on="1"/>
        <pt x="454" y="276" on="1"/>
        <pt x="242" y="276" on="1"/>
        <pt x="200" y="102" on="1"/>
        <pt x="466" y="102" on="1"/>
        <pt x="442" y="0" on="1"/>
        <pt x="435" y="-5" on="1"/>
        <pt x="390" y="-37" on="0"/>
        <pt x="357" y="-75" on="0"/>
        <pt x="357" y="-87" on="1"/>
        <pt x="357" y="-101" on="0"/>
        <pt x="379" y="-101" on="1"/>
        <pt x="392" y="-101" on="0"/>
        <pt x="421" y="-94" on="0"/>
        <pt x="427" y="-92" on="1"/>
      </contour>
    </TTGlyph>
    <TTGlyph name="Epsilon" xMin="53" yMin="0" xMax="568" yMax="619">
      <component glyphName="E" x="0" y="0" flags="0x204"/>
    </TTGlyph>
    <TTGlyph name="Epsilontonos" xMin="-25" yMin="0" xMax="568" yMax="658">
      <component glyphName="tonos.cap" x="-275" y="0" flags="0x214"/>
      <component glyphName="E" x="0" y="0" flags="0x4"/>
    </TTGlyph>
    <TTGlyph name="Eta" xMin="26" yMin="0" xMax="586" yMax="619">
      <component glyphName="H" x="0" y="0" flags="0x204"/>
    </TTGlyph>
    <TTGlyph name="Etatonos" xMin="-52" yMin="0" xMax="586" yMax="658">
      <component glyphName="H" x="0" y="0" flags="0x204"/>
      <component glyphName="tonos.cap" x="-302" y="0" flags="0x4"/>
    </TTGlyph>
    <TTGlyph name="Eth" xMin="50" yMin="-8" xMax="529" yMax="626">
      <contour>
        <pt x="529" y="409" on="1"/>
        <pt x="529" y="329" on="0"/>
        <pt x="491" y="178" on="0"/>
        <pt x="409" y="62" on="0"/>
        <pt x="281" y="-8" on="0"/>
        <pt x="190" y="-8" on="1"/>
        <pt x="157" y="-8" on="0"/>
        <pt x="85" y="-1" on="0"/>
        <pt x="50" y="7" on="1"/>
        <pt x="113" y="270" on="1"/>
        <pt x="55" y="270" on="1"/>
        <pt x="80" y="372" on="1"/>
        <pt x="137" y="372" on="1"/>
        <pt x="195" y="611" on="1"/>
        <pt x="233" y="620" on="0"/>
        <pt x="294" y="626" on="0"/>
        <pt x="324" y="626" on="1"/>
        <pt x="370" y="626" on="0"/>
        <pt x="445" y="597" on="0"/>
        <pt x="499" y="541" on="0"/>
        <pt x="529" y="461" on="0"/>
      </contour>
      <contour>
        <pt x="234" y="270" on="1"/>
        <pt x="193" y="100" on="1"/>
        <pt x="198" y="99" on="0"/>
        <pt x="210" y="99" on="0"/>
        <pt x="212" y="99" on="1"/>
        <pt x="266" y="99" on="0"/>
        <pt x="340" y="158" on="0"/>
        <pt x="386" y="249" on="0"/>
        <pt x="406" y="357" on="0"/>
        <pt x="406" y="405" on="1"/>
        <pt x="406" y="454" on="0"/>
        <pt x="371" y="519" on="0"/>
        <pt x="322" y="519" on="1"/>
        <pt x="314" y="519" on="0"/>
        <pt x="299" y="519" on="0"/>
        <pt x="293" y="518" on="1"/>
        <pt x="259" y="372" on="1"/>
        <pt x="320" y="372" on="1"/>
        <pt x="295" y="270" on="1"/>
      </contour>
    </TTGlyph>
    <TTGlyph name="Euro" xMin="63" yMin="-13" xMax="605" yMax="633">
      <contour>
        <pt x="258" y="198" on="1"/>
        <pt x="263" y="136" on="0"/>
        <pt x="322" y="91" on="0"/>
        <pt x="368" y="91" on="1"/>
        <pt x="394" y="91" on="0"/>
        <pt x="457" y="102" on="0"/>
        <pt x="484" y="112" on="1"/>
        <pt x="489" y="14" on="1"/>
        <pt x="457" y="1" on="0"/>
        <pt x="379" y="-13" on="0"/>
        <pt x="344" y="-13" on="1"/>
        <pt x="303" y="-13" on="0"/>
        <pt x="229" y="10" on="0"/>
        <pt x="173" y="60" on="0"/>
        <pt x="139" y="141" on="0"/>
        <pt x="138" y="198" on="1"/>
        <pt x="63" y="198" on="1"/>
        <pt x="83" y="280" on="1"/>
        <pt x="141" y="280" on="1"/>
        <pt x="143" y="299" on="0"/>
        <pt x="150" y="331" on="0"/>
        <pt x="154" y="347" on="1"/>
        <pt x="97" y="347" on="1"/>
        <pt x="117" y="429" on="1"/>
        <pt x="179" y="429" on="1"/>
        <pt x="199" y="475" on="0"/>
        <pt x="253" y="551" on="0"/>
        <pt x="327" y="604" on="0"/>
        <pt x="424" y="633" on="0"/>
        <pt x="488" y="633" on="1"/>
        <pt x="545" y="633" on="0"/>
        <pt x="605" y="613" on="1"/>
        <pt x="561" y="516" on="1"/>
        <pt x="541" y="524" on="0"/>
        <pt x="492" y="531" on="0"/>
        <pt x="472" y="531" on="1"/>
        <pt x="407" y="531" on="0"/>
        <pt x="328" y="477" on="0"/>
        <pt x="301" y="429" on="1"/>
        <pt x="513" y="429" on="1"/>
        <pt x="480" y="347" on="1"/>
        <pt x="274" y="347" on="1"/>
        <pt x="269" y="333" on="0"/>
        <pt x="263" y="298" on="0"/>
        <pt x="261" y="280" on="1"/>
        <pt x="451" y="280" on="1"/>
        <pt x="417" y="198" on="1"/>
      </contour>
    </TTGlyph>
    <TTGlyph name="Exclamdown" xMin="163" yMin="1" xMax="444" yMax="632">
      <component glyphName="exclamdown" x="36" y="162" flags="0x204"/>
    </TTGlyph>
    <TTGlyph name="F" xMin="57" yMin="0" xMax="585" yMax="619">
      <contour>
        <pt x="57" y="0" on="1"/>
        <pt x="205" y="619" on="1"/>
        <pt x="585" y="619" on="1"/>
        <pt x="561" y="517" on="1"/>
        <pt x="305" y="517" on="1"/>
        <pt x="268" y="367" on="1"/>
        <pt x="492" y="367" on="1"/>
        <pt x="468" y="265" on="1"/>
        <pt x="244" y="265" on="1"/>
        <pt x="180" y="0" on="1"/>
      </contour>
    </TTGlyph>
    <TTGlyph name="G" xMin="78" yMin="-13" xMax="569" yMax="633">
      <contour>
        <pt x="263" y="-13" on="1"/>
        <pt x="170" y="-13" on="0"/>
        <pt x="78" y="101" on="0"/>
        <pt x="78" y="205" on="1"/>
        <pt x="78" y="280" on="0"/>
        <pt x="121" y="433" on="0"/>
        <pt x="206" y="556" on="0"/>
        <pt x="334" y="633" on="0"/>
        <pt x="420" y="633" on="1"/>
        <pt x="452" y="633" on="0"/>
        <pt x="502" y="621" on="0"/>
        <pt x="540" y="606" on="0"/>
        <pt x="564" y="589" on="0"/>
        <pt x="569" y="585" on="1"/>
        <pt x="523" y="490" on="1"/>
        <pt x="503" y="505" on="0"/>
        <pt x="449" y="526" on="0"/>
        <pt x="407" y="526" on="1"/>
        <pt x="356" y="526" on="0"/>
        <pt x="279" y="468" on="0"/>
        <pt x="227" y="378" on="0"/>
        <pt x="201" y="269" on="0"/>
        <pt x="201" y="217" on="1"/>
        <pt x="201" y="163" on="0"/>
        <pt x="241" y="94" on="0"/>
        <pt x="289" y="94" on="1"/>
        <pt x="302" y="94" on="0"/>
        <pt x="327" y="96" on="0"/>
        <pt x="338" y="98" on="1"/>
        <pt x="392" y="324" on="1"/>
        <pt x="515" y="324" on="1"/>
        <pt x="441" y="15" on="1"/>
        <pt x="418" y="7" on="0"/>
        <pt x="321" y="-13" on="0"/>
      </contour>
    </TTGlyph>
    <TTGlyph name="Gamma" xMin="14" yMin="0" xMax="600" yMax="619">
      <component glyphName="afii10020" x="0" y="0" flags="0x204"/>
    </TTGlyph>
    <TTGlyph name="Gbreve" xMin="78" yMin="-13" xMax="580" yMax="821">
      <component glyphName="G" x="0" y="0" flags="0x204"/>
      <component glyphName="breve" x="54" y="139" flags="0x4"/>
    </TTGlyph>
    <TTGlyph name="Gcaron" xMin="78" yMin="-13" xMax="580" yMax="830">
      <component glyphName="G" x="0" y="0" flags="0x204"/>
      <component glyphName="caron" x="63" y="139" flags="0x4"/>
    </TTGlyph>
    <TTGlyph name="Gcircumflex" xMin="78" yMin="-13" xMax="569" yMax="830">
      <component glyphName="G" x="0" y="0" flags="0x204"/>
      <component glyphName="circumflex" x="54" y="139" flags="0x4"/>
    </TTGlyph>
    <TTGlyph name="Gcommaaccent" xMin="78" yMin="-170" xMax="569" yMax="633">
      <component glyphName="G" x="0" y="0" flags="0x204"/>
      <component glyphName="commaaccent" x="10" y="0" flags="0x4"/>
    </TTGlyph>
    <TTGlyph name="Gdotaccent" xMin="78" yMin="-13" xMax="569" yMax="814">
      <component glyphName="G" x="0" y="0" flags="0x204"/>
      <component glyphName="dotaccent" x="64" y="139" flags="0x4"/>
    </TTGlyph>
    <TTGlyph name="Guillemotleft" xMin="89" yMin="100" xMax="525" yMax="517">
      <component glyphName="guillemotleft" x="0" y="54" flags="0x204"/>
    </TTGlyph>
    <TTGlyph name="Guillemotright" xMin="64" yMin="100" xMax="500" yMax="517">
      <component glyphName="guillemotright" x="0" y="54" flags="0x204"/>
    </TTGlyph>
    <TTGlyph name="Guilsinglleft" xMin="165" yMin="94" xMax="445" yMax="523">
      <component glyphName="guilsinglleft" x="0" y="55" flags="0x204"/>
    </TTGlyph>
    <TTGlyph name="Guilsinglright" xMin="131" yMin="94" xMax="411" yMax="523">
      <component glyphName="guilsinglright" x="0" y="55" flags="0x204"/>
    </TTGlyph>
    <TTGlyph name="H" xMin="26" yMin="0" xMax="586" yMax="619">
      <contour>
        <pt x="586" y="619" on="1"/>
        <pt x="437" y="0" on="1"/>
        <pt x="313" y="0" on="1"/>
        <pt x="380" y="273" on="1"/>
        <pt x="215" y="273" on="1"/>
        <pt x="149" y="0" on="1"/>
        <pt x="26" y="0" on="1"/>
        <pt x="175" y="619" on="1"/>
        <pt x="298" y="619" on="1"/>
        <pt x="239" y="375" on="1"/>
        <pt x="404" y="375" on="1"/>
        <pt x="463" y="619" on="1"/>
      </contour>
    </TTGlyph>
    <TTGlyph name="Hbar" xMin="53" yMin="0" xMax="597" yMax="619">
      <contour>
        <pt x="518" y="448" on="1"/>
        <pt x="410" y="0" on="1"/>
        <pt x="287" y="0" on="1"/>
        <pt x="353" y="273" on="1"/>
        <pt x="242" y="273" on="1"/>
        <pt x="176" y="0" on="1"/>
        <pt x="53" y="0" on="1"/>
        <pt x="161" y="448" on="1"/>
        <pt x="106" y="448" on="1"/>
        <pt x="130" y="547" on="1"/>
        <pt x="184" y="547" on="1"/>
        <pt x="202" y="619" on="1"/>
        <pt x="325" y="619" on="1"/>
        <pt x="307" y="547" on="1"/>
        <pt x="418" y="547" on="1"/>
        <pt x="436" y="619" on="1"/>
        <pt x="559" y="619" on="1"/>
        <pt x="541" y="547" on="1"/>
        <pt x="597" y="547" on="1"/>
        <pt x="573" y="448" on="1"/>
      </contour>
      <contour>
        <pt x="377" y="375" on="1"/>
        <pt x="395" y="448" on="1"/>
        <pt x="284" y="448" on="1"/>
        <pt x="266" y="375" on="1"/>
      </contour>
    </TTGlyph>
    <TTGlyph name="Hcircumflex" xMin="26" yMin="0" xMax="586" yMax="830">
      <component glyphName="H" x="0" y="0" flags="0x204"/>
      <component glyphName="circumflex" x="36" y="139" flags="0x4"/>
    </TTGlyph>
    <TTGlyph name="Hyphen" xMin="139" yMin="250" xMax="442" yMax="371">
      <component glyphName="hyphen" x="0" y="54" flags="0x204"/>
    </TTGlyph>
    <TTGlyph name="I" xMin="35" yMin="0" xMax="576" yMax="619">
      <contour>
        <pt x="35" y="0" on="1"/>
        <pt x="59" y="102" on="1"/>
        <pt x="195" y="102" on="1"/>
        <pt x="295" y="517" on="1"/>
        <pt x="159" y="517" on="1"/>
        <pt x="183" y="619" on="1"/>
        <pt x="576" y="619" on="1"/>
        <pt x="552" y="517" on="1"/>
        <pt x="418" y="517" on="1"/>
        <pt x="318" y="102" on="1"/>
        <pt x="452" y="102" on="1"/>
        <pt x="428" y="0" on="1"/>
      </contour>
    </TTGlyph>
    <TTGlyph name="IJ" xMin="13" yMin="-13" xMax="602" yMax="619">
      <contour>
        <pt x="13" y="0" on="1"/>
        <pt x="163" y="619" on="1"/>
        <pt x="277" y="619" on="1"/>
        <pt x="128" y="0" on="1"/>
      </contour>
      <contour>
        <pt x="504" y="207" on="1"/>
        <pt x="495" y="160" on="0"/>
        <pt x="467" y="79" on="0"/>
        <pt x="421" y="20" on="0"/>
        <pt x="354" y="-13" on="0"/>
        <pt x="305" y="-13" on="1"/>
        <pt x="256" y="-13" on="0"/>
        <pt x="184" y="22" on="0"/>
        <pt x="165" y="45" on="1"/>
        <pt x="222" y="124" on="1"/>
        <pt x="236" y="109" on="0"/>
        <pt x="278" y="85" on="0"/>
        <pt x="297" y="85" on="1"/>
        <pt x="316" y="85" on="0"/>
        <pt x="343" y="97" on="0"/>
        <pt x="364" y="125" on="0"/>
        <pt x="380" y="171" on="0"/>
        <pt x="388" y="205" on="1"/>
        <pt x="488" y="619" on="1"/>
        <pt x="602" y="619" on="1"/>
      </contour>
    </TTGlyph>
    <TTGlyph name="Iacute" xMin="35" yMin="0" xMax="576" yMax="830">
      <component glyphName="I" x="0" y="0" flags="0x204"/>
      <component glyphName="acute" x="36" y="139" flags="0x4"/>
    </TTGlyph>
    <TTGlyph name="Ibreve" xMin="35" yMin="0" xMax="576" yMax="821">
      <component glyphName="I" x="0" y="0" flags="0x204"/>
      <component glyphName="breve" x="36" y="139" flags="0x4"/>
    </TTGlyph>
    <TTGlyph name="Icircumflex" xMin="35" yMin="0" xMax="576" yMax="830">
      <component glyphName="I" x="0" y="0" flags="0x204"/>
      <component glyphName="circumflex" x="36" y="139" flags="0x4"/>
    </TTGlyph>
    <TTGlyph name="Idieresis" xMin="35" yMin="0" xMax="576" yMax="812">
      <component glyphName="I" x="0" y="0" flags="0x204"/>
      <component glyphName="dieresis" x="36" y="139" flags="0x4"/>
    </TTGlyph>
    <TTGlyph name="Idotaccent" xMin="35" yMin="0" xMax="576" yMax="814">
      <component glyphName="I" x="0" y="0" flags="0x204"/>
      <component glyphName="dotaccent" x="36" y="139" flags="0x4"/>
    </TTGlyph>
    <TTGlyph name="Igrave" xMin="35" yMin="0" xMax="576" yMax="830">
      <component glyphName="I" x="0" y="0" flags="0x204"/>
      <component glyphName="grave" x="36" y="139" flags="0x4"/>
    </TTGlyph>
    <TTGlyph name="Imacron" xMin="35" yMin="0" xMax="576" yMax="786">
      <component glyphName="I" x="0" y="0" flags="0x204"/>
      <component glyphName="macron" x="46" y="139" flags="0x4"/>
    </TTGlyph>
    <TTGlyph name="Iogonek" xMin="35" yMin="-170" xMax="576" yMax="619">
      <contour>
        <pt x="272" y="-156" on="1"/>
        <pt x="255" y="-162" on="0"/>
        <pt x="210" y="-170" on="0"/>
        <pt x="187" y="-170" on="1"/>
        <pt x="132" y="-170" on="0"/>
        <pt x="88" y="-138" on="0"/>
        <pt x="88" y="-117" on="1"/>
        <pt x="88" y="-88" on="0"/>
        <pt x="130" y="-33" on="0"/>
        <pt x="186" y="0" on="1"/>
        <pt x="35" y="0" on="1"/>
        <pt x="59" y="102" on="1"/>
        <pt x="195" y="102" on="1"/>
        <pt x="295" y="517" on="1"/>
        <pt x="159" y="517" on="1"/>
        <pt x="183" y="619" on="1"/>
        <pt x="576" y="619" on="1"/>
        <pt x="552" y="517" on="1"/>
        <pt x="418" y="517" on="1"/>
        <pt x="318" y="102" on="1"/>
        <pt x="452" y="102" on="1"/>
        <pt x="428" y="0" on="1"/>
        <pt x="295" y="0" on="1"/>
        <pt x="291" y="-3" on="1"/>
        <pt x="245" y="-35" on="0"/>
        <pt x="210" y="-75" on="0"/>
        <pt x="210" y="-87" on="1"/>
        <pt x="210" y="-101" on="0"/>
        <pt x="232" y="-101" on="1"/>
        <pt x="245" y="-101" on="0"/>
        <pt x="274" y="-94" on="0"/>
        <pt x="280" y="-92" on="1"/>
      </contour>
    </TTGlyph>
    <TTGlyph name="Iota" xMin="35" yMin="0" xMax="576" yMax="619">
      <component glyphName="I" x="0" y="0" flags="0x204"/>
    </TTGlyph>
    <TTGlyph name="Iotadieresis" xMin="35" yMin="0" xMax="576" yMax="812">
      <component glyphName="I" x="0" y="0" flags="0x204"/>
      <component glyphName="dieresis" x="27" y="139" flags="0x4"/>
    </TTGlyph>
    <TTGlyph name="Iotatonos" xMin="-42" yMin="0" xMax="576" yMax="658">
      <component glyphName="I" x="0" y="0" flags="0x204"/>
      <component glyphName="tonos.cap" x="-292" y="0" flags="0x4"/>
    </TTGlyph>
    <TTGlyph name="Itilde" xMin="35" yMin="0" xMax="576" yMax="813">
      <component glyphName="I" x="0" y="0" flags="0x204"/>
      <component glyphName="tilde" x="36" y="139" flags="0x4"/>
    </TTGlyph>
    <TTGlyph name="J" xMin="37" yMin="-13" xMax="557" yMax="619">
      <contour>
        <pt x="459" y="207" on="1"/>
        <pt x="448" y="160" on="0"/>
        <pt x="414" y="79" on="0"/>
        <pt x="358" y="20" on="0"/>
        <pt x="273" y="-13" on="0"/>
        <pt x="212" y="-13" on="1"/>
        <pt x="180" y="-13" on="0"/>
        <pt x="125" y="0" on="0"/>
        <pt x="82" y="20" on="0"/>
        <pt x="48" y="44" on="0"/>
        <pt x="37" y="55" on="1"/>
        <pt x="100" y="144" on="1"/>
        <pt x="120" y="126" on="0"/>
        <pt x="175" y="94" on="0"/>
        <pt x="210" y="94" on="1"/>
        <pt x="258" y="94" on="0"/>
        <pt x="321" y="145" on="0"/>
        <pt x="338" y="214" on="1"/>
        <pt x="410" y="517" on="1"/>
        <pt x="210" y="517" on="1"/>
        <pt x="234" y="619" on="1"/>
        <pt x="557" y="619" on="1"/>
      </contour>
    </TTGlyph>
    <TTGlyph name="Jcircumflex" xMin="37" yMin="-13" xMax="561" yMax="830">
      <component glyphName="J" x="0" y="0" flags="0x204"/>
      <component glyphName="circumflex" x="60" y="139" flags="0x4"/>
    </TTGlyph>
    <TTGlyph name="K" xMin="31" yMin="0" xMax="603" yMax="619">
      <contour>
        <pt x="338" y="322" on="1"/>
        <pt x="362" y="292" on="0"/>
        <pt x="406" y="217" on="0"/>
        <pt x="443" y="132" on="0"/>
        <pt x="472" y="43" on="0"/>
        <pt x="481" y="0" on="1"/>
        <pt x="352" y="0" on="1"/>
        <pt x="345" y="35" on="0"/>
        <pt x="318" y="116" on="0"/>
        <pt x="283" y="194" on="0"/>
        <pt x="243" y="263" on="0"/>
        <pt x="223" y="287" on="1"/>
        <pt x="154" y="0" on="1"/>
        <pt x="31" y="0" on="1"/>
        <pt x="179" y="619" on="1"/>
        <pt x="303" y="619" on="1"/>
        <pt x="241" y="362" on="1"/>
        <pt x="272" y="390" on="0"/>
        <pt x="335" y="457" on="0"/>
        <pt x="393" y="526" on="0"/>
        <pt x="444" y="592" on="0"/>
        <pt x="462" y="619" on="1"/>
        <pt x="603" y="619" on="1"/>
        <pt x="580" y="588" on="0"/>
        <pt x="522" y="514" on="0"/>
        <pt x="454" y="435" on="0"/>
        <pt x="378" y="357" on="0"/>
      </contour>
    </TTGlyph>
    <TTGlyph name="Kappa" xMin="31" yMin="0" xMax="603" yMax="619">
      <component glyphName="K" x="0" y="0" flags="0x204"/>
    </TTGlyph>
    <TTGlyph name="Kcommaaccent" xMin="31" yMin="-170" xMax="603" yMax="619">
      <component glyphName="K" x="0" y="0" flags="0x204"/>
      <component glyphName="commaaccent" x="-17" y="0" flags="0x4"/>
    </TTGlyph>
    <TTGlyph name="L" xMin="45" yMin="0" xMax="453" yMax="619">
      <contour>
        <pt x="429" y="0" on="1"/>
        <pt x="45" y="0" on="1"/>
        <pt x="193" y="619" on="1"/>
        <pt x="316" y="619" on="1"/>
        <pt x="192" y="102" on="1"/>
        <pt x="453" y="102" on="1"/>
      </contour>
    </TTGlyph>
    <TTGlyph name="Lacute" xMin="45" yMin="0" xMax="453" yMax="830">
      <component glyphName="L" x="0" y="0" flags="0x204"/>
      <component glyphName="acute" x="-70" y="139" flags="0x4"/>
    </TTGlyph>
    <TTGlyph name="Lambda" xMin="-5" yMin="0" xMax="476" yMax="619">
      <contour>
        <pt x="442" y="619" on="1"/>
        <pt x="450" y="560" on="0"/>
        <pt x="462" y="422" on="0"/>
        <pt x="471" y="275" on="0"/>
        <pt x="476" y="125" on="0"/>
        <pt x="476" y="55" on="1"/>
        <pt x="476" y="40" on="0"/>
        <pt x="476" y="12" on="0"/>
        <pt x="475" y="0" on="1"/>
        <pt x="349" y="0" on="1"/>
        <pt x="351" y="47" on="0"/>
        <pt x="353" y="167" on="0"/>
        <pt x="353" y="233" on="1"/>
        <pt x="353" y="303" on="0"/>
        <pt x="350" y="437" on="0"/>
        <pt x="346" y="494" on="1"/>
        <pt x="319" y="442" on="0"/>
        <pt x="257" y="310" on="0"/>
        <pt x="196" y="175" on="0"/>
        <pt x="141" y="48" on="0"/>
        <pt x="122" y="0" on="1"/>
        <pt x="-5" y="0" on="1"/>
        <pt x="20" y="60" on="0"/>
        <pt x="89" y="208" on="0"/>
        <pt x="170" y="371" on="0"/>
        <pt x="262" y="539" on="0"/>
        <pt x="311" y="619" on="1"/>
      </contour>
    </TTGlyph>
    <TTGlyph name="Lcaron" xMin="45" yMin="0" xMax="513" yMax="621">
      <component glyphName="L" x="0" y="0" flags="0x204"/>
      <component glyphName="caron.alt" x="63" y="-72" flags="0x4"/>
    </TTGlyph>
    <TTGlyph name="Lcommaaccent" xMin="45" yMin="-170" xMax="453" yMax="619">
      <component glyphName="L" x="0" y="0" flags="0x204"/>
      <component glyphName="commaaccent" x="0" y="0" flags="0x4"/>
    </TTGlyph>
    <TTGlyph name="Ldot" xMin="45" yMin="0" xMax="494" yMax="619">
      <component glyphName="L" x="0" y="0" flags="0x204"/>
      <component glyphName="dotaccent" x="57" y="-278" flags="0x4"/>
    </TTGlyph>
    <TTGlyph name="Lslash" xMin="46" yMin="0" xMax="453" yMax="619">
      <contour>
        <pt x="429" y="0" on="1"/>
        <pt x="80" y="0" on="1"/>
        <pt x="138" y="240" on="1"/>
        <pt x="68" y="207" on="1"/>
        <pt x="46" y="297" on="1"/>
        <pt x="165" y="353" on="1"/>
        <pt x="229" y="619" on="1"/>
        <pt x="352" y="619" on="1"/>
        <pt x="304" y="418" on="1"/>
        <pt x="401" y="464" on="1"/>
        <pt x="423" y="374" on="1"/>
        <pt x="276" y="305" on="1"/>
        <pt x="228" y="102" on="1"/>
        <pt x="453" y="102" on="1"/>
      </contour>
    </TTGlyph>
    <TTGlyph name="M" xMin="6" yMin="0" xMax="576" yMax="619">
      <contour>
        <pt x="291" y="619" on="1"/>
        <pt x="293" y="598" on="0"/>
        <pt x="300" y="529" on="0"/>
        <pt x="306" y="450" on="0"/>
        <pt x="311" y="366" on="0"/>
        <pt x="313" y="330" on="1"/>
        <pt x="463" y="619" on="1"/>
        <pt x="576" y="619" on="1"/>
        <pt x="556" y="468" on="0"/>
        <pt x="495" y="161" on="0"/>
        <pt x="460" y="0" on="1"/>
        <pt x="347" y="0" on="1"/>
        <pt x="471" y="486" on="1"/>
        <pt x="333" y="219" on="1"/>
        <pt x="246" y="219" on="1"/>
        <pt x="244" y="285" on="0"/>
        <pt x="235" y="421" on="0"/>
        <pt x="230" y="481" on="1"/>
        <pt x="119" y="0" on="1"/>
        <pt x="6" y="0" on="1"/>
        <pt x="27" y="76" on="0"/>
        <pt x="72" y="240" on="0"/>
        <pt x="118" y="403" on="0"/>
        <pt x="163" y="555" on="0"/>
        <pt x="185" y="619" on="1"/>
      </contour>
    </TTGlyph>
    <TTGlyph name="Mu" xMin="6" yMin="0" xMax="576" yMax="619">
      <component glyphName="M" x="0" y="0" flags="0x204"/>
    </TTGlyph>
    <TTGlyph name="N" xMin="26" yMin="0" xMax="585" yMax="619">
      <contour>
        <pt x="337" y="0" on="1"/>
        <pt x="320" y="103" on="0"/>
        <pt x="273" y="319" on="0"/>
        <pt x="241" y="444" on="1"/>
        <pt x="135" y="0" on="1"/>
        <pt x="26" y="0" on="1"/>
        <pt x="174" y="619" on="1"/>
        <pt x="279" y="619" on="1"/>
        <pt x="293" y="575" on="0"/>
        <pt x="324" y="471" on="0"/>
        <pt x="351" y="365" on="0"/>
        <pt x="374" y="261" on="0"/>
        <pt x="381" y="218" on="1"/>
        <pt x="476" y="619" on="1"/>
        <pt x="585" y="619" on="1"/>
        <pt x="437" y="0" on="1"/>
      </contour>
    </TTGlyph>
    <TTGlyph name="Nacute" xMin="26" yMin="0" xMax="585" yMax="830">
      <component glyphName="N" x="0" y="0" flags="0x204"/>
      <component glyphName="acute" x="36" y="139" flags="0x4"/>
    </TTGlyph>
    <TTGlyph name="Ncaron" xMin="26" yMin="0" xMax="585" yMax="830">
      <component glyphName="N" x="0" y="0" flags="0x204"/>
      <component glyphName="caron" x="36" y="139" flags="0x4"/>
    </TTGlyph>
    <TTGlyph name="Ncommaaccent" xMin="26" yMin="-170" xMax="585" yMax="619">
      <component glyphName="N" x="0" y="0" flags="0x204"/>
      <component glyphName="commaaccent" x="-17" y="0" flags="0x4"/>
    </TTGlyph>
    <TTGlyph name="Ntilde" xMin="26" yMin="0" xMax="585" yMax="813">
      <component glyphName="N" x="0" y="0" flags="0x204"/>
      <component glyphName="tilde" x="38" y="139" flags="0x4"/>
    </TTGlyph>
    <TTGlyph name="Nu" xMin="26" yMin="0" xMax="585" yMax="619">
      <component glyphName="N" x="0" y="0" flags="0x204"/>
    </TTGlyph>
    <TTGlyph name="O" xMin="67" yMin="-13" xMax="540" yMax="633">
      <contour>
        <pt x="367" y="633" on="1"/>
        <pt x="448" y="633" on="0"/>
        <pt x="540" y="528" on="0"/>
        <pt x="540" y="441" on="1"/>
        <pt x="540" y="402" on="0"/>
        <pt x="528" y="304" on="0"/>
        <pt x="500" y="203" on="0"/>
        <pt x="454" y="107" on="0"/>
        <pt x="388" y="32" on="0"/>
        <pt x="299" y="-13" on="0"/>
        <pt x="241" y="-13" on="1"/>
        <pt x="159" y="-13" on="0"/>
        <pt x="67" y="92" on="0"/>
        <pt x="67" y="179" on="1"/>
        <pt x="67" y="218" on="0"/>
        <pt x="79" y="316" on="0"/>
        <pt x="108" y="417" on="0"/>
        <pt x="153" y="513" on="0"/>
        <pt x="220" y="588" on="0"/>
        <pt x="309" y="633" on="0"/>
      </contour>
      <contour>
        <pt x="255" y="94" on="1"/>
        <pt x="296" y="94" on="0"/>
        <pt x="357" y="164" on="0"/>
        <pt x="397" y="267" on="0"/>
        <pt x="417" y="384" on="0"/>
        <pt x="417" y="432" on="1"/>
        <pt x="417" y="471" on="0"/>
        <pt x="390" y="526" on="0"/>
        <pt x="353" y="526" on="1"/>
        <pt x="312" y="526" on="0"/>
        <pt x="250" y="456" on="0"/>
        <pt x="210" y="353" on="0"/>
        <pt x="190" y="235" on="0"/>
        <pt x="190" y="188" on="1"/>
        <pt x="190" y="149" on="0"/>
        <pt x="217" y="94" on="0"/>
      </contour>
    </TTGlyph>
    <TTGlyph name="OE" xMin="54" yMin="-5" xMax="609" yMax="625">
      <contour>
        <pt x="229" y="99" on="1"/>
        <pt x="244" y="99" on="0"/>
        <pt x="262" y="104" on="1"/>
        <pt x="361" y="516" on="1"/>
        <pt x="346" y="521" on="0"/>
        <pt x="330" y="521" on="1"/>
        <pt x="293" y="521" on="0"/>
        <pt x="234" y="449" on="0"/>
        <pt x="192" y="344" on="0"/>
        <pt x="169" y="227" on="0"/>
        <pt x="169" y="182" on="1"/>
        <pt x="169" y="142" on="0"/>
        <pt x="195" y="99" on="0"/>
      </contour>
      <contour>
        <pt x="262" y="0" on="1"/>
        <pt x="249" y="-3" on="0"/>
        <pt x="223" y="-5" on="0"/>
        <pt x="209" y="-5" on="1"/>
        <pt x="134" y="-5" on="0"/>
        <pt x="54" y="88" on="0"/>
        <pt x="54" y="174" on="1"/>
        <pt x="54" y="215" on="0"/>
        <pt x="67" y="315" on="0"/>
        <pt x="95" y="415" on="0"/>
        <pt x="141" y="509" on="0"/>
        <pt x="206" y="581" on="0"/>
        <pt x="293" y="625" on="0"/>
        <pt x="349" y="625" on="1"/>
        <pt x="364" y="625" on="0"/>
        <pt x="397" y="621" on="0"/>
        <pt x="410" y="619" on="1"/>
        <pt x="609" y="619" on="1"/>
        <pt x="585" y="517" on="1"/>
        <pt x="472" y="517" on="1"/>
        <pt x="438" y="378" on="1"/>
        <pt x="528" y="378" on="1"/>
        <pt x="504" y="276" on="1"/>
        <pt x="414" y="276" on="1"/>
        <pt x="372" y="102" on="1"/>
        <pt x="498" y="102" on="1"/>
        <pt x="474" y="0" on="1"/>
      </contour>
    </TTGlyph>
    <TTGlyph name="Oacute" xMin="67" yMin="-13" xMax="540" yMax="830">
      <component glyphName="O" x="0" y="0" flags="0x204"/>
      <component glyphName="acute" x="11" y="139" flags="0x4"/>
    </TTGlyph>
    <TTGlyph name="Obreve" xMin="67" yMin="-13" xMax="571" yMax="821">
      <component glyphName="O" x="0" y="0" flags="0x204"/>
      <component glyphName="breve" x="45" y="139" flags="0x4"/>
    </TTGlyph>
    <TTGlyph name="Ocircumflex" xMin="67" yMin="-13" xMax="540" yMax="830">
      <component glyphName="O" x="0" y="0" flags="0x204"/>
      <component glyphName="circumflex" x="21" y="139" flags="0x4"/>
    </TTGlyph>
    <TTGlyph name="Odieresis" xMin="67" yMin="-13" xMax="568" yMax="812">
      <component glyphName="O" x="0" y="0" flags="0x204"/>
      <component glyphName="dieresis" x="29" y="139" flags="0x4"/>
    </TTGlyph>
    <TTGlyph name="Ograve" xMin="67" yMin="-13" xMax="540" yMax="830">
      <component glyphName="O" x="0" y="0" flags="0x204"/>
      <component glyphName="grave" x="51" y="139" flags="0x4"/>
    </TTGlyph>
    <TTGlyph name="Ohorn" xMin="67" yMin="-13" xMax="602" yMax="715">
      <contour>
        <pt x="357" y="633" on="1"/>
        <pt x="412" y="633" on="0"/>
        <pt x="451" y="603" on="1"/>
        <pt x="474" y="630" on="0"/>
        <pt x="486" y="689" on="0"/>
        <pt x="489" y="715" on="1"/>
        <pt x="602" y="715" on="1"/>
        <pt x="597" y="661" on="0"/>
        <pt x="552" y="568" on="0"/>
        <pt x="505" y="532" on="1"/>
        <pt x="522" y="492" on="0"/>
        <pt x="522" y="441" on="1"/>
        <pt x="522" y="402" on="0"/>
        <pt x="510" y="304" on="0"/>
        <pt x="483" y="203" on="0"/>
        <pt x="438" y="107" on="0"/>
        <pt x="374" y="32" on="0"/>
        <pt x="287" y="-13" on="0"/>
        <pt x="231" y="-13" on="1"/>
        <pt x="154" y="-13" on="0"/>
        <pt x="67" y="91" on="0"/>
        <pt x="67" y="179" on="1"/>
        <pt x="67" y="218" on="0"/>
        <pt x="79" y="316" on="0"/>
        <pt x="106" y="417" on="0"/>
        <pt x="150" y="513" on="0"/>
        <pt x="214" y="588" on="0"/>
        <pt x="301" y="633" on="0"/>
      </contour>
      <contour>
        <pt x="245" y="94" on="1"/>
        <pt x="284" y="94" on="0"/>
        <pt x="342" y="164" on="0"/>
        <pt x="380" y="267" on="0"/>
        <pt x="399" y="384" on="0"/>
        <pt x="399" y="432" on="1"/>
        <pt x="399" y="471" on="0"/>
        <pt x="376" y="526" on="0"/>
        <pt x="343" y="526" on="1"/>
        <pt x="304" y="526" on="0"/>
        <pt x="246" y="456" on="0"/>
        <pt x="209" y="353" on="0"/>
        <pt x="190" y="235" on="0"/>
        <pt x="190" y="188" on="1"/>
        <pt x="190" y="149" on="0"/>
        <pt x="213" y="94" on="0"/>
      </contour>
    </TTGlyph>
    <TTGlyph name="Ohungarumlaut" xMin="67" yMin="-13" xMax="636" yMax="830">
      <component glyphName="O" x="0" y="0" flags="0x204"/>
      <component glyphName="hungarumlaut" x="63" y="139" flags="0x4"/>
    </TTGlyph>
    <TTGlyph name="Omacron" xMin="67" yMin="-13" xMax="568" yMax="786">
      <component glyphName="O" x="0" y="0" flags="0x204"/>
      <component glyphName="macron" x="45" y="139" flags="0x4"/>
    </TTGlyph>
    <TTGlyph name="Omega" xMin="-2" yMin="0" xMax="551" yMax="633">
      <component glyphName="uni2126" x="0" y="0" flags="0x204"/>
    </TTGlyph>
    <TTGlyph name="Omegatonos" xMin="-20" yMin="0" xMax="551" yMax="658">
      <component glyphName="uni2126" x="0" y="0" flags="0x204"/>
      <component glyphName="tonos.cap" x="-270" y="0" flags="0x4"/>
    </TTGlyph>
    <TTGlyph name="Omicron" xMin="67" yMin="-13" xMax="540" yMax="633">
      <component glyphName="O" x="0" y="0" flags="0x204"/>
    </TTGlyph>
    <TTGlyph name="Omicrontonos" xMin="-5" yMin="-13" xMax="540" yMax="658">
      <component glyphName="O" x="0" y="0" flags="0x204"/>
      <component glyphName="tonos.cap" x="-255" y="0" flags="0x4"/>
    </TTGlyph>
    <TTGlyph name="Oslash" xMin="48" yMin="-40" xMax="555" yMax="659">
      <contour>
        <pt x="367" y="633" on="1"/>
        <pt x="416" y="633" on="0"/>
        <pt x="453" y="613" on="1"/>
        <pt x="483" y="659" on="1"/>
        <pt x="555" y="619" on="1"/>
        <pt x="513" y="555" on="1"/>
        <pt x="526" y="531" on="0"/>
        <pt x="540" y="474" on="0"/>
        <pt x="540" y="441" on="1"/>
        <pt x="540" y="402" on="0"/>
        <pt x="528" y="304" on="0"/>
        <pt x="500" y="203" on="0"/>
        <pt x="454" y="107" on="0"/>
        <pt x="388" y="32" on="0"/>
        <pt x="299" y="-13" on="0"/>
        <pt x="241" y="-13" on="1"/>
        <pt x="215" y="-13" on="0"/>
        <pt x="170" y="-2" on="0"/>
        <pt x="151" y="8" on="1"/>
        <pt x="119" y="-40" on="1"/>
        <pt x="48" y="0" on="1"/>
        <pt x="93" y="68" on="1"/>
        <pt x="67" y="114" on="0"/>
        <pt x="67" y="179" on="1"/>
        <pt x="67" y="218" on="0"/>
        <pt x="79" y="316" on="0"/>
        <pt x="108" y="417" on="0"/>
        <pt x="153" y="513" on="0"/>
        <pt x="220" y="588" on="0"/>
        <pt x="309" y="633" on="0"/>
      </contour>
      <contour>
        <pt x="255" y="88" on="1"/>
        <pt x="294" y="88" on="0"/>
        <pt x="355" y="152" on="0"/>
        <pt x="399" y="250" on="0"/>
        <pt x="422" y="365" on="0"/>
        <pt x="422" y="416" on="1"/>
        <pt x="213" y="103" on="1"/>
        <pt x="220" y="97" on="0"/>
        <pt x="242" y="88" on="0"/>
      </contour>
      <contour>
        <pt x="352" y="530" on="1"/>
        <pt x="314" y="530" on="0"/>
        <pt x="252" y="468" on="0"/>
        <pt x="208" y="374" on="0"/>
        <pt x="185" y="259" on="0"/>
        <pt x="185" y="207" on="1"/>
        <pt x="391" y="520" on="1"/>
        <pt x="384" y="525" on="0"/>
        <pt x="363" y="530" on="0"/>
      </contour>
    </TTGlyph>
    <TTGlyph name="Oslashacute" xMin="48" yMin="-40" xMax="555" yMax="830">
      <component glyphName="Oslash" x="0" y="0" flags="0x204"/>
      <component glyphName="acute" x="-26" y="139" flags="0x4"/>
    </TTGlyph>
    <TTGlyph name="Otilde" xMin="67" yMin="-13" xMax="568" yMax="813">
      <component glyphName="O" x="0" y="0" flags="0x204"/>
      <component glyphName="tilde" x="41" y="139" flags="0x4"/>
    </TTGlyph>
    <TTGlyph name="P" xMin="38" yMin="0" xMax="555" yMax="626">
      <contour>
        <pt x="347" y="626" on="1"/>
        <pt x="402" y="626" on="0"/>
        <pt x="481" y="601" on="0"/>
        <pt x="532" y="555" on="0"/>
        <pt x="555" y="492" on="0"/>
        <pt x="555" y="455" on="1"/>
        <pt x="555" y="392" on="0"/>
        <pt x="508" y="299" on="0"/>
        <pt x="424" y="239" on="0"/>
        <pt x="308" y="210" on="0"/>
        <pt x="238" y="210" on="1"/>
        <pt x="212" y="210" on="1"/>
        <pt x="161" y="0" on="1"/>
        <pt x="38" y="0" on="1"/>
        <pt x="185" y="611" on="1"/>
        <pt x="232" y="619" on="0"/>
        <pt x="315" y="626" on="0"/>
      </contour>
      <contour>
        <pt x="331" y="519" on="1"/>
        <pt x="317" y="519" on="0"/>
        <pt x="299" y="518" on="0"/>
        <pt x="285" y="516" on="1"/>
        <pt x="237" y="316" on="1"/>
        <pt x="267" y="316" on="1"/>
        <pt x="348" y="316" on="0"/>
        <pt x="431" y="380" on="0"/>
        <pt x="431" y="437" on="1"/>
        <pt x="431" y="475" on="0"/>
        <pt x="389" y="519" on="0"/>
      </contour>
    </TTGlyph>
    <TTGlyph name="Parenleft" xMin="136" yMin="-128" xMax="536" yMax="752">
      <component glyphName="parenleft" x="0" y="42" flags="0x204"/>
    </TTGlyph>
    <TTGlyph name="Parenright" xMin="43" yMin="-128" xMax="443" yMax="752">
      <component glyphName="parenright" x="0" y="42" flags="0x204"/>
    </TTGlyph>
    <TTGlyph name="Phi" xMin="71" yMin="0" xMax="547" yMax="659">
      <component glyphName="afii10038" x="0" y="0" flags="0x204"/>
    </TTGlyph>
    <TTGlyph name="Pi" xMin="27" yMin="0" xMax="585" yMax="619">
      <component glyphName="afii10033" x="0" y="0" flags="0x204"/>
    </TTGlyph>
    <TTGlyph name="Psi" xMin="89" yMin="0" xMax="600" yMax="619">
      <contour>
        <pt x="335" y="235" on="1"/>
        <pt x="352" y="236" on="0"/>
        <pt x="382" y="249" on="0"/>
        <pt x="409" y="284" on="0"/>
        <pt x="434" y="345" on="0"/>
        <pt x="446" y="393" on="1"/>
        <pt x="500" y="619" on="1"/>
        <pt x="600" y="619" on="1"/>
        <pt x="539" y="363" on="1"/>
        <pt x="524" y="300" on="0"/>
        <pt x="483" y="218" on="0"/>
        <pt x="427" y="169" on="0"/>
        <pt x="357" y="147" on="0"/>
        <pt x="313" y="145" on="1"/>
        <pt x="278" y="0" on="1"/>
        <pt x="179" y="0" on="1"/>
        <pt x="215" y="147" on="1"/>
        <pt x="179" y="152" on="0"/>
        <pt x="130" y="179" on="0"/>
        <pt x="101" y="218" on="0"/>
        <pt x="89" y="267" on="0"/>
        <pt x="89" y="294" on="1"/>
        <pt x="89" y="320" on="0"/>
        <pt x="97" y="378" on="0"/>
        <pt x="103" y="404" on="1"/>
        <pt x="154" y="619" on="1"/>
        <pt x="255" y="619" on="1"/>
        <pt x="200" y="393" on="1"/>
        <pt x="196" y="376" on="0"/>
        <pt x="187" y="329" on="0"/>
        <pt x="187" y="305" on="1"/>
        <pt x="187" y="279" on="0"/>
        <pt x="208" y="242" on="0"/>
        <pt x="237" y="237" on="1"/>
        <pt x="295" y="475" on="1"/>
        <pt x="393" y="475" on="1"/>
      </contour>
    </TTGlyph>
    <TTGlyph name="Q" xMin="68" yMin="-170" xMax="539" yMax="633">
      <contour>
        <pt x="367" y="633" on="1"/>
        <pt x="448" y="633" on="0"/>
        <pt x="539" y="528" on="0"/>
        <pt x="539" y="441" on="1"/>
        <pt x="539" y="404" on="0"/>
        <pt x="528" y="312" on="0"/>
        <pt x="504" y="216" on="0"/>
        <pt x="463" y="123" on="0"/>
        <pt x="405" y="47" on="0"/>
        <pt x="326" y="-4" on="0"/>
        <pt x="275" y="-11" on="1"/>
        <pt x="275" y="-18" on="1"/>
        <pt x="275" y="-47" on="0"/>
        <pt x="356" y="-81" on="0"/>
        <pt x="416" y="-88" on="1"/>
        <pt x="378" y="-170" on="1"/>
        <pt x="278" y="-156" on="0"/>
        <pt x="177" y="-87" on="0"/>
        <pt x="177" y="-21" on="1"/>
        <pt x="177" y="-17" on="0"/>
        <pt x="177" y="-9" on="0"/>
        <pt x="178" y="-4" on="1"/>
        <pt x="125" y="15" on="0"/>
        <pt x="68" y="110" on="0"/>
        <pt x="68" y="179" on="1"/>
        <pt x="68" y="218" on="0"/>
        <pt x="80" y="316" on="0"/>
        <pt x="108" y="417" on="0"/>
        <pt x="154" y="513" on="0"/>
        <pt x="220" y="588" on="0"/>
        <pt x="309" y="633" on="0"/>
      </contour>
      <contour>
        <pt x="255" y="94" on="1"/>
        <pt x="296" y="94" on="0"/>
        <pt x="357" y="164" on="0"/>
        <pt x="397" y="267" on="0"/>
        <pt x="417" y="384" on="0"/>
        <pt x="417" y="432" on="1"/>
        <pt x="417" y="471" on="0"/>
        <pt x="390" y="526" on="0"/>
        <pt x="353" y="526" on="1"/>
        <pt x="312" y="526" on="0"/>
        <pt x="250" y="456" on="0"/>
        <pt x="210" y="353" on="0"/>
        <pt x="190" y="235" on="0"/>
        <pt x="190" y="188" on="1"/>
        <pt x="190" y="149" on="0"/>
        <pt x="217" y="94" on="0"/>
      </contour>
    </TTGlyph>
    <TTGlyph name="Questiondown" xMin="51" yMin="-8" xMax="431" yMax="632">
      <component glyphName="questiondown" x="0" y="162" flags="0x204"/>
    </TTGlyph>
    <TTGlyph name="R" xMin="34" yMin="0" xMax="533" yMax="626">
      <contour>
        <pt x="381" y="253" on="1"/>
        <pt x="396" y="228" on="0"/>
        <pt x="423" y="166" on="0"/>
        <pt x="447" y="99" on="0"/>
        <pt x="466" y="31" on="0"/>
        <pt x="472" y="0" on="1"/>
        <pt x="352" y="0" on="1"/>
        <pt x="341" y="60" on="0"/>
        <pt x="301" y="172" on="0"/>
        <pt x="274" y="228" on="1"/>
        <pt x="210" y="228" on="1"/>
        <pt x="155" y="0" on="1"/>
        <pt x="34" y="0" on="1"/>
        <pt x="179" y="609" on="1"/>
        <pt x="198" y="613" on="0"/>
        <pt x="241" y="620" on="0"/>
        <pt x="283" y="624" on="0"/>
        <pt x="321" y="626" on="0"/>
        <pt x="336" y="626" on="1"/>
        <pt x="435" y="626" on="0"/>
        <pt x="533" y="539" on="0"/>
        <pt x="533" y="465" on="1"/>
        <pt x="533" y="430" on="0"/>
        <pt x="514" y="363" on="0"/>
        <pt x="475" y="306" on="0"/>
        <pt x="418" y="263" on="0"/>
      </contour>
      <contour>
        <pt x="280" y="330" on="1"/>
        <pt x="306" y="330" on="0"/>
        <pt x="353" y="344" on="0"/>
        <pt x="389" y="374" on="0"/>
        <pt x="410" y="420" on="0"/>
        <pt x="410" y="451" on="1"/>
        <pt x="410" y="486" on="0"/>
        <pt x="368" y="524" on="0"/>
        <pt x="317" y="524" on="1"/>
        <pt x="306" y="524" on="0"/>
        <pt x="288" y="522" on="0"/>
        <pt x="280" y="520" on="1"/>
        <pt x="234" y="330" on="1"/>
      </contour>
    </TTGlyph>
    <TTGlyph name="Racute" xMin="34" yMin="0" xMax="533" yMax="830">
      <component glyphName="R" x="0" y="0" flags="0x204"/>
      <component glyphName="acute" x="18" y="139" flags="0x4"/>
    </TTGlyph>
    <TTGlyph name="Rcaron" xMin="34" yMin="0" xMax="533" yMax="830">
      <component glyphName="R" x="0" y="0" flags="0x204"/>
      <component glyphName="caron" x="0" y="139" flags="0x4"/>
    </TTGlyph>
    <TTGlyph name="Rcommaaccent" xMin="34" yMin="-170" xMax="533" yMax="626">
      <component glyphName="R" x="0" y="0" flags="0x204"/>
      <component glyphName="commaaccent" x="-17" y="0" flags="0x4"/>
    </TTGlyph>
    <TTGlyph name="Rho" xMin="38" yMin="0" xMax="555" yMax="626">
      <component glyphName="P" x="0" y="0" flags="0x204"/>
    </TTGlyph>
    <TTGlyph name="S" xMin="31" yMin="-13" xMax="545" yMax="633">
      <contour>
        <pt x="236" y="90" on="1"/>
        <pt x="259" y="90" on="0"/>
        <pt x="301" y="99" on="0"/>
        <pt x="332" y="120" on="0"/>
        <pt x="351" y="152" on="0"/>
        <pt x="351" y="176" on="1"/>
        <pt x="351" y="194" on="0"/>
        <pt x="336" y="223" on="0"/>
        <pt x="310" y="247" on="0"/>
        <pt x="275" y="267" on="0"/>
        <pt x="255" y="277" on="1"/>
        <pt x="230" y="290" on="0"/>
        <pt x="187" y="316" on="0"/>
        <pt x="156" y="352" on="0"/>
        <pt x="138" y="402" on="0"/>
        <pt x="138" y="438" on="1"/>
        <pt x="138" y="526" on="0"/>
        <pt x="257" y="633" on="0"/>
        <pt x="367" y="633" on="1"/>
        <pt x="403" y="633" on="0"/>
        <pt x="460" y="623" on="0"/>
        <pt x="504" y="609" on="0"/>
        <pt x="535" y="593" on="0"/>
        <pt x="545" y="587" on="1"/>
        <pt x="493" y="492" on="1"/>
        <pt x="470" y="508" on="0"/>
        <pt x="400" y="530" on="0"/>
        <pt x="351" y="530" on="1"/>
        <pt x="313" y="530" on="0"/>
        <pt x="260" y="496" on="0"/>
        <pt x="260" y="454" on="1"/>
        <pt x="260" y="420" on="0"/>
        <pt x="305" y="385" on="0"/>
        <pt x="337" y="371" on="1"/>
        <pt x="367" y="357" on="0"/>
        <pt x="417" y="327" on="0"/>
        <pt x="453" y="287" on="0"/>
        <pt x="474" y="233" on="0"/>
        <pt x="474" y="196" on="1"/>
        <pt x="474" y="94" on="0"/>
        <pt x="343" y="-13" on="0"/>
        <pt x="223" y="-13" on="1"/>
        <pt x="183" y="-13" on="0"/>
        <pt x="120" y="-1" on="0"/>
        <pt x="74" y="15" on="0"/>
        <pt x="41" y="34" on="0"/>
        <pt x="31" y="41" on="1"/>
        <pt x="84" y="135" on="1"/>
        <pt x="94" y="129" on="0"/>
        <pt x="125" y="113" on="0"/>
        <pt x="164" y="99" on="0"/>
        <pt x="210" y="90" on="0"/>
      </contour>
    </TTGlyph>
    <TTGlyph name="SF010000" xMin="210" yMin="-170" xMax="500" yMax="370">
      <contour>
        <pt x="210" y="370" on="1"/>
        <pt x="500" y="370" on="1"/>
        <pt x="500" y="290" on="1"/>
        <pt x="290" y="290" on="1"/>
        <pt x="290" y="-170" on="1"/>
        <pt x="210" y="-170" on="1"/>
      </contour>
    </TTGlyph>
    <TTGlyph name="SF020000" xMin="210" yMin="290" xMax="500" yMax="830">
      <contour>
        <pt x="210" y="830" on="1"/>
        <pt x="290" y="830" on="1"/>
        <pt x="290" y="370" on="1"/>
        <pt x="500" y="370" on="1"/>
        <pt x="500" y="290" on="1"/>
        <pt x="210" y="290" on="1"/>
      </contour>
    </TTGlyph>
    <TTGlyph name="SF030000" xMin="0" yMin="-170" xMax="290" yMax="370">
      <contour>
        <pt x="0" y="370" on="1"/>
        <pt x="290" y="370" on="1"/>
        <pt x="290" y="-170" on="1"/>
        <pt x="210" y="-170" on="1"/>
        <pt x="210" y="290" on="1"/>
        <pt x="0" y="290" on="1"/>
      </contour>
    </TTGlyph>
    <TTGlyph name="SF040000" xMin="0" yMin="290" xMax="290" yMax="830">
      <contour>
        <pt x="0" y="370" on="1"/>
        <pt x="210" y="370" on="1"/>
        <pt x="210" y="830" on="1"/>
        <pt x="290" y="830" on="1"/>
        <pt x="290" y="290" on="1"/>
        <pt x="0" y="290" on="1"/>
      </contour>
    </TTGlyph>
    <TTGlyph name="SF050000" xMin="0" yMin="-170" xMax="500" yMax="830">
      <contour>
        <pt x="210" y="290" on="1"/>
        <pt x="0" y="290" on="1"/>
        <pt x="0" y="370" on="1"/>
        <pt x="210" y="370" on="1"/>
        <pt x="210" y="830" on="1"/>
        <pt x="290" y="830" on="1"/>
        <pt x="290" y="370" on="1"/>
        <pt x="500" y="370" on="1"/>
        <pt x="500" y="290" on="1"/>
        <pt x="290" y="290" on="1"/>
        <pt x="290" y="-170" on="1"/>
        <pt x="210" y="-170" on="1"/>
      </contour>
    </TTGlyph>
    <TTGlyph name="SF060000" xMin="0" yMin="-170" xMax="500" yMax="370">
      <contour>
        <pt x="500" y="370" on="1"/>
        <pt x="500" y="290" on="1"/>
        <pt x="290" y="290" on="1"/>
        <pt x="290" y="-170" on="1"/>
        <pt x="210" y="-170" on="1"/>
        <pt x="210" y="290" on="1"/>
        <pt x="0" y="290" on="1"/>
        <pt x="0" y="370" on="1"/>
      </contour>
    </TTGlyph>
    <TTGlyph name="SF070000" xMin="0" yMin="290" xMax="500" yMax="830">
      <contour>
        <pt x="0" y="290" on="1"/>
        <pt x="0" y="370" on="1"/>
        <pt x="210" y="370" on="1"/>
        <pt x="210" y="830" on="1"/>
        <pt x="290" y="830" on="1"/>
        <pt x="290" y="370" on="1"/>
        <pt x="500" y="370" on="1"/>
        <pt x="500" y="290" on="1"/>
      </contour>
    </TTGlyph>
    <TTGlyph name="SF080000" xMin="210" yMin="-170" xMax="500" yMax="830">
      <contour>
        <pt x="210" y="830" on="1"/>
        <pt x="290" y="830" on="1"/>
        <pt x="290" y="370" on="1"/>
        <pt x="500" y="370" on="1"/>
        <pt x="500" y="290" on="1"/>
        <pt x="290" y="290" on="1"/>
        <pt x="290" y="-170" on="1"/>
        <pt x="210" y="-170" on="1"/>
      </contour>
    </TTGlyph>
    <TTGlyph name="SF090000" xMin="0" yMin="-170" xMax="290" yMax="830">
      <contour>
        <pt x="290" y="-170" on="1"/>
        <pt x="210" y="-170" on="1"/>
        <pt x="210" y="290" on="1"/>
        <pt x="0" y="290" on="1"/>
        <pt x="0" y="370" on="1"/>
        <pt x="210" y="370" on="1"/>
        <pt x="210" y="830" on="1"/>
        <pt x="290" y="830" on="1"/>
      </contour>
    </TTGlyph>
    <TTGlyph name="SF100000" xMin="0" yMin="290" xMax="500" yMax="370">
      <contour>
        <pt x="0" y="290" on="1"/>
        <pt x="0" y="370" on="1"/>
        <pt x="500" y="370" on="1"/>
        <pt x="500" y="290" on="1"/>
      </contour>
    </TTGlyph>
    <TTGlyph name="SF110000" xMin="210" yMin="-170" xMax="290" yMax="830">
      <contour>
        <pt x="290" y="-170" on="1"/>
        <pt x="210" y="-170" on="1"/>
        <pt x="210" y="830" on="1"/>
        <pt x="290" y="830" on="1"/>
      </contour>
    </TTGlyph>
    <TTGlyph name="SF190000" xMin="0" yMin="-170" xMax="290" yMax="830">
      <contour>
        <pt x="0" y="450" on="1"/>
        <pt x="210" y="450" on="1"/>
        <pt x="210" y="830" on="1"/>
        <pt x="290" y="830" on="1"/>
        <pt x="290" y="370" on="1"/>
        <pt x="0" y="370" on="1"/>
      </contour>
      <contour>
        <pt x="0" y="290" on="1"/>
        <pt x="290" y="290" on="1"/>
        <pt x="290" y="-170" on="1"/>
        <pt x="210" y="-170" on="1"/>
        <pt x="210" y="210" on="1"/>
        <pt x="0" y="210" on="1"/>
      </contour>
    </TTGlyph>
    <TTGlyph name="SF200000" xMin="0" yMin="-170" xMax="370" yMax="830">
      <contour>
        <pt x="210" y="-170" on="1"/>
        <pt x="130" y="-170" on="1"/>
        <pt x="130" y="290" on="1"/>
        <pt x="0" y="290" on="1"/>
        <pt x="0" y="370" on="1"/>
        <pt x="130" y="370" on="1"/>
        <pt x="130" y="830" on="1"/>
        <pt x="210" y="830" on="1"/>
      </contour>
      <contour>
        <pt x="370" y="-170" on="1"/>
        <pt x="290" y="-170" on="1"/>
        <pt x="290" y="830" on="1"/>
        <pt x="370" y="830" on="1"/>
      </contour>
    </TTGlyph>
    <TTGlyph name="SF210000" xMin="0" yMin="-170" xMax="370" yMax="370">
      <contour>
        <pt x="0" y="370" on="1"/>
        <pt x="210" y="370" on="1"/>
        <pt x="210" y="-170" on="1"/>
        <pt x="130" y="-170" on="1"/>
        <pt x="130" y="290" on="1"/>
        <pt x="0" y="290" on="1"/>
      </contour>
      <contour>
        <pt x="290" y="370" on="1"/>
        <pt x="370" y="370" on="1"/>
        <pt x="370" y="-170" on="1"/>
        <pt x="290" y="-170" on="1"/>
      </contour>
    </TTGlyph>
    <TTGlyph name="SF220000" xMin="0" yMin="-170" xMax="290" yMax="450">
      <contour>
        <pt x="0" y="290" on="1"/>
        <pt x="290" y="290" on="1"/>
        <pt x="290" y="-170" on="1"/>
        <pt x="210" y="-170" on="1"/>
        <pt x="210" y="210" on="1"/>
        <pt x="0" y="210" on="1"/>
      </contour>
      <contour>
        <pt x="0" y="450" on="1"/>
        <pt x="290" y="450" on="1"/>
        <pt x="290" y="370" on="1"/>
        <pt x="0" y="370" on="1"/>
      </contour>
    </TTGlyph>
    <TTGlyph name="SF230000" xMin="0" yMin="-170" xMax="370" yMax="830">
      <contour>
        <pt x="290" y="830" on="1"/>
        <pt x="370" y="830" on="1"/>
        <pt x="370" y="-170" on="1"/>
        <pt x="290" y="-170" on="1"/>
      </contour>
      <contour>
        <pt x="0" y="450" on="1"/>
        <pt x="130" y="450" on="1"/>
        <pt x="130" y="830" on="1"/>
        <pt x="210" y="830" on="1"/>
        <pt x="210" y="370" on="1"/>
        <pt x="0" y="370" on="1"/>
      </contour>
      <contour>
        <pt x="0" y="290" on="1"/>
        <pt x="210" y="290" on="1"/>
        <pt x="210" y="-170" on="1"/>
        <pt x="130" y="-170" on="1"/>
        <pt x="130" y="210" on="1"/>
        <pt x="0" y="210" on="1"/>
      </contour>
    </TTGlyph>
    <TTGlyph name="SF240000" xMin="130" yMin="-170" xMax="370" yMax="830">
      <contour>
        <pt x="210" y="-170" on="1"/>
        <pt x="130" y="-170" on="1"/>
        <pt x="130" y="830" on="1"/>
        <pt x="210" y="830" on="1"/>
      </contour>
      <contour>
        <pt x="290" y="830" on="1"/>
        <pt x="370" y="830" on="1"/>
        <pt x="370" y="-170" on="1"/>
        <pt x="290" y="-170" on="1"/>
      </contour>
    </TTGlyph>
    <TTGlyph name="SF250000" xMin="0" yMin="-170" xMax="370" yMax="450">
      <contour>
        <pt x="0" y="290" on="1"/>
        <pt x="210" y="290" on="1"/>
        <pt x="210" y="-170" on="1"/>
        <pt x="130" y="-170" on="1"/>
        <pt x="130" y="210" on="1"/>
        <pt x="0" y="210" on="1"/>
      </contour>
      <contour>
        <pt x="0" y="450" on="1"/>
        <pt x="370" y="450" on="1"/>
        <pt x="370" y="-170" on="1"/>
        <pt x="290" y="-170" on="1"/>
        <pt x="290" y="370" on="1"/>
        <pt x="0" y="370" on="1"/>
      </contour>
    </TTGlyph>
    <TTGlyph name="SF260000" xMin="0" yMin="210" xMax="370" yMax="830">
      <contour>
        <pt x="0" y="450" on="1"/>
        <pt x="130" y="450" on="1"/>
        <pt x="130" y="830" on="1"/>
        <pt x="210" y="830" on="1"/>
        <pt x="210" y="370" on="1"/>
        <pt x="0" y="370" on="1"/>
      </contour>
      <contour>
        <pt x="0" y="290" on="1"/>
        <pt x="290" y="290" on="1"/>
        <pt x="290" y="830" on="1"/>
        <pt x="370" y="830" on="1"/>
        <pt x="370" y="210" on="1"/>
        <pt x="0" y="210" on="1"/>
      </contour>
    </TTGlyph>
    <TTGlyph name="SF270000" xMin="0" yMin="290" xMax="370" yMax="830">
      <contour>
        <pt x="0" y="370" on="1"/>
        <pt x="130" y="370" on="1"/>
        <pt x="130" y="830" on="1"/>
        <pt x="210" y="830" on="1"/>
        <pt x="210" y="290" on="1"/>
        <pt x="0" y="290" on="1"/>
      </contour>
      <contour>
        <pt x="290" y="830" on="1"/>
        <pt x="370" y="830" on="1"/>
        <pt x="370" y="290" on="1"/>
        <pt x="290" y="290" on="1"/>
      </contour>
    </TTGlyph>
    <TTGlyph name="SF280000" xMin="0" yMin="210" xMax="290" yMax="830">
      <contour>
        <pt x="0" y="450" on="1"/>
        <pt x="210" y="450" on="1"/>
        <pt x="210" y="830" on="1"/>
        <pt x="290" y="830" on="1"/>
        <pt x="290" y="370" on="1"/>
        <pt x="0" y="370" on="1"/>
      </contour>
      <contour>
        <pt x="0" y="290" on="1"/>
        <pt x="290" y="290" on="1"/>
        <pt x="290" y="210" on="1"/>
        <pt x="0" y="210" on="1"/>
      </contour>
    </TTGlyph>
    <TTGlyph name="SF360000" xMin="210" yMin="-170" xMax="500" yMax="830">
      <contour>
        <pt x="500" y="370" on="1"/>
        <pt x="210" y="370" on="1"/>
        <pt x="210" y="830" on="1"/>
        <pt x="290" y="830" on="1"/>
        <pt x="290" y="450" on="1"/>
        <pt x="500" y="450" on="1"/>
      </contour>
      <contour>
        <pt x="500" y="210" on="1"/>
        <pt x="290" y="210" on="1"/>
        <pt x="290" y="-170" on="1"/>
        <pt x="210" y="-170" on="1"/>
        <pt x="210" y="290" on="1"/>
        <pt x="500" y="290" on="1"/>
      </contour>
    </TTGlyph>
    <TTGlyph name="SF370000" xMin="130" yMin="-170" xMax="500" yMax="830">
      <contour>
        <pt x="290" y="830" on="1"/>
        <pt x="370" y="830" on="1"/>
        <pt x="370" y="370" on="1"/>
        <pt x="500" y="370" on="1"/>
        <pt x="500" y="290" on="1"/>
        <pt x="370" y="290" on="1"/>
        <pt x="370" y="-170" on="1"/>
        <pt x="290" y="-170" on="1"/>
      </contour>
      <contour>
        <pt x="130" y="830" on="1"/>
        <pt x="210" y="830" on="1"/>
        <pt x="210" y="-170" on="1"/>
        <pt x="130" y="-170" on="1"/>
      </contour>
    </TTGlyph>
    <TTGlyph name="SF380000" xMin="130" yMin="210" xMax="500" yMax="830">
      <contour>
        <pt x="500" y="370" on="1"/>
        <pt x="290" y="370" on="1"/>
        <pt x="290" y="830" on="1"/>
        <pt x="370" y="830" on="1"/>
        <pt x="370" y="450" on="1"/>
        <pt x="500" y="450" on="1"/>
      </contour>
      <contour>
        <pt x="500" y="210" on="1"/>
        <pt x="130" y="210" on="1"/>
        <pt x="130" y="830" on="1"/>
        <pt x="210" y="830" on="1"/>
        <pt x="210" y="290" on="1"/>
        <pt x="500" y="290" on="1"/>
      </contour>
    </TTGlyph>
    <TTGlyph name="SF390000" xMin="130" yMin="-170" xMax="500" yMax="450">
      <contour>
        <pt x="500" y="210" on="1"/>
        <pt x="370" y="210" on="1"/>
        <pt x="370" y="-170" on="1"/>
        <pt x="290" y="-170" on="1"/>
        <pt x="290" y="290" on="1"/>
        <pt x="500" y="290" on="1"/>
      </contour>
      <contour>
        <pt x="500" y="370" on="1"/>
        <pt x="210" y="370" on="1"/>
        <pt x="210" y="-170" on="1"/>
        <pt x="130" y="-170" on="1"/>
        <pt x="130" y="450" on="1"/>
        <pt x="500" y="450" on="1"/>
      </contour>
    </TTGlyph>
    <TTGlyph name="SF400000" xMin="0" yMin="210" xMax="500" yMax="830">
      <contour>
        <pt x="500" y="290" on="1"/>
        <pt x="500" y="210" on="1"/>
        <pt x="0" y="210" on="1"/>
        <pt x="0" y="290" on="1"/>
      </contour>
      <contour>
        <pt x="0" y="450" on="1"/>
        <pt x="130" y="450" on="1"/>
        <pt x="130" y="830" on="1"/>
        <pt x="210" y="830" on="1"/>
        <pt x="210" y="370" on="1"/>
        <pt x="0" y="370" on="1"/>
      </contour>
      <contour>
        <pt x="500" y="370" on="1"/>
        <pt x="290" y="370" on="1"/>
        <pt x="290" y="830" on="1"/>
        <pt x="370" y="830" on="1"/>
        <pt x="370" y="450" on="1"/>
        <pt x="500" y="450" on="1"/>
      </contour>
    </TTGlyph>
    <TTGlyph name="SF410000" xMin="0" yMin="-170" xMax="500" yMax="450">
      <contour>
        <pt x="0" y="370" on="1"/>
        <pt x="0" y="450" on="1"/>
        <pt x="500" y="450" on="1"/>
        <pt x="500" y="370" on="1"/>
      </contour>
      <contour>
        <pt x="500" y="210" on="1"/>
        <pt x="370" y="210" on="1"/>
        <pt x="370" y="-170" on="1"/>
        <pt x="290" y="-170" on="1"/>
        <pt x="290" y="290" on="1"/>
        <pt x="500" y="290" on="1"/>
      </contour>
      <contour>
        <pt x="0" y="290" on="1"/>
        <pt x="210" y="290" on="1"/>
        <pt x="210" y="-170" on="1"/>
        <pt x="130" y="-170" on="1"/>
        <pt x="130" y="210" on="1"/>
        <pt x="0" y="210" on="1"/>
      </contour>
    </TTGlyph>
    <TTGlyph name="SF420000" xMin="130" yMin="-170" xMax="500" yMax="830">
      <contour>
        <pt x="210" y="-170" on="1"/>
        <pt x="130" y="-170" on="1"/>
        <pt x="130" y="830" on="1"/>
        <pt x="210" y="830" on="1"/>
      </contour>
      <contour>
        <pt x="500" y="370" on="1"/>
        <pt x="290" y="370" on="1"/>
        <pt x="290" y="830" on="1"/>
        <pt x="370" y="830" on="1"/>
        <pt x="370" y="450" on="1"/>
        <pt x="500" y="450" on="1"/>
      </contour>
      <contour>
        <pt x="500" y="210" on="1"/>
        <pt x="370" y="210" on="1"/>
        <pt x="370" y="-170" on="1"/>
        <pt x="290" y="-170" on="1"/>
        <pt x="290" y="290" on="1"/>
        <pt x="500" y="290" on="1"/>
      </contour>
    </TTGlyph>
    <TTGlyph name="SF430000" xMin="0" yMin="210" xMax="500" yMax="450">
      <contour>
        <pt x="0" y="210" on="1"/>
        <pt x="0" y="290" on="1"/>
        <pt x="500" y="290" on="1"/>
        <pt x="500" y="210" on="1"/>
      </contour>
      <contour>
        <pt x="0" y="370" on="1"/>
        <pt x="0" y="450" on="1"/>
        <pt x="500" y="450" on="1"/>
        <pt x="500" y="370" on="1"/>
      </contour>
    </TTGlyph>
    <TTGlyph name="SF440000" xMin="0" yMin="-170" xMax="500" yMax="830">
      <contour>
        <pt x="0" y="450" on="1"/>
        <pt x="130" y="450" on="1"/>
        <pt x="130" y="830" on="1"/>
        <pt x="210" y="830" on="1"/>
        <pt x="210" y="370" on="1"/>
        <pt x="0" y="370" on="1"/>
      </contour>
      <contour>
        <pt x="500" y="210" on="1"/>
        <pt x="370" y="210" on="1"/>
        <pt x="370" y="-170" on="1"/>
        <pt x="290" y="-170" on="1"/>
        <pt x="290" y="290" on="1"/>
        <pt x="500" y="290" on="1"/>
      </contour>
      <contour>
        <pt x="500" y="370" on="1"/>
        <pt x="290" y="370" on="1"/>
        <pt x="290" y="830" on="1"/>
        <pt x="370" y="830" on="1"/>
        <pt x="370" y="450" on="1"/>
        <pt x="500" y="450" on="1"/>
      </contour>
      <contour>
        <pt x="0" y="290" on="1"/>
        <pt x="210" y="290" on="1"/>
        <pt x="210" y="-170" on="1"/>
        <pt x="130" y="-170" on="1"/>
        <pt x="130" y="210" on="1"/>
        <pt x="0" y="210" on="1"/>
      </contour>
    </TTGlyph>
    <TTGlyph name="SF450000" xMin="0" yMin="210" xMax="500" yMax="830">
      <contour>
        <pt x="0" y="370" on="1"/>
        <pt x="0" y="450" on="1"/>
        <pt x="210" y="450" on="1"/>
        <pt x="210" y="830" on="1"/>
        <pt x="290" y="830" on="1"/>
        <pt x="290" y="450" on="1"/>
        <pt x="500" y="450" on="1"/>
        <pt x="500" y="370" on="1"/>
      </contour>
      <contour>
        <pt x="500" y="290" on="1"/>
        <pt x="500" y="210" on="1"/>
        <pt x="0" y="210" on="1"/>
        <pt x="0" y="290" on="1"/>
      </contour>
    </TTGlyph>
    <TTGlyph name="SF460000" xMin="0" yMin="290" xMax="500" yMax="830">
      <contour>
        <pt x="500" y="370" on="1"/>
        <pt x="500" y="290" on="1"/>
        <pt x="0" y="290" on="1"/>
        <pt x="0" y="370" on="1"/>
        <pt x="130" y="370" on="1"/>
        <pt x="130" y="830" on="1"/>
        <pt x="210" y="830" on="1"/>
        <pt x="210" y="370" on="1"/>
        <pt x="290" y="370" on="1"/>
        <pt x="290" y="830" on="1"/>
        <pt x="370" y="830" on="1"/>
        <pt x="370" y="370" on="1"/>
      </contour>
    </TTGlyph>
    <TTGlyph name="SF470000" xMin="0" yMin="-170" xMax="500" yMax="450">
      <contour>
        <pt x="500" y="290" on="1"/>
        <pt x="500" y="210" on="1"/>
        <pt x="290" y="210" on="1"/>
        <pt x="290" y="-170" on="1"/>
        <pt x="210" y="-170" on="1"/>
        <pt x="210" y="210" on="1"/>
        <pt x="0" y="210" on="1"/>
        <pt x="0" y="290" on="1"/>
      </contour>
      <contour>
        <pt x="0" y="370" on="1"/>
        <pt x="0" y="450" on="1"/>
        <pt x="500" y="450" on="1"/>
        <pt x="500" y="370" on="1"/>
      </contour>
    </TTGlyph>
    <TTGlyph name="SF480000" xMin="0" yMin="-170" xMax="500" yMax="370">
      <contour>
        <pt x="0" y="290" on="1"/>
        <pt x="0" y="370" on="1"/>
        <pt x="500" y="370" on="1"/>
        <pt x="500" y="290" on="1"/>
        <pt x="370" y="290" on="1"/>
        <pt x="370" y="-170" on="1"/>
        <pt x="290" y="-170" on="1"/>
        <pt x="290" y="290" on="1"/>
        <pt x="210" y="290" on="1"/>
        <pt x="210" y="-170" on="1"/>
        <pt x="130" y="-170" on="1"/>
        <pt x="130" y="290" on="1"/>
      </contour>
    </TTGlyph>
    <TTGlyph name="SF490000" xMin="130" yMin="290" xMax="500" yMax="830">
      <contour>
        <pt x="500" y="290" on="1"/>
        <pt x="290" y="290" on="1"/>
        <pt x="290" y="830" on="1"/>
        <pt x="370" y="830" on="1"/>
        <pt x="370" y="370" on="1"/>
        <pt x="500" y="370" on="1"/>
      </contour>
      <contour>
        <pt x="210" y="290" on="1"/>
        <pt x="130" y="290" on="1"/>
        <pt x="130" y="830" on="1"/>
        <pt x="210" y="830" on="1"/>
      </contour>
    </TTGlyph>
    <TTGlyph name="SF500000" xMin="210" yMin="210" xMax="500" yMax="830">
      <contour>
        <pt x="500" y="370" on="1"/>
        <pt x="210" y="370" on="1"/>
        <pt x="210" y="830" on="1"/>
        <pt x="290" y="830" on="1"/>
        <pt x="290" y="450" on="1"/>
        <pt x="500" y="450" on="1"/>
      </contour>
      <contour>
        <pt x="210" y="290" on="1"/>
        <pt x="500" y="290" on="1"/>
        <pt x="500" y="210" on="1"/>
        <pt x="210" y="210" on="1"/>
      </contour>
    </TTGlyph>
    <TTGlyph name="SF510000" xMin="210" yMin="-170" xMax="500" yMax="450">
      <contour>
        <pt x="500" y="210" on="1"/>
        <pt x="290" y="210" on="1"/>
        <pt x="290" y="-170" on="1"/>
        <pt x="210" y="-170" on="1"/>
        <pt x="210" y="290" on="1"/>
        <pt x="500" y="290" on="1"/>
      </contour>
      <contour>
        <pt x="210" y="450" on="1"/>
        <pt x="500" y="450" on="1"/>
        <pt x="500" y="370" on="1"/>
        <pt x="210" y="370" on="1"/>
      </contour>
    </TTGlyph>
    <TTGlyph name="SF520000" xMin="130" yMin="-170" xMax="500" yMax="370">
      <contour>
        <pt x="500" y="290" on="1"/>
        <pt x="370" y="290" on="1"/>
        <pt x="370" y="-170" on="1"/>
        <pt x="290" y="-170" on="1"/>
        <pt x="290" y="370" on="1"/>
        <pt x="500" y="370" on="1"/>
      </contour>
      <contour>
        <pt x="210" y="-170" on="1"/>
        <pt x="130" y="-170" on="1"/>
        <pt x="130" y="370" on="1"/>
        <pt x="210" y="370" on="1"/>
      </contour>
    </TTGlyph>
    <TTGlyph name="SF530000" xMin="0" yMin="-170" xMax="500" yMax="830">
      <contour>
        <pt x="370" y="370" on="1"/>
        <pt x="500" y="370" on="1"/>
        <pt x="500" y="290" on="1"/>
        <pt x="370" y="290" on="1"/>
        <pt x="370" y="-170" on="1"/>
        <pt x="290" y="-170" on="1"/>
        <pt x="290" y="290" on="1"/>
        <pt x="210" y="290" on="1"/>
        <pt x="210" y="-170" on="1"/>
        <pt x="130" y="-170" on="1"/>
        <pt x="130" y="290" on="1"/>
        <pt x="0" y="290" on="1"/>
        <pt x="0" y="370" on="1"/>
        <pt x="130" y="370" on="1"/>
        <pt x="130" y="830" on="1"/>
        <pt x="210" y="830" on="1"/>
        <pt x="210" y="370" on="1"/>
        <pt x="290" y="370" on="1"/>
        <pt x="290" y="830" on="1"/>
        <pt x="370" y="830" on="1"/>
      </contour>
    </TTGlyph>
    <TTGlyph name="SF530000.001" xMin="0" yMin="-170" xMax="500" yMax="830">
      <contour>
        <pt x="210" y="-170" on="1"/>
        <pt x="130" y="-170" on="1"/>
        <pt x="130" y="290" on="1"/>
        <pt x="0" y="290" on="1"/>
        <pt x="0" y="370" on="1"/>
        <pt x="130" y="370" on="1"/>
        <pt x="130" y="830" on="1"/>
        <pt x="210" y="830" on="1"/>
      </contour>
      <contour>
        <pt x="290" y="830" on="1"/>
        <pt x="370" y="830" on="1"/>
        <pt x="370" y="370" on="1"/>
        <pt x="500" y="370" on="1"/>
        <pt x="500" y="290" on="1"/>
        <pt x="370" y="290" on="1"/>
        <pt x="370" y="-170" on="1"/>
        <pt x="290" y="-170" on="1"/>
      </contour>
    </TTGlyph>
    <TTGlyph name="SF540000" xMin="0" yMin="-170" xMax="500" yMax="830">
      <contour>
        <pt x="500" y="290" on="1"/>
        <pt x="500" y="210" on="1"/>
        <pt x="290" y="210" on="1"/>
        <pt x="290" y="-170" on="1"/>
        <pt x="210" y="-170" on="1"/>
        <pt x="210" y="210" on="1"/>
        <pt x="0" y="210" on="1"/>
        <pt x="0" y="290" on="1"/>
        <pt x="210" y="290" on="1"/>
        <pt x="210" y="370" on="1"/>
        <pt x="0" y="370" on="1"/>
        <pt x="0" y="450" on="1"/>
        <pt x="210" y="450" on="1"/>
        <pt x="210" y="830" on="1"/>
        <pt x="290" y="830" on="1"/>
        <pt x="290" y="450" on="1"/>
        <pt x="500" y="450" on="1"/>
        <pt x="500" y="370" on="1"/>
        <pt x="290" y="370" on="1"/>
        <pt x="290" y="290" on="1"/>
      </contour>
    </TTGlyph>
    <TTGlyph name="SF540000.001" xMin="0" yMin="-170" xMax="500" yMax="830">
      <contour>
        <pt x="0" y="370" on="1"/>
        <pt x="0" y="450" on="1"/>
        <pt x="210" y="450" on="1"/>
        <pt x="210" y="830" on="1"/>
        <pt x="290" y="830" on="1"/>
        <pt x="290" y="450" on="1"/>
        <pt x="500" y="450" on="1"/>
        <pt x="500" y="370" on="1"/>
      </contour>
      <contour>
        <pt x="500" y="290" on="1"/>
        <pt x="500" y="210" on="1"/>
        <pt x="290" y="210" on="1"/>
        <pt x="290" y="-170" on="1"/>
        <pt x="210" y="-170" on="1"/>
        <pt x="210" y="210" on="1"/>
        <pt x="0" y="210" on="1"/>
        <pt x="0" y="290" on="1"/>
      </contour>
    </TTGlyph>
    <TTGlyph name="Sacute" xMin="31" yMin="-13" xMax="545" yMax="830">
      <component glyphName="S" x="0" y="0" flags="0x204"/>
      <component glyphName="acute" x="18" y="139" flags="0x4"/>
    </TTGlyph>
    <TTGlyph name="Scaron" xMin="31" yMin="-13" xMax="550" yMax="830">
      <component glyphName="S" x="0" y="0" flags="0x204"/>
      <component glyphName="caron" x="33" y="139" flags="0x4"/>
    </TTGlyph>
    <TTGlyph name="Scedilla" xMin="31" yMin="-170" xMax="545" yMax="633">
      <contour>
        <pt x="249" y="-25" on="1"/>
        <pt x="271" y="-36" on="0"/>
        <pt x="289" y="-66" on="0"/>
        <pt x="289" y="-84" on="1"/>
        <pt x="289" y="-125" on="0"/>
        <pt x="220" y="-170" on="0"/>
        <pt x="166" y="-170" on="1"/>
        <pt x="118" y="-170" on="0"/>
        <pt x="80" y="-150" on="1"/>
        <pt x="106" y="-92" on="1"/>
        <pt x="117" y="-98" on="0"/>
        <pt x="146" y="-105" on="0"/>
        <pt x="160" y="-105" on="1"/>
        <pt x="183" y="-105" on="0"/>
        <pt x="198" y="-87" on="0"/>
        <pt x="198" y="-80" on="1"/>
        <pt x="198" y="-69" on="0"/>
        <pt x="187" y="-54" on="0"/>
        <pt x="172" y="-49" on="1"/>
        <pt x="154" y="-43" on="1"/>
        <pt x="160" y="-33" on="0"/>
        <pt x="170" y="-18" on="0"/>
        <pt x="175" y="-10" on="1"/>
        <pt x="117" y="-4" on="0"/>
        <pt x="48" y="29" on="0"/>
        <pt x="31" y="41" on="1"/>
        <pt x="84" y="135" on="1"/>
        <pt x="94" y="129" on="0"/>
        <pt x="125" y="113" on="0"/>
        <pt x="164" y="99" on="0"/>
        <pt x="210" y="90" on="0"/>
        <pt x="236" y="90" on="1"/>
        <pt x="259" y="90" on="0"/>
        <pt x="301" y="99" on="0"/>
        <pt x="332" y="120" on="0"/>
        <pt x="351" y="152" on="0"/>
        <pt x="351" y="176" on="1"/>
        <pt x="351" y="194" on="0"/>
        <pt x="336" y="223" on="0"/>
        <pt x="310" y="247" on="0"/>
        <pt x="275" y="267" on="0"/>
        <pt x="255" y="277" on="1"/>
        <pt x="230" y="290" on="0"/>
        <pt x="187" y="316" on="0"/>
        <pt x="156" y="352" on="0"/>
        <pt x="138" y="402" on="0"/>
        <pt x="138" y="438" on="1"/>
        <pt x="138" y="526" on="0"/>
        <pt x="257" y="633" on="0"/>
        <pt x="367" y="633" on="1"/>
        <pt x="403" y="633" on="0"/>
        <pt x="460" y="623" on="0"/>
        <pt x="504" y="609" on="0"/>
        <pt x="535" y="593" on="0"/>
        <pt x="545" y="587" on="1"/>
        <pt x="493" y="492" on="1"/>
        <pt x="470" y="508" on="0"/>
        <pt x="400" y="530" on="0"/>
        <pt x="351" y="530" on="1"/>
        <pt x="313" y="530" on="0"/>
        <pt x="260" y="496" on="0"/>
        <pt x="260" y="454" on="1"/>
        <pt x="260" y="420" on="0"/>
        <pt x="305" y="385" on="0"/>
        <pt x="337" y="371" on="1"/>
        <pt x="367" y="357" on="0"/>
        <pt x="417" y="327" on="0"/>
        <pt x="453" y="287" on="0"/>
        <pt x="474" y="233" on="0"/>
        <pt x="474" y="196" on="1"/>
        <pt x="474" y="102" on="0"/>
        <pt x="361" y="-4" on="0"/>
        <pt x="257" y="-12" on="1"/>
      </contour>
    </TTGlyph>
    <TTGlyph name="Scircumflex" xMin="31" yMin="-13" xMax="545" yMax="830">
      <component glyphName="S" x="0" y="0" flags="0x204"/>
      <component glyphName="circumflex" x="36" y="139" flags="0x4"/>
    </TTGlyph>
    <TTGlyph name="Scommaaccent" xMin="31" yMin="-170" xMax="545" yMax="633">
      <component glyphName="S" x="0" y="0" flags="0x204"/>
      <component glyphName="commaaccent" x="-35" y="0" flags="0x4"/>
    </TTGlyph>
    <TTGlyph name="Sigma" xMin="19" yMin="0" xMax="597" yMax="619">
      <contour>
        <pt x="597" y="619" on="1"/>
        <pt x="572" y="517" on="1"/>
        <pt x="296" y="517" on="1"/>
        <pt x="309" y="491" on="0"/>
        <pt x="343" y="433" on="0"/>
        <pt x="377" y="375" on="0"/>
        <pt x="409" y="322" on="0"/>
        <pt x="421" y="302" on="1"/>
        <pt x="404" y="287" on="0"/>
        <pt x="347" y="235" on="0"/>
        <pt x="283" y="178" on="0"/>
        <pt x="219" y="121" on="0"/>
        <pt x="197" y="102" on="1"/>
        <pt x="476" y="102" on="1"/>
        <pt x="451" y="0" on="1"/>
        <pt x="19" y="0" on="1"/>
        <pt x="40" y="88" on="1"/>
        <pt x="66" y="112" on="0"/>
        <pt x="128" y="169" on="0"/>
        <pt x="194" y="229" on="0"/>
        <pt x="260" y="289" on="0"/>
        <pt x="290" y="316" on="1"/>
        <pt x="275" y="340" on="0"/>
        <pt x="240" y="401" on="0"/>
        <pt x="204" y="464" on="0"/>
        <pt x="170" y="523" on="0"/>
        <pt x="157" y="544" on="1"/>
        <pt x="175" y="619" on="1"/>
      </contour>
    </TTGlyph>
    <TTGlyph name="Slash" xMin="-11" yMin="-123" xMax="580" yMax="741">
      <component glyphName="slash" x="0" y="42" flags="0x204"/>
    </TTGlyph>
    <TTGlyph name="T" xMin="129" yMin="0" xMax="603" yMax="619">
      <contour>
        <pt x="603" y="619" on="1"/>
        <pt x="579" y="517" on="1"/>
        <pt x="415" y="517" on="1"/>
        <pt x="291" y="0" on="1"/>
        <pt x="168" y="0" on="1"/>
        <pt x="292" y="517" on="1"/>
        <pt x="129" y="517" on="1"/>
        <pt x="153" y="619" on="1"/>
      </contour>
    </TTGlyph>
    <TTGlyph name="Tau" xMin="129" yMin="0" xMax="603" yMax="619">
      <component glyphName="T" x="0" y="0" flags="0x204"/>
    </TTGlyph>
    <TTGlyph name="Tbar" xMin="119" yMin="0" xMax="603" yMax="619">
      <contour>
        <pt x="603" y="619" on="1"/>
        <pt x="579" y="517" on="1"/>
        <pt x="415" y="517" on="1"/>
        <pt x="371" y="337" on="1"/>
        <pt x="481" y="337" on="1"/>
        <pt x="457" y="238" on="1"/>
        <pt x="348" y="238" on="1"/>
        <pt x="291" y="0" on="1"/>
        <pt x="168" y="0" on="1"/>
        <pt x="225" y="238" on="1"/>
        <pt x="119" y="238" on="1"/>
        <pt x="143" y="337" on="1"/>
        <pt x="248" y="337" on="1"/>
        <pt x="292" y="517" on="1"/>
        <pt x="129" y="517" on="1"/>
        <pt x="153" y="619" on="1"/>
      </contour>
    </TTGlyph>
    <TTGlyph name="Tcaron" xMin="129" yMin="0" xMax="603" yMax="830">
      <component glyphName="T" x="0" y="0" flags="0x204"/>
      <component glyphName="caron" x="36" y="139" flags="0x4"/>
    </TTGlyph>
    <TTGlyph name="Theta" xMin="69" yMin="-13" xMax="540" yMax="633">
      <contour>
        <pt x="244" y="357" on="1"/>
        <pt x="390" y="357" on="1"/>
        <pt x="368" y="264" on="1"/>
        <pt x="221" y="264" on="1"/>
      </contour>
      <contour>
        <pt x="368" y="633" on="1"/>
        <pt x="449" y="633" on="0"/>
        <pt x="540" y="528" on="0"/>
        <pt x="540" y="441" on="1"/>
        <pt x="540" y="402" on="0"/>
        <pt x="528" y="304" on="0"/>
        <pt x="500" y="203" on="0"/>
        <pt x="455" y="107" on="0"/>
        <pt x="388" y="32" on="0"/>
        <pt x="299" y="-13" on="0"/>
        <pt x="242" y="-13" on="1"/>
        <pt x="160" y="-13" on="0"/>
        <pt x="69" y="92" on="0"/>
        <pt x="69" y="179" on="1"/>
        <pt x="69" y="218" on="0"/>
        <pt x="81" y="316" on="0"/>
        <pt x="109" y="417" on="0"/>
        <pt x="155" y="513" on="0"/>
        <pt x="221" y="588" on="0"/>
        <pt x="310" y="633" on="0"/>
      </contour>
      <contour>
        <pt x="255" y="94" on="1"/>
        <pt x="298" y="94" on="0"/>
        <pt x="362" y="160" on="0"/>
        <pt x="404" y="260" on="0"/>
        <pt x="425" y="377" on="0"/>
        <pt x="425" y="428" on="1"/>
        <pt x="425" y="447" on="0"/>
        <pt x="418" y="483" on="0"/>
        <pt x="401" y="510" on="0"/>
        <pt x="374" y="526" on="0"/>
        <pt x="354" y="526" on="1"/>
        <pt x="311" y="526" on="0"/>
        <pt x="247" y="460" on="0"/>
        <pt x="205" y="360" on="0"/>
        <pt x="184" y="243" on="0"/>
        <pt x="184" y="192" on="1"/>
        <pt x="184" y="153" on="0"/>
        <pt x="217" y="94" on="0"/>
      </contour>
    </TTGlyph>
    <TTGlyph name="Thorn" xMin="38" yMin="0" xMax="531" yMax="619">
      <contour>
        <pt x="288" y="529" on="1"/>
        <pt x="296" y="530" on="0"/>
        <pt x="316" y="530" on="0"/>
        <pt x="324" y="530" on="1"/>
        <pt x="381" y="530" on="0"/>
        <pt x="460" y="505" on="0"/>
        <pt x="509" y="461" on="0"/>
        <pt x="531" y="398" on="0"/>
        <pt x="531" y="361" on="1"/>
        <pt x="531" y="297" on="0"/>
        <pt x="485" y="204" on="0"/>
        <pt x="402" y="144" on="0"/>
        <pt x="287" y="115" on="0"/>
        <pt x="217" y="115" on="1"/>
        <pt x="188" y="115" on="1"/>
        <pt x="161" y="0" on="1"/>
        <pt x="38" y="0" on="1"/>
        <pt x="187" y="619" on="1"/>
        <pt x="310" y="619" on="1"/>
      </contour>
      <contour>
        <pt x="309" y="425" on="1"/>
        <pt x="287" y="425" on="0"/>
        <pt x="263" y="422" on="1"/>
        <pt x="213" y="221" on="1"/>
        <pt x="246" y="221" on="1"/>
        <pt x="326" y="221" on="0"/>
        <pt x="408" y="286" on="0"/>
        <pt x="408" y="343" on="1"/>
        <pt x="408" y="381" on="0"/>
        <pt x="367" y="425" on="0"/>
      </contour>
    </TTGlyph>
    <TTGlyph name="U" xMin="67" yMin="-13" xMax="578" yMax="619">
      <contour>
        <pt x="237" y="-13" on="1"/>
        <pt x="149" y="-13" on="0"/>
        <pt x="67" y="71" on="0"/>
        <pt x="67" y="146" on="1"/>
        <pt x="67" y="187" on="0"/>
        <pt x="79" y="238" on="1"/>
        <pt x="171" y="619" on="1"/>
        <pt x="294" y="619" on="1"/>
        <pt x="203" y="239" on="1"/>
        <pt x="198" y="216" on="0"/>
        <pt x="190" y="175" on="0"/>
        <pt x="190" y="158" on="1"/>
        <pt x="190" y="128" on="0"/>
        <pt x="218" y="94" on="0"/>
        <pt x="255" y="94" on="1"/>
        <pt x="277" y="94" on="0"/>
        <pt x="309" y="107" on="0"/>
        <pt x="333" y="138" on="0"/>
        <pt x="352" y="190" on="0"/>
        <pt x="361" y="229" on="1"/>
        <pt x="455" y="619" on="1"/>
        <pt x="578" y="619" on="1"/>
        <pt x="482" y="220" on="1"/>
        <pt x="469" y="165" on="0"/>
        <pt x="436" y="79" on="0"/>
        <pt x="382" y="19" on="0"/>
        <pt x="299" y="-13" on="0"/>
      </contour>
    </TTGlyph>
    <TTGlyph name="Uacute" xMin="67" yMin="-13" xMax="578" yMax="830">
      <component glyphName="U" x="0" y="0" flags="0x204"/>
      <component glyphName="acute" x="20" y="139" flags="0x4"/>
    </TTGlyph>
    <TTGlyph name="Ubreve" xMin="67" yMin="-13" xMax="578" yMax="821">
      <component glyphName="U" x="0" y="0" flags="0x204"/>
      <component glyphName="breve" x="36" y="139" flags="0x4"/>
    </TTGlyph>
    <TTGlyph name="Ucircumflex" xMin="67" yMin="-13" xMax="578" yMax="830">
      <component glyphName="U" x="0" y="0" flags="0x204"/>
      <component glyphName="circumflex" x="36" y="139" flags="0x4"/>
    </TTGlyph>
    <TTGlyph name="Udieresis" xMin="67" yMin="-13" xMax="578" yMax="812">
      <component glyphName="U" x="0" y="0" flags="0x204"/>
      <component glyphName="dieresis" x="36" y="139" flags="0x4"/>
    </TTGlyph>
    <TTGlyph name="Ugrave" xMin="67" yMin="-13" xMax="578" yMax="830">
      <component glyphName="U" x="0" y="0" flags="0x204"/>
      <component glyphName="grave" x="10" y="139" flags="0x4"/>
    </TTGlyph>
    <TTGlyph name="Uhorn" xMin="65" yMin="-13" xMax="665" yMax="715">
      <contour>
        <pt x="219" y="-13" on="1"/>
        <pt x="177" y="-13" on="0"/>
        <pt x="118" y="9" on="0"/>
        <pt x="81" y="48" on="0"/>
        <pt x="65" y="102" on="0"/>
        <pt x="65" y="135" on="1"/>
        <pt x="65" y="156" on="0"/>
        <pt x="72" y="201" on="0"/>
        <pt x="77" y="224" on="1"/>
        <pt x="171" y="619" on="1"/>
        <pt x="287" y="619" on="1"/>
        <pt x="192" y="223" on="1"/>
        <pt x="189" y="209" on="0"/>
        <pt x="179" y="165" on="0"/>
        <pt x="179" y="146" on="1"/>
        <pt x="179" y="121" on="0"/>
        <pt x="199" y="85" on="0"/>
        <pt x="229" y="85" on="1"/>
        <pt x="267" y="85" on="0"/>
        <pt x="311" y="147" on="0"/>
        <pt x="330" y="224" on="1"/>
        <pt x="424" y="619" on="1"/>
        <pt x="476" y="619" on="1"/>
        <pt x="502" y="619" on="0"/>
        <pt x="534" y="631" on="0"/>
        <pt x="553" y="655" on="0"/>
        <pt x="561" y="691" on="0"/>
        <pt x="563" y="715" on="1"/>
        <pt x="665" y="715" on="1"/>
        <pt x="662" y="683" on="0"/>
        <pt x="644" y="628" on="0"/>
        <pt x="610" y="585" on="0"/>
        <pt x="559" y="556" on="0"/>
        <pt x="523" y="552" on="1"/>
        <pt x="445" y="224" on="1"/>
        <pt x="432" y="170" on="0"/>
        <pt x="402" y="82" on="0"/>
        <pt x="353" y="20" on="0"/>
        <pt x="277" y="-13" on="0"/>
      </contour>
    </TTGlyph>
    <TTGlyph name="Uhungarumlaut" xMin="67" yMin="-13" xMax="609" yMax="830">
      <component glyphName="U" x="0" y="0" flags="0x204"/>
      <component glyphName="hungarumlaut" x="36" y="139" flags="0x4"/>
    </TTGlyph>
    <TTGlyph name="Umacron" xMin="67" yMin="-13" xMax="578" yMax="786">
      <component glyphName="U" x="0" y="0" flags="0x204"/>
      <component glyphName="macron" x="36" y="139" flags="0x4"/>
    </TTGlyph>
    <TTGlyph name="Uogonek" xMin="67" yMin="-170" xMax="578" yMax="619">
      <contour>
        <pt x="320" y="-156" on="1"/>
        <pt x="303" y="-162" on="0"/>
        <pt x="258" y="-170" on="0"/>
        <pt x="235" y="-170" on="1"/>
        <pt x="180" y="-170" on="0"/>
        <pt x="136" y="-138" on="0"/>
        <pt x="136" y="-117" on="1"/>
        <pt x="136" y="-91" on="0"/>
        <pt x="170" y="-41" on="0"/>
        <pt x="215" y="-12" on="1"/>
        <pt x="139" y="-7" on="0"/>
        <pt x="67" y="75" on="0"/>
        <pt x="67" y="146" on="1"/>
        <pt x="67" y="187" on="0"/>
        <pt x="79" y="238" on="1"/>
        <pt x="171" y="619" on="1"/>
        <pt x="294" y="619" on="1"/>
        <pt x="203" y="239" on="1"/>
        <pt x="198" y="216" on="0"/>
        <pt x="190" y="175" on="0"/>
        <pt x="190" y="158" on="1"/>
        <pt x="190" y="128" on="0"/>
        <pt x="218" y="94" on="0"/>
        <pt x="255" y="94" on="1"/>
        <pt x="277" y="94" on="0"/>
        <pt x="309" y="107" on="0"/>
        <pt x="333" y="138" on="0"/>
        <pt x="352" y="190" on="0"/>
        <pt x="361" y="229" on="1"/>
        <pt x="455" y="619" on="1"/>
        <pt x="578" y="619" on="1"/>
        <pt x="482" y="220" on="1"/>
        <pt x="473" y="182" on="0"/>
        <pt x="454" y="121" on="0"/>
        <pt x="424" y="68" on="0"/>
        <pt x="376" y="21" on="0"/>
        <pt x="339" y="-3" on="1"/>
        <pt x="292" y="-32" on="0"/>
        <pt x="258" y="-76" on="0"/>
        <pt x="258" y="-87" on="1"/>
        <pt x="258" y="-101" on="0"/>
        <pt x="280" y="-101" on="1"/>
        <pt x="293" y="-101" on="0"/>
        <pt x="322" y="-94" on="0"/>
        <pt x="328" y="-92" on="1"/>
      </contour>
    </TTGlyph>
    <TTGlyph name="Upsilon" xMin="142" yMin="0" xMax="618" yMax="619">
      <component glyphName="Y" x="0" y="0" flags="0x204"/>
    </TTGlyph>
    <TTGlyph name="Upsilondieresis" xMin="142" yMin="0" xMax="618" yMax="812">
      <component glyphName="Y" x="0" y="0" flags="0x204"/>
      <component glyphName="dieresis" x="27" y="139" flags="0x4"/>
    </TTGlyph>
    <TTGlyph name="Upsilontonos" xMin="-74" yMin="0" xMax="618" yMax="658">
      <component glyphName="Y" x="0" y="0" flags="0x204"/>
      <component glyphName="tonos.cap" x="-324" y="0" flags="0x4"/>
    </TTGlyph>
    <TTGlyph name="Uring" xMin="67" yMin="-13" xMax="573" yMax="826">
      <contour>
        <pt x="237" y="-13" on="1"/>
        <pt x="149" y="-13" on="0"/>
        <pt x="67" y="71" on="0"/>
        <pt x="67" y="146" on="1"/>
        <pt x="67" y="187" on="0"/>
        <pt x="79" y="238" on="1"/>
        <pt x="166" y="599" on="1"/>
        <pt x="289" y="599" on="1"/>
        <pt x="203" y="239" on="1"/>
        <pt x="198" y="216" on="0"/>
        <pt x="190" y="175" on="0"/>
        <pt x="190" y="158" on="1"/>
        <pt x="190" y="128" on="0"/>
        <pt x="218" y="94" on="0"/>
        <pt x="255" y="94" on="1"/>
        <pt x="277" y="94" on="0"/>
        <pt x="309" y="107" on="0"/>
        <pt x="333" y="138" on="0"/>
        <pt x="352" y="190" on="0"/>
        <pt x="361" y="229" on="1"/>
        <pt x="450" y="599" on="1"/>
        <pt x="573" y="599" on="1"/>
        <pt x="482" y="220" on="1"/>
        <pt x="469" y="165" on="0"/>
        <pt x="436" y="79" on="0"/>
        <pt x="382" y="19" on="0"/>
        <pt x="299" y="-13" on="0"/>
      </contour>
      <contour>
        <pt x="486" y="723" on="1"/>
        <pt x="486" y="673" on="0"/>
        <pt x="423" y="621" on="0"/>
        <pt x="380" y="621" on="1"/>
        <pt x="360" y="621" on="0"/>
        <pt x="322" y="634" on="0"/>
        <pt x="293" y="660" on="0"/>
        <pt x="276" y="698" on="0"/>
        <pt x="276" y="723" on="1"/>
        <pt x="276" y="748" on="0"/>
        <pt x="293" y="787" on="0"/>
        <pt x="322" y="813" on="0"/>
        <pt x="360" y="826" on="0"/>
        <pt x="380" y="826" on="1"/>
        <pt x="423" y="826" on="0"/>
        <pt x="486" y="774" on="0"/>
      </contour>
      <contour>
        <pt x="421" y="723" on="1"/>
        <pt x="421" y="744" on="0"/>
        <pt x="397" y="765" on="0"/>
        <pt x="380" y="765" on="1"/>
        <pt x="365" y="765" on="0"/>
        <pt x="340" y="744" on="0"/>
        <pt x="340" y="723" on="1"/>
        <pt x="340" y="703" on="0"/>
        <pt x="365" y="681" on="0"/>
        <pt x="380" y="681" on="1"/>
        <pt x="397" y="681" on="0"/>
        <pt x="421" y="703" on="0"/>
      </contour>
    </TTGlyph>
    <TTGlyph name="Utilde" xMin="67" yMin="-13" xMax="578" yMax="813">
      <component glyphName="U" x="0" y="0" flags="0x204"/>
      <component glyphName="tilde" x="36" y="139" flags="0x4"/>
    </TTGlyph>
    <TTGlyph name="V" xMin="136" yMin="0" xMax="617" yMax="619">
      <contour>
        <pt x="170" y="0" on="1"/>
        <pt x="162" y="58" on="0"/>
        <pt x="150" y="197" on="0"/>
        <pt x="141" y="344" on="0"/>
        <pt x="136" y="494" on="0"/>
        <pt x="136" y="563" on="1"/>
        <pt x="136" y="579" on="0"/>
        <pt x="136" y="607" on="0"/>
        <pt x="137" y="619" on="1"/>
        <pt x="263" y="619" on="1"/>
        <pt x="261" y="572" on="0"/>
        <pt x="259" y="451" on="0"/>
        <pt x="259" y="386" on="1"/>
        <pt x="259" y="316" on="0"/>
        <pt x="262" y="182" on="0"/>
        <pt x="265" y="125" on="1"/>
        <pt x="292" y="177" on="0"/>
        <pt x="355" y="309" on="0"/>
        <pt x="416" y="444" on="0"/>
        <pt x="470" y="571" on="0"/>
        <pt x="489" y="619" on="1"/>
        <pt x="617" y="619" on="1"/>
        <pt x="591" y="559" on="0"/>
        <pt x="522" y="411" on="0"/>
        <pt x="441" y="248" on="0"/>
        <pt x="349" y="79" on="0"/>
        <pt x="301" y="0" on="1"/>
      </contour>
    </TTGlyph>
    <TTGlyph name="W" xMin="39" yMin="0" xMax="609" yMax="619">
      <contour>
        <pt x="324" y="0" on="1"/>
        <pt x="322" y="21" on="0"/>
        <pt x="315" y="90" on="0"/>
        <pt x="309" y="169" on="0"/>
        <pt x="303" y="252" on="0"/>
        <pt x="302" y="288" on="1"/>
        <pt x="153" y="0" on="1"/>
        <pt x="39" y="0" on="1"/>
        <pt x="59" y="151" on="0"/>
        <pt x="120" y="458" on="0"/>
        <pt x="155" y="619" on="1"/>
        <pt x="268" y="619" on="1"/>
        <pt x="145" y="133" on="1"/>
        <pt x="282" y="400" on="1"/>
        <pt x="369" y="400" on="1"/>
        <pt x="371" y="334" on="0"/>
        <pt x="381" y="198" on="0"/>
        <pt x="386" y="138" on="1"/>
        <pt x="497" y="619" on="1"/>
        <pt x="609" y="619" on="1"/>
        <pt x="588" y="543" on="0"/>
        <pt x="544" y="379" on="0"/>
        <pt x="498" y="216" on="0"/>
        <pt x="452" y="64" on="0"/>
        <pt x="430" y="0" on="1"/>
      </contour>
    </TTGlyph>
    <TTGlyph name="Wacute" xMin="39" yMin="0" xMax="609" yMax="830">
      <component glyphName="W" x="0" y="0" flags="0x204"/>
      <component glyphName="acute" x="36" y="139" flags="0x4"/>
    </TTGlyph>
    <TTGlyph name="Wcircumflex" xMin="39" yMin="0" xMax="609" yMax="830">
      <component glyphName="W" x="0" y="0" flags="0x204"/>
      <component glyphName="circumflex" x="36" y="139" flags="0x4"/>
    </TTGlyph>
    <TTGlyph name="Wdieresis" xMin="39" yMin="0" xMax="609" yMax="812">
      <component glyphName="W" x="0" y="0" flags="0x204"/>
      <component glyphName="dieresis" x="36" y="139" flags="0x4"/>
    </TTGlyph>
    <TTGlyph name="Wgrave" xMin="39" yMin="0" xMax="609" yMax="830">
      <component glyphName="W" x="0" y="0" flags="0x204"/>
      <component glyphName="grave" x="36" y="139" flags="0x4"/>
    </TTGlyph>
    <TTGlyph name="X" xMin="2" yMin="0" xMax="610" yMax="619">
      <contour>
        <pt x="344" y="430" on="1"/>
        <pt x="377" y="473" on="0"/>
        <pt x="448" y="570" on="0"/>
        <pt x="480" y="619" on="1"/>
        <pt x="610" y="619" on="1"/>
        <pt x="556" y="542" on="0"/>
        <pt x="444" y="400" on="0"/>
        <pt x="387" y="330" on="1"/>
        <pt x="403" y="287" on="0"/>
        <pt x="433" y="193" on="0"/>
        <pt x="456" y="104" on="0"/>
        <pt x="472" y="27" on="0"/>
        <pt x="475" y="0" on="1"/>
        <pt x="353" y="0" on="1"/>
        <pt x="346" y="51" on="0"/>
        <pt x="321" y="172" on="0"/>
        <pt x="304" y="228" on="1"/>
        <pt x="143" y="0" on="1"/>
        <pt x="2" y="0" on="1"/>
        <pt x="260" y="338" on="1"/>
        <pt x="150" y="619" on="1"/>
        <pt x="276" y="619" on="1"/>
      </contour>
    </TTGlyph>
    <TTGlyph name="Xi" xMin="19" yMin="0" xMax="592" yMax="619">
      <contour>
        <pt x="167" y="619" on="1"/>
        <pt x="592" y="619" on="1"/>
        <pt x="567" y="515" on="1"/>
        <pt x="142" y="515" on="1"/>
      </contour>
      <contour>
        <pt x="122" y="275" on="1"/>
        <pt x="147" y="379" on="1"/>
        <pt x="496" y="379" on="1"/>
        <pt x="471" y="275" on="1"/>
      </contour>
      <contour>
        <pt x="44" y="104" on="1"/>
        <pt x="469" y="104" on="1"/>
        <pt x="444" y="0" on="1"/>
        <pt x="19" y="0" on="1"/>
      </contour>
    </TTGlyph>
    <TTGlyph name="Y" xMin="142" yMin="0" xMax="618" yMax="619">
      <contour>
        <pt x="311" y="340" on="1"/>
        <pt x="327" y="363" on="0"/>
        <pt x="373" y="432" on="0"/>
        <pt x="421" y="509" on="0"/>
        <pt x="468" y="587" on="0"/>
        <pt x="486" y="619" on="1"/>
        <pt x="618" y="619" on="1"/>
        <pt x="587" y="568" on="0"/>
        <pt x="526" y="472" on="0"/>
        <pt x="462" y="378" on="0"/>
        <pt x="391" y="285" on="0"/>
        <pt x="351" y="236" on="1"/>
        <pt x="294" y="0" on="1"/>
        <pt x="171" y="0" on="1"/>
        <pt x="227" y="235" on="1"/>
        <pt x="196" y="332" on="0"/>
        <pt x="156" y="517" on="0"/>
        <pt x="142" y="619" on="1"/>
        <pt x="263" y="619" on="1"/>
        <pt x="269" y="547" on="0"/>
        <pt x="296" y="402" on="0"/>
      </contour>
    </TTGlyph>
    <TTGlyph name="Yacute" xMin="142" yMin="0" xMax="618" yMax="830">
      <component glyphName="Y" x="0" y="0" flags="0x204"/>
      <component glyphName="acute" x="45" y="139" flags="0x4"/>
    </TTGlyph>
    <TTGlyph name="Ycircumflex" xMin="142" yMin="0" xMax="618" yMax="830">
      <component glyphName="Y" x="0" y="0" flags="0x204"/>
      <component glyphName="circumflex" x="45" y="139" flags="0x4"/>
    </TTGlyph>
    <TTGlyph name="Ydieresis" xMin="142" yMin="0" xMax="618" yMax="812">
      <component glyphName="Y" x="0" y="0" flags="0x204"/>
      <component glyphName="dieresis" x="27" y="139" flags="0x4"/>
    </TTGlyph>
    <TTGlyph name="Ygrave" xMin="142" yMin="0" xMax="618" yMax="830">
      <component glyphName="Y" x="0" y="0" flags="0x204"/>
      <component glyphName="grave" x="20" y="139" flags="0x4"/>
    </TTGlyph>
    <TTGlyph name="Z" xMin="28" yMin="0" xMax="571" yMax="619">
      <contour>
        <pt x="547" y="519" on="1"/>
        <pt x="489" y="454" on="0"/>
        <pt x="391" y="342" on="0"/>
        <pt x="305" y="241" on="0"/>
        <pt x="227" y="147" on="0"/>
        <pt x="190" y="101" on="1"/>
        <pt x="459" y="101" on="1"/>
        <pt x="434" y="0" on="1"/>
        <pt x="28" y="0" on="1"/>
        <pt x="48" y="81" on="1"/>
        <pt x="79" y="123" on="0"/>
        <pt x="150" y="215" on="0"/>
        <pt x="237" y="320" on="0"/>
        <pt x="344" y="444" on="0"/>
        <pt x="410" y="518" on="1"/>
        <pt x="160" y="518" on="1"/>
        <pt x="185" y="619" on="1"/>
        <pt x="571" y="619" on="1"/>
      </contour>
    </TTGlyph>
    <TTGlyph name="Zacute" xMin="28" yMin="0" xMax="571" yMax="830">
      <component glyphName="Z" x="0" y="0" flags="0x204"/>
      <component glyphName="acute" x="36" y="139" flags="0x4"/>
    </TTGlyph>
    <TTGlyph name="Zcaron" xMin="28" yMin="0" xMax="571" yMax="830">
      <component glyphName="Z" x="0" y="0" flags="0x204"/>
      <component glyphName="caron" x="20" y="139" flags="0x4"/>
    </TTGlyph>
    <TTGlyph name="Zdotaccent" xMin="28" yMin="0" xMax="571" yMax="814">
      <component glyphName="Z" x="0" y="0" flags="0x204"/>
      <component glyphName="dotaccent" x="36" y="139" flags="0x4"/>
    </TTGlyph>
    <TTGlyph name="Zeta" xMin="28" yMin="0" xMax="571" yMax="619">
      <component glyphName="Z" x="0" y="0" flags="0x204"/>
    </TTGlyph>
    <TTGlyph name="a" xMin="64" yMin="-11" xMax="525" yMax="480">
      <contour>
        <pt x="251" y="94" on="1"/>
        <pt x="279" y="94" on="0"/>
        <pt x="317" y="119" on="0"/>
        <pt x="331" y="136" on="1"/>
        <pt x="333" y="150" on="0"/>
        <pt x="337" y="176" on="0"/>
        <pt x="341" y="193" on="1"/>
        <pt x="384" y="371" on="1"/>
        <pt x="373" y="374" on="0"/>
        <pt x="349" y="376" on="0"/>
        <pt x="338" y="376" on="1"/>
        <pt x="303" y="376" on="0"/>
        <pt x="247" y="343" on="0"/>
        <pt x="207" y="289" on="0"/>
        <pt x="186" y="219" on="0"/>
        <pt x="186" y="182" on="1"/>
        <pt x="186" y="156" on="0"/>
        <pt x="195" y="122" on="0"/>
        <pt x="212" y="102" on="0"/>
        <pt x="236" y="94" on="0"/>
      </contour>
      <contour>
        <pt x="206" y="-11" on="1"/>
        <pt x="140" y="-10" on="0"/>
        <pt x="64" y="83" on="0"/>
        <pt x="64" y="172" on="1"/>
        <pt x="64" y="240" on="0"/>
        <pt x="110" y="354" on="0"/>
        <pt x="190" y="435" on="0"/>
        <pt x="297" y="480" on="0"/>
        <pt x="357" y="480" on="1"/>
        <pt x="398" y="480" on="0"/>
        <pt x="482" y="464" on="0"/>
        <pt x="525" y="447" on="1"/>
        <pt x="463" y="192" on="1"/>
        <pt x="459" y="174" on="0"/>
        <pt x="455" y="139" on="0"/>
        <pt x="455" y="121" on="1"/>
        <pt x="455" y="92" on="0"/>
        <pt x="466" y="37" on="0"/>
        <pt x="475" y="10" on="1"/>
        <pt x="367" y="-8" on="1"/>
        <pt x="365" y="-4" on="0"/>
        <pt x="359" y="8" on="0"/>
        <pt x="353" y="22" on="0"/>
        <pt x="349" y="33" on="0"/>
        <pt x="348" y="36" on="1"/>
        <pt x="328" y="21" on="0"/>
        <pt x="260" y="-11" on="0"/>
      </contour>
    </TTGlyph>
    <TTGlyph name="aacute" xMin="64" yMin="-11" xMax="525" yMax="691">
      <component glyphName="a" x="0" y="0" flags="0x204"/>
      <component glyphName="acute" x="29" y="0" flags="0x4"/>
    </TTGlyph>
    <TTGlyph name="abreve" xMin="64" yMin="-11" xMax="546" yMax="682">
      <component glyphName="a" x="0" y="0" flags="0x204"/>
      <component glyphName="breve" x="20" y="0" flags="0x4"/>
    </TTGlyph>
    <TTGlyph name="acircumflex" xMin="64" yMin="-11" xMax="525" yMax="691">
      <component glyphName="a" x="0" y="0" flags="0x204"/>
      <component glyphName="circumflex" x="19" y="0" flags="0x4"/>
    </TTGlyph>
    <TTGlyph name="acute" xMin="276" yMin="506" xMax="495" yMax="691">
      <contour>
        <pt x="495" y="597" on="1"/>
        <pt x="321" y="506" on="1"/>
        <pt x="276" y="573" on="1"/>
        <pt x="434" y="691" on="1"/>
      </contour>
    </TTGlyph>
    <TTGlyph name="acute.asc" xMin="287" yMin="678" xMax="506" yMax="830">
      <contour>
        <pt x="506" y="738" on="1"/>
        <pt x="303" y="678" on="1"/>
        <pt x="287" y="736" on="1"/>
        <pt x="481" y="830" on="1"/>
      </contour>
    </TTGlyph>
    <TTGlyph name="adieresis" xMin="64" yMin="-11" xMax="568" yMax="673">
      <component glyphName="a" x="0" y="0" flags="0x204"/>
      <component glyphName="dieresis" x="29" y="0" flags="0x4"/>
    </TTGlyph>
    <TTGlyph name="ae" xMin="30" yMin="-13" xMax="544" yMax="482">
      <contour>
        <pt x="457" y="359" on="1"/>
        <pt x="457" y="373" on="0"/>
        <pt x="445" y="393" on="0"/>
        <pt x="427" y="393" on="1"/>
        <pt x="417" y="393" on="0"/>
        <pt x="392" y="377" on="0"/>
        <pt x="367" y="343" on="0"/>
        <pt x="344" y="289" on="0"/>
        <pt x="336" y="250" on="1"/>
        <pt x="362" y="250" on="0"/>
        <pt x="407" y="267" on="0"/>
        <pt x="439" y="296" on="0"/>
        <pt x="457" y="336" on="0"/>
      </contour>
      <contour>
        <pt x="147" y="77" on="1"/>
        <pt x="157" y="77" on="0"/>
        <pt x="182" y="93" on="0"/>
        <pt x="207" y="127" on="0"/>
        <pt x="230" y="181" on="0"/>
        <pt x="238" y="220" on="1"/>
        <pt x="212" y="220" on="0"/>
        <pt x="167" y="203" on="0"/>
        <pt x="135" y="173" on="0"/>
        <pt x="117" y="133" on="0"/>
        <pt x="117" y="111" on="1"/>
        <pt x="117" y="97" on="0"/>
        <pt x="129" y="77" on="0"/>
      </contour>
      <contour>
        <pt x="30" y="93" on="1"/>
        <pt x="30" y="143" on="0"/>
        <pt x="65" y="218" on="0"/>
        <pt x="123" y="269" on="0"/>
        <pt x="201" y="297" on="0"/>
        <pt x="245" y="301" on="1"/>
        <pt x="246" y="305" on="0"/>
        <pt x="246" y="312" on="0"/>
        <pt x="246" y="315" on="1"/>
        <pt x="246" y="351" on="0"/>
        <pt x="215" y="391" on="0"/>
        <pt x="176" y="391" on="1"/>
        <pt x="159" y="391" on="0"/>
        <pt x="123" y="377" on="0"/>
        <pt x="106" y="365" on="1"/>
        <pt x="94" y="453" on="1"/>
        <pt x="115" y="467" on="0"/>
        <pt x="168" y="482" on="0"/>
        <pt x="196" y="482" on="1"/>
        <pt x="241" y="482" on="0"/>
        <pt x="307" y="436" on="0"/>
        <pt x="318" y="388" on="1"/>
        <pt x="342" y="435" on="0"/>
        <pt x="410" y="482" on="0"/>
        <pt x="448" y="482" on="1"/>
        <pt x="466" y="482" on="0"/>
        <pt x="501" y="471" on="0"/>
        <pt x="528" y="446" on="0"/>
        <pt x="544" y="406" on="0"/>
        <pt x="544" y="377" on="1"/>
        <pt x="544" y="327" on="0"/>
        <pt x="510" y="252" on="0"/>
        <pt x="451" y="201" on="0"/>
        <pt x="373" y="173" on="0"/>
        <pt x="330" y="169" on="1"/>
        <pt x="329" y="164" on="0"/>
        <pt x="329" y="158" on="0"/>
        <pt x="329" y="154" on="1"/>
        <pt x="329" y="119" on="0"/>
        <pt x="359" y="79" on="0"/>
        <pt x="398" y="79" on="1"/>
        <pt x="434" y="79" on="0"/>
        <pt x="468" y="104" on="1"/>
        <pt x="480" y="17" on="1"/>
        <pt x="459" y="3" on="0"/>
        <pt x="406" y="-13" on="0"/>
        <pt x="379" y="-13" on="1"/>
        <pt x="333" y="-13" on="0"/>
        <pt x="267" y="34" on="0"/>
        <pt x="256" y="82" on="1"/>
        <pt x="232" y="35" on="0"/>
        <pt x="164" y="-13" on="0"/>
        <pt x="126" y="-13" on="1"/>
        <pt x="108" y="-13" on="0"/>
        <pt x="73" y="-2" on="0"/>
        <pt x="46" y="23" on="0"/>
        <pt x="30" y="63" on="0"/>
      </contour>
    </TTGlyph>
    <TTGlyph name="aeacute" xMin="30" yMin="-13" xMax="544" yMax="691">
      <component glyphName="ae" x="0" y="0" flags="0x204"/>
      <component glyphName="acute" x="0" y="0" flags="0x4"/>
    </TTGlyph>
    <TTGlyph name="afii00208" xMin="34" yMin="221" xMax="556" yMax="313">
      <component glyphName="emdash" x="0" y="0" flags="0x204"/>
    </TTGlyph>
    <TTGlyph name="afii10017" xMin="-6" yMin="0" xMax="476" yMax="619">
      <component glyphName="A" x="0" y="0" flags="0x204"/>
    </TTGlyph>
    <TTGlyph name="afii10018" xMin="33" yMin="-8" xMax="530" yMax="619">
      <contour>
        <pt x="495" y="233" on="1"/>
        <pt x="495" y="171" on="0"/>
        <pt x="449" y="80" on="0"/>
        <pt x="368" y="21" on="0"/>
        <pt x="257" y="-8" on="0"/>
        <pt x="193" y="-8" on="1"/>
        <pt x="157" y="-8" on="0"/>
        <pt x="76" y="0" on="0"/>
        <pt x="33" y="11" on="1"/>
        <pt x="179" y="619" on="1"/>
        <pt x="530" y="619" on="1"/>
        <pt x="506" y="517" on="1"/>
        <pt x="277" y="517" on="1"/>
        <pt x="248" y="399" on="1"/>
        <pt x="299" y="399" on="1"/>
        <pt x="399" y="399" on="0"/>
        <pt x="495" y="308" on="0"/>
      </contour>
      <contour>
        <pt x="371" y="220" on="1"/>
        <pt x="371" y="254" on="0"/>
        <pt x="328" y="294" on="0"/>
        <pt x="270" y="294" on="1"/>
        <pt x="222" y="294" on="1"/>
        <pt x="177" y="101" on="1"/>
        <pt x="195" y="98" on="0"/>
        <pt x="214" y="98" on="1"/>
        <pt x="289" y="98" on="0"/>
        <pt x="371" y="161" on="0"/>
      </contour>
    </TTGlyph>
    <TTGlyph name="afii10019" xMin="39" yMin="-8" xMax="536" yMax="626">
      <component glyphName="B" x="0" y="0" flags="0x204"/>
    </TTGlyph>
    <TTGlyph name="afii10020" xMin="14" yMin="0" xMax="600" yMax="619">
      <contour>
        <pt x="128" y="102" on="1"/>
        <pt x="252" y="619" on="1"/>
        <pt x="600" y="619" on="1"/>
        <pt x="576" y="517" on="1"/>
        <pt x="351" y="517" on="1"/>
        <pt x="251" y="102" on="1"/>
        <pt x="385" y="102" on="1"/>
        <pt x="361" y="0" on="1"/>
        <pt x="14" y="0" on="1"/>
        <pt x="38" y="102" on="1"/>
      </contour>
    </TTGlyph>
    <TTGlyph name="afii10021" xMin="-37" yMin="-165" xMax="564" yMax="619">
      <contour>
        <pt x="337" y="521" on="1"/>
        <pt x="331" y="491" on="0"/>
        <pt x="301" y="380" on="0"/>
        <pt x="258" y="255" on="0"/>
        <pt x="205" y="138" on="0"/>
        <pt x="175" y="102" on="1"/>
        <pt x="321" y="102" on="1"/>
        <pt x="421" y="521" on="1"/>
      </contour>
      <contour>
        <pt x="564" y="619" on="1"/>
        <pt x="440" y="102" on="1"/>
        <pt x="480" y="102" on="1"/>
        <pt x="416" y="-165" on="1"/>
        <pt x="304" y="-165" on="1"/>
        <pt x="344" y="0" on="1"/>
        <pt x="116" y="0" on="1"/>
        <pt x="76" y="-165" on="1"/>
        <pt x="-37" y="-165" on="1"/>
        <pt x="27" y="102" on="1"/>
        <pt x="60" y="102" on="1"/>
        <pt x="93" y="141" on="0"/>
        <pt x="146" y="244" on="0"/>
        <pt x="189" y="354" on="0"/>
        <pt x="221" y="465" on="0"/>
        <pt x="232" y="513" on="1"/>
        <pt x="257" y="619" on="1"/>
      </contour>
    </TTGlyph>
    <TTGlyph name="afii10022" xMin="53" yMin="0" xMax="568" yMax="619">
      <component glyphName="E" x="0" y="0" flags="0x204"/>
    </TTGlyph>
    <TTGlyph name="afii10023" xMin="53" yMin="0" xMax="574" yMax="812">
      <component glyphName="E" x="0" y="0" flags="0x204"/>
      <component glyphName="dieresis" x="35" y="139" flags="0x4"/>
    </TTGlyph>
    <TTGlyph name="afii10024" xMin="-11" yMin="0" xMax="627" yMax="619">
      <contour>
        <pt x="-11" y="0" on="1"/>
        <pt x="10" y="48" on="0"/>
        <pt x="60" y="142" on="0"/>
        <pt x="114" y="229" on="0"/>
        <pt x="171" y="305" on="0"/>
        <pt x="198" y="336" on="1"/>
        <pt x="177" y="411" on="0"/>
        <pt x="151" y="552" on="0"/>
        <pt x="144" y="619" on="1"/>
        <pt x="244" y="619" on="1"/>
        <pt x="246" y="543" on="0"/>
        <pt x="262" y="420" on="0"/>
        <pt x="274" y="370" on="1"/>
        <pt x="334" y="619" on="1"/>
        <pt x="430" y="619" on="1"/>
        <pt x="369" y="366" on="1"/>
        <pt x="412" y="423" on="0"/>
        <pt x="488" y="543" on="0"/>
        <pt x="524" y="619" on="1"/>
        <pt x="627" y="619" on="1"/>
        <pt x="586" y="546" on="0"/>
        <pt x="486" y="391" on="0"/>
        <pt x="427" y="319" on="1"/>
        <pt x="439" y="293" on="0"/>
        <pt x="459" y="222" on="0"/>
        <pt x="473" y="138" on="0"/>
        <pt x="482" y="46" on="0"/>
        <pt x="484" y="0" on="1"/>
        <pt x="381" y="0" on="1"/>
        <pt x="381" y="42" on="0"/>
        <pt x="377" y="126" on="0"/>
        <pt x="370" y="204" on="0"/>
        <pt x="360" y="272" on="0"/>
        <pt x="353" y="298" on="1"/>
        <pt x="281" y="0" on="1"/>
        <pt x="185" y="0" on="1"/>
        <pt x="258" y="302" on="1"/>
        <pt x="238" y="274" on="0"/>
        <pt x="193" y="204" on="0"/>
        <pt x="148" y="126" on="0"/>
        <pt x="107" y="42" on="0"/>
        <pt x="91" y="0" on="1"/>
      </contour>
    </TTGlyph>
    <TTGlyph name="afii10025" xMin="9" yMin="-13" xMax="526" yMax="632">
      <contour>
        <pt x="183" y="371" on="1"/>
        <pt x="258" y="371" on="1"/>
        <pt x="284" y="371" on="0"/>
        <pt x="336" y="381" on="0"/>
        <pt x="377" y="405" on="0"/>
        <pt x="403" y="443" on="0"/>
        <pt x="403" y="471" on="1"/>
        <pt x="403" y="498" on="0"/>
        <pt x="359" y="526" on="0"/>
        <pt x="322" y="526" on="1"/>
        <pt x="290" y="526" on="0"/>
        <pt x="217" y="509" on="0"/>
        <pt x="179" y="489" on="1"/>
        <pt x="157" y="591" on="1"/>
        <pt x="199" y="611" on="0"/>
        <pt x="292" y="632" on="0"/>
        <pt x="353" y="632" on="1"/>
        <pt x="403" y="632" on="0"/>
        <pt x="469" y="608" on="0"/>
        <pt x="509" y="569" on="0"/>
        <pt x="526" y="519" on="0"/>
        <pt x="526" y="493" on="1"/>
        <pt x="526" y="439" on="0"/>
        <pt x="468" y="352" on="0"/>
        <pt x="397" y="329" on="1"/>
        <pt x="425" y="317" on="0"/>
        <pt x="459" y="285" on="0"/>
        <pt x="479" y="250" on="0"/>
        <pt x="486" y="215" on="0"/>
        <pt x="486" y="200" on="1"/>
        <pt x="486" y="164" on="0"/>
        <pt x="460" y="89" on="0"/>
        <pt x="396" y="27" on="0"/>
        <pt x="287" y="-13" on="0"/>
        <pt x="204" y="-13" on="1"/>
        <pt x="142" y="-13" on="0"/>
        <pt x="52" y="13" on="0"/>
        <pt x="9" y="38" on="1"/>
        <pt x="66" y="136" on="1"/>
        <pt x="101" y="113" on="0"/>
        <pt x="173" y="94" on="0"/>
        <pt x="216" y="94" on="1"/>
        <pt x="254" y="94" on="0"/>
        <pt x="310" y="111" on="0"/>
        <pt x="346" y="138" on="0"/>
        <pt x="363" y="174" on="0"/>
        <pt x="363" y="194" on="1"/>
        <pt x="363" y="229" on="0"/>
        <pt x="309" y="270" on="0"/>
        <pt x="252" y="270" on="1"/>
        <pt x="160" y="270" on="1"/>
      </contour>
    </TTGlyph>
    <TTGlyph name="afii10026" xMin="26" yMin="0" xMax="585" yMax="619">
      <contour>
        <pt x="26" y="0" on="1"/>
        <pt x="174" y="619" on="1"/>
        <pt x="284" y="619" on="1"/>
        <pt x="185" y="208" on="1"/>
        <pt x="211" y="250" on="0"/>
        <pt x="281" y="355" on="0"/>
        <pt x="359" y="465" on="0"/>
        <pt x="439" y="574" on="0"/>
        <pt x="476" y="619" on="1"/>
        <pt x="585" y="619" on="1"/>
        <pt x="437" y="0" on="1"/>
        <pt x="327" y="0" on="1"/>
        <pt x="430" y="428" on="1"/>
        <pt x="347" y="314" on="0"/>
        <pt x="210" y="108" on="0"/>
        <pt x="143" y="0" on="1"/>
      </contour>
    </TTGlyph>
    <TTGlyph name="afii10027" xMin="26" yMin="0" xMax="585" yMax="824">
      <component glyphName="afii10026" x="0" y="0" flags="0x204"/>
      <component glyphName="kratka" x="46" y="139" flags="0x4"/>
    </TTGlyph>
    <TTGlyph name="afii10028" xMin="31" yMin="0" xMax="603" yMax="619">
      <component glyphName="K" x="0" y="0" flags="0x204"/>
    </TTGlyph>
    <TTGlyph name="afii10029" xMin="8" yMin="-12" xMax="588" yMax="619">
      <contour>
        <pt x="8" y="93" on="1"/>
        <pt x="60" y="103" on="0"/>
        <pt x="132" y="178" on="0"/>
        <pt x="184" y="292" on="0"/>
        <pt x="222" y="435" on="0"/>
        <pt x="240" y="513" on="1"/>
        <pt x="265" y="619" on="1"/>
        <pt x="588" y="619" on="1"/>
        <pt x="440" y="0" on="1"/>
        <pt x="320" y="0" on="1"/>
        <pt x="444" y="517" on="1"/>
        <pt x="349" y="517" on="1"/>
        <pt x="333" y="454" on="0"/>
        <pt x="301" y="328" on="0"/>
        <pt x="263" y="213" on="0"/>
        <pt x="216" y="113" on="0"/>
        <pt x="153" y="38" on="0"/>
        <pt x="71" y="-8" on="0"/>
        <pt x="18" y="-12" on="1"/>
      </contour>
    </TTGlyph>
    <TTGlyph name="afii10030" xMin="6" yMin="0" xMax="576" yMax="619">
      <component glyphName="M" x="0" y="0" flags="0x204"/>
    </TTGlyph>
    <TTGlyph name="afii10031" xMin="26" yMin="0" xMax="586" yMax="619">
      <component glyphName="H" x="0" y="0" flags="0x204"/>
    </TTGlyph>
    <TTGlyph name="afii10032" xMin="67" yMin="-13" xMax="540" yMax="633">
      <component glyphName="O" x="0" y="0" flags="0x204"/>
    </TTGlyph>
    <TTGlyph name="afii10033" xMin="27" yMin="0" xMax="585" yMax="619">
      <contour>
        <pt x="585" y="619" on="1"/>
        <pt x="436" y="0" on="1"/>
        <pt x="313" y="0" on="1"/>
        <pt x="437" y="517" on="1"/>
        <pt x="274" y="517" on="1"/>
        <pt x="150" y="0" on="1"/>
        <pt x="27" y="0" on="1"/>
        <pt x="176" y="619" on="1"/>
      </contour>
    </TTGlyph>
    <TTGlyph name="afii10034" xMin="38" yMin="0" xMax="555" yMax="626">
      <component glyphName="P" x="0" y="0" flags="0x204"/>
    </TTGlyph>
    <TTGlyph name="afii10035" xMin="88" yMin="-13" xMax="569" yMax="633">
      <component glyphName="C" x="0" y="0" flags="0x204"/>
    </TTGlyph>
    <TTGlyph name="afii10036" xMin="129" yMin="0" xMax="603" yMax="619">
      <component glyphName="T" x="0" y="0" flags="0x204"/>
    </TTGlyph>
    <TTGlyph name="afii10037" xMin="8" yMin="-13" xMax="621" yMax="619">
      <contour>
        <pt x="621" y="619" on="1"/>
        <pt x="584" y="549" on="0"/>
        <pt x="520" y="433" on="0"/>
        <pt x="461" y="331" on="0"/>
        <pt x="404" y="237" on="0"/>
        <pt x="374" y="190" on="1"/>
        <pt x="337" y="131" on="0"/>
        <pt x="272" y="53" on="0"/>
        <pt x="210" y="7" on="0"/>
        <pt x="148" y="-13" on="0"/>
        <pt x="115" y="-13" on="1"/>
        <pt x="85" y="-13" on="0"/>
        <pt x="34" y="-1" on="0"/>
        <pt x="8" y="10" on="1"/>
        <pt x="51" y="116" on="1"/>
        <pt x="85" y="98" on="0"/>
        <pt x="129" y="98" on="1"/>
        <pt x="161" y="98" on="0"/>
        <pt x="215" y="142" on="0"/>
        <pt x="248" y="196" on="1"/>
        <pt x="207" y="314" on="0"/>
        <pt x="149" y="534" on="0"/>
        <pt x="134" y="619" on="1"/>
        <pt x="264" y="619" on="1"/>
        <pt x="270" y="583" on="0"/>
        <pt x="285" y="503" on="0"/>
        <pt x="301" y="424" on="0"/>
        <pt x="319" y="351" on="0"/>
        <pt x="328" y="322" on="1"/>
        <pt x="352" y="365" on="0"/>
        <pt x="399" y="452" on="0"/>
        <pt x="439" y="531" on="0"/>
        <pt x="471" y="597" on="0"/>
        <pt x="480" y="619" on="1"/>
      </contour>
    </TTGlyph>
    <TTGlyph name="afii10038" xMin="71" yMin="0" xMax="547" yMax="659">
      <contour>
        <pt x="196" y="70" on="1"/>
        <pt x="127" y="89" on="0"/>
        <pt x="71" y="179" on="0"/>
        <pt x="71" y="251" on="1"/>
        <pt x="71" y="308" on="0"/>
        <pt x="102" y="427" on="0"/>
        <pt x="165" y="525" on="0"/>
        <pt x="259" y="590" on="0"/>
        <pt x="322" y="594" on="1"/>
        <pt x="338" y="659" on="1"/>
        <pt x="437" y="659" on="1"/>
        <pt x="421" y="594" on="1"/>
        <pt x="490" y="575" on="0"/>
        <pt x="547" y="484" on="0"/>
        <pt x="547" y="413" on="1"/>
        <pt x="547" y="356" on="0"/>
        <pt x="516" y="237" on="0"/>
        <pt x="453" y="139" on="0"/>
        <pt x="359" y="74" on="0"/>
        <pt x="296" y="70" on="1"/>
        <pt x="279" y="0" on="1"/>
        <pt x="180" y="0" on="1"/>
      </contour>
      <contour>
        <pt x="317" y="158" on="1"/>
        <pt x="346" y="165" on="0"/>
        <pt x="394" y="215" on="0"/>
        <pt x="428" y="285" on="0"/>
        <pt x="447" y="367" on="0"/>
        <pt x="447" y="405" on="1"/>
        <pt x="447" y="423" on="0"/>
        <pt x="444" y="455" on="0"/>
        <pt x="434" y="481" on="0"/>
        <pt x="416" y="500" on="0"/>
        <pt x="400" y="505" on="1"/>
      </contour>
      <contour>
        <pt x="301" y="505" on="1"/>
        <pt x="272" y="499" on="0"/>
        <pt x="224" y="449" on="0"/>
        <pt x="190" y="379" on="0"/>
        <pt x="171" y="297" on="0"/>
        <pt x="171" y="258" on="1"/>
        <pt x="171" y="241" on="0"/>
        <pt x="174" y="209" on="0"/>
        <pt x="184" y="182" on="0"/>
        <pt x="202" y="163" on="0"/>
        <pt x="218" y="158" on="1"/>
      </contour>
    </TTGlyph>
    <TTGlyph name="afii10039" xMin="2" yMin="0" xMax="610" yMax="619">
      <component glyphName="X" x="0" y="0" flags="0x204"/>
    </TTGlyph>
    <TTGlyph name="afii10040" xMin="28" yMin="-165" xMax="563" yMax="619">
      <contour>
        <pt x="438" y="102" on="1"/>
        <pt x="480" y="102" on="1"/>
        <pt x="416" y="-165" on="1"/>
        <pt x="302" y="-165" on="1"/>
        <pt x="342" y="0" on="1"/>
        <pt x="28" y="0" on="1"/>
        <pt x="176" y="619" on="1"/>
        <pt x="297" y="619" on="1"/>
        <pt x="172" y="102" on="1"/>
        <pt x="317" y="102" on="1"/>
        <pt x="441" y="619" on="1"/>
        <pt x="563" y="619" on="1"/>
      </contour>
    </TTGlyph>
    <TTGlyph name="afii10041" xMin="114" yMin="0" xMax="576" yMax="619">
      <contour>
        <pt x="248" y="437" on="1"/>
        <pt x="244" y="419" on="0"/>
        <pt x="239" y="389" on="0"/>
        <pt x="239" y="375" on="1"/>
        <pt x="239" y="345" on="0"/>
        <pt x="267" y="311" on="0"/>
        <pt x="309" y="311" on="1"/>
        <pt x="325" y="311" on="0"/>
        <pt x="363" y="314" on="0"/>
        <pt x="380" y="319" on="1"/>
        <pt x="453" y="619" on="1"/>
        <pt x="576" y="619" on="1"/>
        <pt x="428" y="0" on="1"/>
        <pt x="305" y="0" on="1"/>
        <pt x="356" y="217" on="1"/>
        <pt x="342" y="213" on="0"/>
        <pt x="298" y="207" on="0"/>
        <pt x="275" y="207" on="1"/>
        <pt x="230" y="207" on="0"/>
        <pt x="169" y="229" on="0"/>
        <pt x="131" y="270" on="0"/>
        <pt x="114" y="326" on="0"/>
        <pt x="114" y="361" on="1"/>
        <pt x="114" y="378" on="0"/>
        <pt x="119" y="412" on="0"/>
        <pt x="123" y="430" on="1"/>
        <pt x="169" y="619" on="1"/>
        <pt x="292" y="619" on="1"/>
      </contour>
    </TTGlyph>
    <TTGlyph name="afii10042" xMin="4" yMin="0" xMax="606" yMax="619">
      <contour>
        <pt x="458" y="0" on="1"/>
        <pt x="4" y="0" on="1"/>
        <pt x="153" y="619" on="1"/>
        <pt x="252" y="619" on="1"/>
        <pt x="128" y="102" on="1"/>
        <pt x="207" y="102" on="1"/>
        <pt x="275" y="384" on="1"/>
        <pt x="371" y="384" on="1"/>
        <pt x="304" y="102" on="1"/>
        <pt x="383" y="102" on="1"/>
        <pt x="507" y="619" on="1"/>
        <pt x="606" y="619" on="1"/>
      </contour>
    </TTGlyph>
    <TTGlyph name="afii10043" xMin="21" yMin="-165" xMax="586" yMax="619">
      <contour>
        <pt x="497" y="99" on="1"/>
        <pt x="433" y="-165" on="1"/>
        <pt x="337" y="-165" on="1"/>
        <pt x="377" y="0" on="1"/>
        <pt x="21" y="0" on="1"/>
        <pt x="169" y="619" on="1"/>
        <pt x="265" y="619" on="1"/>
        <pt x="140" y="99" on="1"/>
        <pt x="205" y="99" on="1"/>
        <pt x="274" y="384" on="1"/>
        <pt x="368" y="384" on="1"/>
        <pt x="299" y="99" on="1"/>
        <pt x="364" y="99" on="1"/>
        <pt x="489" y="619" on="1"/>
        <pt x="586" y="619" on="1"/>
        <pt x="461" y="99" on="1"/>
      </contour>
    </TTGlyph>
    <TTGlyph name="afii10044" xMin="77" yMin="-8" xMax="502" yMax="619">
      <contour>
        <pt x="118" y="517" on="1"/>
        <pt x="142" y="619" on="1"/>
        <pt x="343" y="619" on="1"/>
        <pt x="290" y="403" on="1"/>
        <pt x="298" y="405" on="0"/>
        <pt x="318" y="405" on="0"/>
        <pt x="326" y="405" on="1"/>
        <pt x="366" y="405" on="0"/>
        <pt x="432" y="381" on="0"/>
        <pt x="477" y="338" on="0"/>
        <pt x="502" y="277" on="0"/>
        <pt x="502" y="241" on="1"/>
        <pt x="502" y="185" on="0"/>
        <pt x="462" y="94" on="0"/>
        <pt x="390" y="28" on="0"/>
        <pt x="288" y="-8" on="0"/>
        <pt x="226" y="-8" on="1"/>
        <pt x="192" y="-8" on="0"/>
        <pt x="112" y="0" on="0"/>
        <pt x="77" y="11" on="1"/>
        <pt x="199" y="517" on="1"/>
      </contour>
      <contour>
        <pt x="295" y="306" on="1"/>
        <pt x="291" y="306" on="0"/>
        <pt x="277" y="306" on="0"/>
        <pt x="268" y="305" on="1"/>
        <pt x="219" y="100" on="1"/>
        <pt x="225" y="99" on="0"/>
        <pt x="245" y="99" on="0"/>
        <pt x="251" y="99" on="1"/>
        <pt x="282" y="99" on="0"/>
        <pt x="330" y="119" on="0"/>
        <pt x="363" y="155" on="0"/>
        <pt x="380" y="203" on="0"/>
        <pt x="380" y="231" on="1"/>
        <pt x="380" y="266" on="0"/>
        <pt x="333" y="306" on="0"/>
      </contour>
    </TTGlyph>
    <TTGlyph name="afii10045" xMin="14" yMin="-8" xMax="599" yMax="619">
      <contour>
        <pt x="196" y="320" on="1"/>
        <pt x="188" y="320" on="0"/>
        <pt x="184" y="319" on="1"/>
        <pt x="128" y="85" on="1"/>
        <pt x="141" y="82" on="0"/>
        <pt x="159" y="82" on="1"/>
        <pt x="186" y="82" on="0"/>
        <pt x="225" y="116" on="0"/>
        <pt x="252" y="167" on="0"/>
        <pt x="265" y="225" on="0"/>
        <pt x="265" y="248" on="1"/>
        <pt x="265" y="283" on="0"/>
        <pt x="234" y="320" on="0"/>
      </contour>
      <contour>
        <pt x="451" y="0" on="1"/>
        <pt x="355" y="0" on="1"/>
        <pt x="504" y="619" on="1"/>
        <pt x="599" y="619" on="1"/>
      </contour>
      <contour>
        <pt x="227" y="411" on="1"/>
        <pt x="293" y="411" on="0"/>
        <pt x="361" y="333" on="0"/>
        <pt x="361" y="267" on="1"/>
        <pt x="361" y="217" on="0"/>
        <pt x="336" y="119" on="0"/>
        <pt x="283" y="41" on="0"/>
        <pt x="199" y="-8" on="0"/>
        <pt x="140" y="-8" on="1"/>
        <pt x="111" y="-8" on="0"/>
        <pt x="45" y="-1" on="0"/>
        <pt x="14" y="9" on="1"/>
        <pt x="161" y="619" on="1"/>
        <pt x="256" y="619" on="1"/>
        <pt x="206" y="410" on="1"/>
        <pt x="211" y="411" on="0"/>
        <pt x="222" y="411" on="0"/>
      </contour>
    </TTGlyph>
    <TTGlyph name="afii10046" xMin="37" yMin="-8" xMax="498" yMax="619">
      <contour>
        <pt x="305" y="405" on="1"/>
        <pt x="405" y="405" on="0"/>
        <pt x="498" y="313" on="0"/>
        <pt x="498" y="238" on="1"/>
        <pt x="498" y="174" on="0"/>
        <pt x="452" y="81" on="0"/>
        <pt x="371" y="21" on="0"/>
        <pt x="260" y="-8" on="0"/>
        <pt x="196" y="-8" on="1"/>
        <pt x="160" y="-8" on="0"/>
        <pt x="80" y="0" on="0"/>
        <pt x="37" y="11" on="1"/>
        <pt x="183" y="619" on="1"/>
        <pt x="306" y="619" on="1"/>
        <pt x="254" y="400" on="1"/>
        <pt x="282" y="405" on="0"/>
      </contour>
      <contour>
        <pt x="275" y="303" on="1"/>
        <pt x="266" y="303" on="0"/>
        <pt x="240" y="302" on="0"/>
        <pt x="230" y="300" on="1"/>
        <pt x="181" y="100" on="1"/>
        <pt x="190" y="99" on="0"/>
        <pt x="207" y="98" on="0"/>
        <pt x="218" y="98" on="1"/>
        <pt x="293" y="98" on="0"/>
        <pt x="375" y="164" on="0"/>
        <pt x="375" y="224" on="1"/>
        <pt x="375" y="241" on="0"/>
        <pt x="366" y="270" on="0"/>
        <pt x="343" y="291" on="0"/>
        <pt x="304" y="303" on="0"/>
      </contour>
    </TTGlyph>
    <TTGlyph name="afii10047" xMin="27" yMin="-13" xMax="523" yMax="633">
      <contour>
        <pt x="321" y="633" on="1"/>
        <pt x="368" y="633" on="0"/>
        <pt x="443" y="597" on="0"/>
        <pt x="495" y="534" on="0"/>
        <pt x="523" y="448" on="0"/>
        <pt x="523" y="399" on="1"/>
        <pt x="523" y="320" on="0"/>
        <pt x="486" y="172" on="0"/>
        <pt x="409" y="57" on="0"/>
        <pt x="288" y="-13" on="0"/>
        <pt x="204" y="-13" on="1"/>
        <pt x="166" y="-13" on="0"/>
        <pt x="105" y="-1" on="0"/>
        <pt x="60" y="15" on="0"/>
        <pt x="32" y="31" on="0"/>
        <pt x="27" y="36" on="1"/>
        <pt x="76" y="129" on="1"/>
        <pt x="96" y="115" on="0"/>
        <pt x="155" y="94" on="0"/>
        <pt x="204" y="94" on="1"/>
        <pt x="242" y="94" on="0"/>
        <pt x="302" y="121" on="0"/>
        <pt x="346" y="167" on="0"/>
        <pt x="375" y="228" on="0"/>
        <pt x="382" y="263" on="1"/>
        <pt x="190" y="263" on="1"/>
        <pt x="216" y="370" on="1"/>
        <pt x="398" y="370" on="1"/>
        <pt x="399" y="375" on="0"/>
        <pt x="399" y="388" on="1"/>
        <pt x="399" y="417" on="0"/>
        <pt x="388" y="467" on="0"/>
        <pt x="362" y="504" on="0"/>
        <pt x="320" y="525" on="0"/>
        <pt x="290" y="525" on="1"/>
        <pt x="245" y="525" on="0"/>
        <pt x="193" y="507" on="0"/>
        <pt x="172" y="496" on="1"/>
        <pt x="159" y="594" on="1"/>
        <pt x="185" y="610" on="0"/>
        <pt x="267" y="633" on="0"/>
      </contour>
    </TTGlyph>
    <TTGlyph name="afii10048" xMin="14" yMin="-13" xMax="559" yMax="633">
      <contour>
        <pt x="453" y="633" on="1"/>
        <pt x="504" y="633" on="0"/>
        <pt x="559" y="563" on="0"/>
        <pt x="559" y="488" on="1"/>
        <pt x="559" y="460" on="0"/>
        <pt x="550" y="364" on="0"/>
        <pt x="529" y="252" on="0"/>
        <pt x="493" y="138" on="0"/>
        <pt x="440" y="46" on="0"/>
        <pt x="368" y="-13" on="0"/>
        <pt x="321" y="-13" on="1"/>
        <pt x="271" y="-13" on="0"/>
        <pt x="215" y="57" on="0"/>
        <pt x="215" y="132" on="1"/>
        <pt x="215" y="161" on="0"/>
        <pt x="223" y="236" on="0"/>
        <pt x="231" y="280" on="1"/>
        <pt x="174" y="280" on="1"/>
        <pt x="107" y="0" on="1"/>
        <pt x="14" y="0" on="1"/>
        <pt x="163" y="619" on="1"/>
        <pt x="255" y="619" on="1"/>
        <pt x="195" y="366" on="1"/>
        <pt x="250" y="366" on="1"/>
        <pt x="259" y="406" on="0"/>
        <pt x="290" y="500" on="0"/>
        <pt x="338" y="580" on="0"/>
        <pt x="406" y="633" on="0"/>
      </contour>
      <contour>
        <pt x="333" y="82" on="1"/>
        <pt x="353" y="82" on="0"/>
        <pt x="389" y="128" on="0"/>
        <pt x="419" y="202" on="0"/>
        <pt x="442" y="293" on="0"/>
        <pt x="458" y="381" on="0"/>
        <pt x="467" y="457" on="0"/>
        <pt x="467" y="480" on="1"/>
        <pt x="467" y="506" on="0"/>
        <pt x="455" y="538" on="0"/>
        <pt x="441" y="538" on="1"/>
        <pt x="421" y="538" on="0"/>
        <pt x="385" y="492" on="0"/>
        <pt x="355" y="418" on="0"/>
        <pt x="332" y="328" on="0"/>
        <pt x="316" y="239" on="0"/>
        <pt x="307" y="163" on="0"/>
        <pt x="307" y="141" on="1"/>
        <pt x="307" y="115" on="0"/>
        <pt x="319" y="82" on="0"/>
      </contour>
    </TTGlyph>
    <TTGlyph name="afii10049" xMin="1" yMin="0" xMax="572" yMax="626">
      <contour>
        <pt x="428" y="521" on="1"/>
        <pt x="418" y="522" on="0"/>
        <pt x="398" y="524" on="0"/>
        <pt x="383" y="524" on="1"/>
        <pt x="357" y="524" on="0"/>
        <pt x="309" y="510" on="0"/>
        <pt x="272" y="480" on="0"/>
        <pt x="250" y="434" on="0"/>
        <pt x="250" y="403" on="1"/>
        <pt x="250" y="368" on="0"/>
        <pt x="295" y="330" on="0"/>
        <pt x="346" y="330" on="1"/>
        <pt x="382" y="330" on="1"/>
      </contour>
      <contour>
        <pt x="192" y="262" on="1"/>
        <pt x="161" y="282" on="0"/>
        <pt x="127" y="347" on="0"/>
        <pt x="127" y="388" on="1"/>
        <pt x="127" y="448" on="0"/>
        <pt x="171" y="537" on="0"/>
        <pt x="247" y="596" on="0"/>
        <pt x="349" y="626" on="0"/>
        <pt x="407" y="626" on="1"/>
        <pt x="424" y="626" on="0"/>
        <pt x="468" y="624" on="0"/>
        <pt x="513" y="621" on="0"/>
        <pt x="555" y="614" on="0"/>
        <pt x="572" y="610" on="1"/>
        <pt x="426" y="0" on="1"/>
        <pt x="303" y="0" on="1"/>
        <pt x="358" y="228" on="1"/>
        <pt x="292" y="228" on="1"/>
        <pt x="249" y="174" on="0"/>
        <pt x="167" y="60" on="0"/>
        <pt x="129" y="0" on="1"/>
        <pt x="1" y="0" on="1"/>
        <pt x="20" y="32" on="0"/>
        <pt x="67" y="101" on="0"/>
        <pt x="116" y="170" on="0"/>
        <pt x="168" y="235" on="0"/>
      </contour>
    </TTGlyph>
    <TTGlyph name="afii10050" xMin="14" yMin="0" xMax="629" yMax="737">
      <contour>
        <pt x="514" y="737" on="1"/>
        <pt x="629" y="737" on="1"/>
        <pt x="576" y="517" on="1"/>
        <pt x="351" y="517" on="1"/>
        <pt x="251" y="102" on="1"/>
        <pt x="385" y="102" on="1"/>
        <pt x="361" y="0" on="1"/>
        <pt x="14" y="0" on="1"/>
        <pt x="38" y="102" on="1"/>
        <pt x="128" y="102" on="1"/>
        <pt x="252" y="619" on="1"/>
        <pt x="486" y="619" on="1"/>
      </contour>
    </TTGlyph>
    <TTGlyph name="afii10051" xMin="71" yMin="-6" xMax="512" yMax="619">
      <contour>
        <pt x="321" y="287" on="1"/>
        <pt x="302" y="287" on="0"/>
        <pt x="272" y="280" on="0"/>
        <pt x="258" y="278" on="1"/>
        <pt x="192" y="0" on="1"/>
        <pt x="71" y="0" on="1"/>
        <pt x="196" y="517" on="1"/>
        <pt x="114" y="517" on="1"/>
        <pt x="138" y="619" on="1"/>
        <pt x="512" y="619" on="1"/>
        <pt x="488" y="517" on="1"/>
        <pt x="316" y="517" on="1"/>
        <pt x="282" y="379" on="1"/>
        <pt x="299" y="384" on="0"/>
        <pt x="332" y="389" on="0"/>
        <pt x="355" y="389" on="1"/>
        <pt x="395" y="389" on="0"/>
        <pt x="454" y="365" on="0"/>
        <pt x="493" y="323" on="0"/>
        <pt x="512" y="266" on="0"/>
        <pt x="512" y="233" on="1"/>
        <pt x="512" y="187" on="0"/>
        <pt x="487" y="101" on="0"/>
        <pt x="435" y="34" on="0"/>
        <pt x="357" y="-6" on="0"/>
        <pt x="303" y="-6" on="1"/>
        <pt x="287" y="-6" on="0"/>
        <pt x="253" y="-4" on="0"/>
        <pt x="244" y="-2" on="1"/>
        <pt x="270" y="97" on="1"/>
        <pt x="276" y="96" on="0"/>
        <pt x="285" y="96" on="0"/>
        <pt x="293" y="96" on="1"/>
        <pt x="318" y="96" on="0"/>
        <pt x="355" y="118" on="0"/>
        <pt x="379" y="154" on="0"/>
        <pt x="391" y="199" on="0"/>
        <pt x="391" y="222" on="1"/>
        <pt x="391" y="287" on="0"/>
      </contour>
    </TTGlyph>
    <TTGlyph name="afii10052" xMin="14" yMin="0" xMax="600" yMax="830">
      <component glyphName="afii10020" x="0" y="0" flags="0x204"/>
      <component glyphName="acute" x="80" y="139" flags="0x4"/>
    </TTGlyph>
    <TTGlyph name="afii10053" xMin="88" yMin="-13" xMax="569" yMax="633">
      <contour>
        <pt x="286" y="-13" on="1"/>
        <pt x="235" y="-13" on="0"/>
        <pt x="160" y="18" on="0"/>
        <pt x="111" y="75" on="0"/>
        <pt x="88" y="156" on="0"/>
        <pt x="88" y="205" on="1"/>
        <pt x="88" y="280" on="0"/>
        <pt x="129" y="433" on="0"/>
        <pt x="211" y="556" on="0"/>
        <pt x="336" y="633" on="0"/>
        <pt x="420" y="633" on="1"/>
        <pt x="452" y="633" on="0"/>
        <pt x="502" y="621" on="0"/>
        <pt x="540" y="606" on="0"/>
        <pt x="564" y="589" on="0"/>
        <pt x="569" y="585" on="1"/>
        <pt x="523" y="490" on="1"/>
        <pt x="503" y="505" on="0"/>
        <pt x="449" y="526" on="0"/>
        <pt x="407" y="526" on="1"/>
        <pt x="375" y="526" on="0"/>
        <pt x="323" y="501" on="0"/>
        <pt x="280" y="459" on="0"/>
        <pt x="248" y="402" on="0"/>
        <pt x="237" y="370" on="1"/>
        <pt x="442" y="370" on="1"/>
        <pt x="416" y="263" on="1"/>
        <pt x="213" y="263" on="1"/>
        <pt x="213" y="251" on="0"/>
        <pt x="212" y="228" on="0"/>
        <pt x="212" y="217" on="1"/>
        <pt x="212" y="190" on="0"/>
        <pt x="222" y="146" on="0"/>
        <pt x="246" y="113" on="0"/>
        <pt x="287" y="95" on="0"/>
        <pt x="317" y="95" on="1"/>
        <pt x="363" y="95" on="0"/>
        <pt x="423" y="117" on="0"/>
        <pt x="444" y="129" on="1"/>
        <pt x="457" y="30" on="1"/>
        <pt x="431" y="14" on="0"/>
        <pt x="344" y="-13" on="0"/>
      </contour>
    </TTGlyph>
    <TTGlyph name="afii10054" xMin="31" yMin="-13" xMax="545" yMax="633">
      <component glyphName="S" x="0" y="0" flags="0x204"/>
    </TTGlyph>
    <TTGlyph name="afii10055" xMin="35" yMin="0" xMax="576" yMax="619">
      <component glyphName="I" x="0" y="0" flags="0x204"/>
    </TTGlyph>
    <TTGlyph name="afii10056" xMin="35" yMin="0" xMax="576" yMax="812">
      <component glyphName="I" x="0" y="0" flags="0x204"/>
      <component glyphName="dieresis" x="36" y="139" flags="0x4"/>
    </TTGlyph>
    <TTGlyph name="afii10057" xMin="37" yMin="-13" xMax="557" yMax="619">
      <component glyphName="J" x="0" y="0" flags="0x204"/>
    </TTGlyph>
    <TTGlyph name="afii10058" xMin="-3" yMin="-13" xMax="525" yMax="619">
      <contour>
        <pt x="387" y="398" on="1"/>
        <pt x="392" y="399" on="0"/>
        <pt x="402" y="399" on="0"/>
        <pt x="407" y="399" on="1"/>
        <pt x="434" y="399" on="0"/>
        <pt x="478" y="377" on="0"/>
        <pt x="509" y="340" on="0"/>
        <pt x="525" y="291" on="0"/>
        <pt x="525" y="263" on="1"/>
        <pt x="525" y="215" on="0"/>
        <pt x="500" y="119" on="0"/>
        <pt x="449" y="42" on="0"/>
        <pt x="370" y="-6" on="0"/>
        <pt x="316" y="-6" on="1"/>
        <pt x="285" y="-6" on="0"/>
        <pt x="233" y="0" on="0"/>
        <pt x="202" y="9" on="1"/>
        <pt x="329" y="538" on="1"/>
        <pt x="266" y="538" on="1"/>
        <pt x="223" y="363" on="1"/>
        <pt x="217" y="340" on="0"/>
        <pt x="202" y="275" on="0"/>
        <pt x="181" y="204" on="0"/>
        <pt x="153" y="130" on="0"/>
        <pt x="119" y="66" on="0"/>
        <pt x="78" y="15" on="0"/>
        <pt x="53" y="2" on="1"/>
        <pt x="41" y="-4" on="0"/>
        <pt x="11" y="-12" on="0"/>
        <pt x="-3" y="-13" on="1"/>
        <pt x="0" y="82" on="1"/>
        <pt x="8" y="82" on="0"/>
        <pt x="24" y="90" on="0"/>
        <pt x="32" y="96" on="1"/>
        <pt x="48" y="111" on="0"/>
        <pt x="80" y="177" on="0"/>
        <pt x="108" y="258" on="0"/>
        <pt x="132" y="343" on="0"/>
        <pt x="140" y="377" on="1"/>
        <pt x="199" y="619" on="1"/>
        <pt x="439" y="619" on="1"/>
      </contour>
      <contour>
        <pt x="309" y="76" on="1"/>
        <pt x="319" y="74" on="0"/>
        <pt x="326" y="74" on="1"/>
        <pt x="353" y="74" on="0"/>
        <pt x="393" y="109" on="0"/>
        <pt x="420" y="162" on="0"/>
        <pt x="433" y="223" on="0"/>
        <pt x="433" y="249" on="1"/>
        <pt x="433" y="288" on="0"/>
        <pt x="403" y="319" on="0"/>
        <pt x="379" y="319" on="1"/>
        <pt x="371" y="319" on="0"/>
        <pt x="367" y="318" on="1"/>
      </contour>
    </TTGlyph>
    <TTGlyph name="afii10059" xMin="13" yMin="-6" xMax="522" yMax="619">
      <contour>
        <pt x="434" y="619" on="1"/>
        <pt x="380" y="390" on="1"/>
        <pt x="385" y="391" on="0"/>
        <pt x="396" y="391" on="0"/>
        <pt x="401" y="391" on="1"/>
        <pt x="428" y="391" on="0"/>
        <pt x="473" y="370" on="0"/>
        <pt x="504" y="334" on="0"/>
        <pt x="522" y="286" on="0"/>
        <pt x="522" y="258" on="1"/>
        <pt x="522" y="210" on="0"/>
        <pt x="497" y="115" on="0"/>
        <pt x="445" y="40" on="0"/>
        <pt x="366" y="-6" on="0"/>
        <pt x="312" y="-6" on="1"/>
        <pt x="281" y="-6" on="0"/>
        <pt x="226" y="0" on="0"/>
        <pt x="195" y="9" on="1"/>
        <pt x="265" y="304" on="1"/>
        <pt x="180" y="304" on="1"/>
        <pt x="106" y="0" on="1"/>
        <pt x="13" y="0" on="1"/>
        <pt x="163" y="619" on="1"/>
        <pt x="255" y="619" on="1"/>
        <pt x="200" y="388" on="1"/>
        <pt x="285" y="388" on="1"/>
        <pt x="341" y="619" on="1"/>
      </contour>
      <contour>
        <pt x="372" y="311" on="1"/>
        <pt x="370" y="311" on="0"/>
        <pt x="363" y="311" on="0"/>
        <pt x="360" y="310" on="1"/>
        <pt x="304" y="76" on="1"/>
        <pt x="314" y="74" on="0"/>
        <pt x="321" y="74" on="1"/>
        <pt x="348" y="74" on="0"/>
        <pt x="389" y="108" on="0"/>
        <pt x="416" y="159" on="0"/>
        <pt x="430" y="219" on="0"/>
        <pt x="430" y="245" on="1"/>
        <pt x="430" y="283" on="0"/>
        <pt x="397" y="311" on="0"/>
      </contour>
    </TTGlyph>
    <TTGlyph name="afii10060" xMin="79" yMin="0" xMax="520" yMax="619">
      <contour>
        <pt x="324" y="517" on="1"/>
        <pt x="291" y="382" on="1"/>
        <pt x="305" y="385" on="0"/>
        <pt x="337" y="389" on="0"/>
        <pt x="360" y="389" on="1"/>
        <pt x="398" y="389" on="0"/>
        <pt x="450" y="368" on="0"/>
        <pt x="483" y="331" on="0"/>
        <pt x="497" y="281" on="0"/>
        <pt x="497" y="252" on="1"/>
        <pt x="497" y="233" on="0"/>
        <pt x="492" y="188" on="0"/>
        <pt x="487" y="168" on="1"/>
        <pt x="447" y="0" on="1"/>
        <pt x="326" y="0" on="1"/>
        <pt x="363" y="161" on="1"/>
        <pt x="368" y="178" on="0"/>
        <pt x="375" y="216" on="0"/>
        <pt x="375" y="233" on="1"/>
        <pt x="375" y="256" on="0"/>
        <pt x="354" y="287" on="0"/>
        <pt x="326" y="287" on="1"/>
        <pt x="308" y="287" on="0"/>
        <pt x="281" y="284" on="0"/>
        <pt x="267" y="281" on="1"/>
        <pt x="200" y="0" on="1"/>
        <pt x="79" y="0" on="1"/>
        <pt x="204" y="517" on="1"/>
        <pt x="122" y="517" on="1"/>
        <pt x="146" y="619" on="1"/>
        <pt x="520" y="619" on="1"/>
        <pt x="496" y="517" on="1"/>
      </contour>
    </TTGlyph>
    <TTGlyph name="afii10061" xMin="31" yMin="0" xMax="603" yMax="830">
      <component glyphName="K" x="0" y="0" flags="0x204"/>
      <component glyphName="acute" x="22" y="139" flags="0x4"/>
    </TTGlyph>
    <TTGlyph name="afii10062" xMin="8" yMin="-13" xMax="621" yMax="824">
      <component glyphName="afii10037" x="0" y="0" flags="0x204"/>
      <component glyphName="kratka" x="22" y="139" flags="0x4"/>
    </TTGlyph>
    <TTGlyph name="afii10065" xMin="64" yMin="-11" xMax="525" yMax="480">
      <component glyphName="a" x="0" y="0" flags="0x204"/>
    </TTGlyph>
    <TTGlyph name="afii10066" xMin="66" yMin="-13" xMax="562" yMax="697">
      <contour>
        <pt x="558" y="595" on="1"/>
        <pt x="543" y="590" on="0"/>
        <pt x="474" y="581" on="0"/>
        <pt x="432" y="574" on="1"/>
        <pt x="403" y="570" on="0"/>
        <pt x="350" y="555" on="0"/>
        <pt x="301" y="525" on="0"/>
        <pt x="259" y="473" on="0"/>
        <pt x="242" y="433" on="1"/>
        <pt x="271" y="446" on="0"/>
        <pt x="322" y="457" on="0"/>
        <pt x="345" y="457" on="1"/>
        <pt x="375" y="457" on="0"/>
        <pt x="433" y="439" on="0"/>
        <pt x="477" y="399" on="0"/>
        <pt x="504" y="336" on="0"/>
        <pt x="504" y="290" on="1"/>
        <pt x="504" y="218" on="0"/>
        <pt x="463" y="105" on="0"/>
        <pt x="392" y="28" on="0"/>
        <pt x="294" y="-13" on="0"/>
        <pt x="237" y="-13" on="1"/>
        <pt x="199" y="-13" on="0"/>
        <pt x="137" y="9" on="0"/>
        <pt x="91" y="55" on="0"/>
        <pt x="66" y="129" on="0"/>
        <pt x="66" y="180" on="1"/>
        <pt x="66" y="249" on="0"/>
        <pt x="105" y="383" on="0"/>
        <pt x="128" y="444" on="1"/>
        <pt x="162" y="539" on="0"/>
        <pt x="304" y="659" on="0"/>
        <pt x="431" y="678" on="1"/>
        <pt x="481" y="685" on="0"/>
        <pt x="541" y="692" on="0"/>
        <pt x="562" y="697" on="1"/>
      </contour>
      <contour>
        <pt x="311" y="356" on="1"/>
        <pt x="286" y="356" on="0"/>
        <pt x="234" y="340" on="0"/>
        <pt x="216" y="329" on="1"/>
        <pt x="187" y="253" on="0"/>
        <pt x="187" y="195" on="1"/>
        <pt x="187" y="138" on="0"/>
        <pt x="222" y="93" on="0"/>
        <pt x="256" y="93" on="1"/>
        <pt x="280" y="93" on="0"/>
        <pt x="324" y="120" on="0"/>
        <pt x="359" y="168" on="0"/>
        <pt x="380" y="232" on="0"/>
        <pt x="380" y="270" on="1"/>
        <pt x="380" y="318" on="0"/>
        <pt x="342" y="356" on="0"/>
      </contour>
    </TTGlyph>
    <TTGlyph name="afii10066.locl" xMin="68" yMin="-13" xMax="530" yMax="693">
      <contour>
        <pt x="302" y="375" on="1"/>
        <pt x="270" y="361" on="0"/>
        <pt x="227" y="318" on="0"/>
        <pt x="201" y="269" on="0"/>
        <pt x="189" y="218" on="0"/>
        <pt x="189" y="196" on="1"/>
        <pt x="189" y="142" on="0"/>
        <pt x="232" y="95" on="0"/>
        <pt x="264" y="95" on="1"/>
        <pt x="289" y="95" on="0"/>
        <pt x="329" y="116" on="0"/>
        <pt x="358" y="152" on="0"/>
        <pt x="373" y="200" on="0"/>
        <pt x="373" y="228" on="1"/>
        <pt x="373" y="261" on="0"/>
        <pt x="346" y="335" on="0"/>
        <pt x="312" y="367" on="1"/>
      </contour>
      <contour>
        <pt x="314" y="548" on="1"/>
        <pt x="314" y="533" on="0"/>
        <pt x="334" y="503" on="0"/>
        <pt x="364" y="475" on="0"/>
        <pt x="397" y="448" on="0"/>
        <pt x="409" y="437" on="1"/>
        <pt x="456" y="394" on="0"/>
        <pt x="496" y="305" on="0"/>
        <pt x="496" y="246" on="1"/>
        <pt x="496" y="193" on="0"/>
        <pt x="461" y="98" on="0"/>
        <pt x="395" y="28" on="0"/>
        <pt x="303" y="-13" on="0"/>
        <pt x="246" y="-13" on="1"/>
        <pt x="209" y="-13" on="0"/>
        <pt x="144" y="10" on="0"/>
        <pt x="96" y="57" on="0"/>
        <pt x="68" y="129" on="0"/>
        <pt x="68" y="179" on="1"/>
        <pt x="68" y="214" on="0"/>
        <pt x="86" y="287" on="0"/>
        <pt x="126" y="356" on="0"/>
        <pt x="190" y="417" on="0"/>
        <pt x="236" y="441" on="1"/>
        <pt x="213" y="466" on="0"/>
        <pt x="191" y="512" on="0"/>
        <pt x="191" y="542" on="1"/>
        <pt x="191" y="570" on="0"/>
        <pt x="210" y="624" on="0"/>
        <pt x="253" y="664" on="0"/>
        <pt x="322" y="689" on="0"/>
        <pt x="373" y="689" on="1"/>
        <pt x="388" y="689" on="0"/>
        <pt x="426" y="689" on="0"/>
        <pt x="468" y="690" on="0"/>
        <pt x="511" y="691" on="0"/>
        <pt x="530" y="693" on="1"/>
        <pt x="515" y="598" on="1"/>
        <pt x="495" y="595" on="0"/>
        <pt x="439" y="592" on="0"/>
        <pt x="387" y="592" on="1"/>
        <pt x="353" y="592" on="0"/>
        <pt x="314" y="575" on="0"/>
      </contour>
    </TTGlyph>
    <TTGlyph name="afii10067" xMin="44" yMin="-10" xMax="500" yMax="482">
      <contour>
        <pt x="180" y="92" on="1"/>
        <pt x="196" y="89" on="0"/>
        <pt x="234" y="86" on="0"/>
        <pt x="248" y="86" on="1"/>
        <pt x="268" y="86" on="0"/>
        <pt x="308" y="92" on="0"/>
        <pt x="339" y="108" on="0"/>
        <pt x="359" y="135" on="0"/>
        <pt x="359" y="156" on="1"/>
        <pt x="359" y="181" on="0"/>
        <pt x="314" y="200" on="0"/>
        <pt x="272" y="200" on="1"/>
        <pt x="206" y="200" on="1"/>
      </contour>
      <contour>
        <pt x="284" y="282" on="1"/>
        <pt x="340" y="282" on="0"/>
        <pt x="385" y="321" on="0"/>
        <pt x="385" y="345" on="1"/>
        <pt x="385" y="365" on="0"/>
        <pt x="357" y="387" on="0"/>
        <pt x="330" y="387" on="1"/>
        <pt x="284" y="387" on="0"/>
        <pt x="238" y="341" on="0"/>
        <pt x="230" y="303" on="1"/>
        <pt x="226" y="282" on="1"/>
      </contour>
      <contour>
        <pt x="109" y="286" on="1"/>
        <pt x="124" y="346" on="0"/>
        <pt x="169" y="423" on="0"/>
        <pt x="228" y="466" on="0"/>
        <pt x="298" y="482" on="0"/>
        <pt x="338" y="482" on="1"/>
        <pt x="413" y="482" on="0"/>
        <pt x="500" y="417" on="0"/>
        <pt x="500" y="364" on="1"/>
        <pt x="500" y="322" on="0"/>
        <pt x="449" y="258" on="0"/>
        <pt x="407" y="242" on="1"/>
        <pt x="442" y="228" on="0"/>
        <pt x="477" y="176" on="0"/>
        <pt x="477" y="144" on="1"/>
        <pt x="477" y="117" on="0"/>
        <pt x="456" y="63" on="0"/>
        <pt x="400" y="18" on="0"/>
        <pt x="302" y="-10" on="0"/>
        <pt x="225" y="-10" on="1"/>
        <pt x="183" y="-10" on="0"/>
        <pt x="96" y="2" on="0"/>
        <pt x="44" y="15" on="1"/>
      </contour>
    </TTGlyph>
    <TTGlyph name="afii10068" xMin="71" yMin="-13" xMax="492" yMax="482">
      <contour>
        <pt x="274" y="88" on="1"/>
        <pt x="312" y="88" on="0"/>
        <pt x="388" y="101" on="0"/>
        <pt x="425" y="113" on="1"/>
        <pt x="430" y="14" on="1"/>
        <pt x="407" y="6" on="0"/>
        <pt x="317" y="-13" on="0"/>
        <pt x="246" y="-13" on="1"/>
        <pt x="200" y="-13" on="0"/>
        <pt x="134" y="7" on="0"/>
        <pt x="91" y="41" on="0"/>
        <pt x="71" y="84" on="0"/>
        <pt x="71" y="108" on="1"/>
        <pt x="71" y="148" on="0"/>
        <pt x="105" y="204" on="0"/>
        <pt x="158" y="242" on="0"/>
        <pt x="223" y="266" on="0"/>
        <pt x="254" y="275" on="1"/>
        <pt x="278" y="282" on="0"/>
        <pt x="320" y="295" on="0"/>
        <pt x="351" y="312" on="0"/>
        <pt x="370" y="332" on="0"/>
        <pt x="370" y="346" on="1"/>
        <pt x="370" y="363" on="0"/>
        <pt x="340" y="382" on="0"/>
        <pt x="296" y="382" on="1"/>
        <pt x="256" y="382" on="0"/>
        <pt x="191" y="367" on="0"/>
        <pt x="165" y="357" on="1"/>
        <pt x="156" y="451" on="1"/>
        <pt x="172" y="457" on="0"/>
        <pt x="216" y="469" on="0"/>
        <pt x="264" y="477" on="0"/>
        <pt x="314" y="482" on="0"/>
        <pt x="337" y="482" on="1"/>
        <pt x="415" y="482" on="0"/>
        <pt x="492" y="417" on="0"/>
        <pt x="492" y="360" on="1"/>
        <pt x="492" y="317" on="0"/>
        <pt x="458" y="260" on="0"/>
        <pt x="407" y="223" on="0"/>
        <pt x="347" y="201" on="0"/>
        <pt x="321" y="193" on="1"/>
        <pt x="259" y="174" on="0"/>
        <pt x="194" y="146" on="0"/>
        <pt x="194" y="122" on="1"/>
        <pt x="194" y="102" on="0"/>
        <pt x="229" y="88" on="0"/>
      </contour>
    </TTGlyph>
    <TTGlyph name="afii10068.locl.ita" xMin="111" yMin="-11" xMax="472" yMax="647">
      <contour>
        <pt x="459" y="13" on="1"/>
        <pt x="422" y="-1" on="0"/>
        <pt x="357" y="-11" on="0"/>
        <pt x="329" y="-11" on="1"/>
        <pt x="258" y="-11" on="0"/>
        <pt x="190" y="58" on="0"/>
        <pt x="190" y="121" on="1"/>
        <pt x="190" y="154" on="0"/>
        <pt x="201" y="198" on="1"/>
        <pt x="241" y="368" on="1"/>
        <pt x="111" y="368" on="1"/>
        <pt x="136" y="470" on="1"/>
        <pt x="389" y="470" on="1"/>
        <pt x="321" y="183" on="1"/>
        <pt x="315" y="162" on="0"/>
        <pt x="315" y="146" on="1"/>
        <pt x="315" y="96" on="0"/>
        <pt x="366" y="96" on="1"/>
        <pt x="383" y="96" on="0"/>
        <pt x="429" y="103" on="0"/>
        <pt x="457" y="113" on="1"/>
      </contour>
      <contour>
        <pt x="178" y="647" on="1"/>
        <pt x="472" y="647" on="1"/>
        <pt x="450" y="556" on="1"/>
        <pt x="156" y="556" on="1"/>
      </contour>
    </TTGlyph>
    <TTGlyph name="afii10069" xMin="68" yMin="-13" xMax="514" yMax="693">
      <contour>
        <pt x="258" y="588" on="1"/>
        <pt x="235" y="588" on="0"/>
        <pt x="194" y="580" on="0"/>
        <pt x="170" y="570" on="1"/>
        <pt x="162" y="675" on="1"/>
        <pt x="192" y="685" on="0"/>
        <pt x="243" y="693" on="0"/>
        <pt x="272" y="693" on="1"/>
        <pt x="324" y="693" on="0"/>
        <pt x="413" y="664" on="0"/>
        <pt x="478" y="597" on="0"/>
        <pt x="514" y="488" on="0"/>
        <pt x="514" y="409" on="1"/>
        <pt x="514" y="297" on="0"/>
        <pt x="473" y="137" on="0"/>
        <pt x="401" y="35" on="0"/>
        <pt x="301" y="-13" on="0"/>
        <pt x="242" y="-13" on="1"/>
        <pt x="157" y="-13" on="0"/>
        <pt x="68" y="87" on="0"/>
        <pt x="68" y="173" on="1"/>
        <pt x="68" y="236" on="0"/>
        <pt x="107" y="343" on="0"/>
        <pt x="174" y="419" on="0"/>
        <pt x="264" y="462" on="0"/>
        <pt x="316" y="462" on="1"/>
        <pt x="340" y="462" on="0"/>
        <pt x="382" y="455" on="0"/>
        <pt x="396" y="447" on="1"/>
        <pt x="394" y="490" on="0"/>
        <pt x="373" y="545" on="0"/>
        <pt x="336" y="577" on="0"/>
        <pt x="287" y="588" on="0"/>
      </contour>
      <contour>
        <pt x="329" y="363" on="1"/>
        <pt x="295" y="363" on="0"/>
        <pt x="243" y="333" on="0"/>
        <pt x="208" y="281" on="0"/>
        <pt x="190" y="212" on="0"/>
        <pt x="190" y="173" on="1"/>
        <pt x="190" y="138" on="0"/>
        <pt x="219" y="94" on="0"/>
        <pt x="256" y="94" on="1"/>
        <pt x="280" y="94" on="0"/>
        <pt x="326" y="120" on="0"/>
        <pt x="363" y="179" on="0"/>
        <pt x="388" y="275" on="0"/>
        <pt x="392" y="346" on="1"/>
        <pt x="373" y="354" on="0"/>
        <pt x="345" y="363" on="0"/>
      </contour>
    </TTGlyph>
    <TTGlyph name="afii10069.locl.ita" xMin="1" yMin="-168" xMax="533" yMax="480">
      <component glyphName="g" x="0" y="0" flags="0x204"/>
    </TTGlyph>
    <TTGlyph name="afii10070" xMin="75" yMin="-12" xMax="522" yMax="482">
      <component glyphName="e" x="0" y="0" flags="0x204"/>
    </TTGlyph>
    <TTGlyph name="afii10071" xMin="75" yMin="-12" xMax="540" yMax="673">
      <component glyphName="e" x="0" y="0" flags="0x204"/>
      <component glyphName="dieresis" x="1" y="0" flags="0x4"/>
    </TTGlyph>
    <TTGlyph name="afii10072" xMin="-8" yMin="-10" xMax="576" yMax="479">
      <contour>
        <pt x="529" y="479" on="1"/>
        <pt x="541" y="479" on="0"/>
        <pt x="565" y="476" on="0"/>
        <pt x="576" y="471" on="1"/>
        <pt x="557" y="387" on="1"/>
        <pt x="546" y="390" on="0"/>
        <pt x="534" y="390" on="1"/>
        <pt x="514" y="390" on="0"/>
        <pt x="480" y="344" on="0"/>
        <pt x="456" y="273" on="0"/>
        <pt x="443" y="188" on="0"/>
        <pt x="443" y="150" on="1"/>
        <pt x="443" y="118" on="0"/>
        <pt x="455" y="77" on="0"/>
        <pt x="470" y="77" on="1"/>
        <pt x="478" y="77" on="0"/>
        <pt x="485" y="77" on="0"/>
        <pt x="493" y="79" on="1"/>
        <pt x="484" y="-3" on="1"/>
        <pt x="476" y="-6" on="0"/>
        <pt x="459" y="-10" on="0"/>
        <pt x="447" y="-10" on="1"/>
        <pt x="417" y="-10" on="0"/>
        <pt x="382" y="16" on="0"/>
        <pt x="364" y="57" on="0"/>
        <pt x="359" y="107" on="0"/>
        <pt x="359" y="132" on="1"/>
        <pt x="359" y="152" on="0"/>
        <pt x="362" y="184" on="0"/>
        <pt x="364" y="201" on="1"/>
        <pt x="319" y="201" on="1"/>
        <pt x="271" y="0" on="1"/>
        <pt x="191" y="0" on="1"/>
        <pt x="238" y="201" on="1"/>
        <pt x="194" y="201" on="1"/>
        <pt x="184" y="161" on="0"/>
        <pt x="161" y="86" on="0"/>
        <pt x="127" y="27" on="0"/>
        <pt x="76" y="-9" on="0"/>
        <pt x="39" y="-9" on="1"/>
        <pt x="27" y="-9" on="0"/>
        <pt x="8" y="-6" on="0"/>
        <pt x="-8" y="1" on="1"/>
        <pt x="9" y="82" on="1"/>
        <pt x="16" y="78" on="0"/>
        <pt x="32" y="78" on="1"/>
        <pt x="54" y="78" on="0"/>
        <pt x="89" y="125" on="0"/>
        <pt x="114" y="198" on="0"/>
        <pt x="128" y="285" on="0"/>
        <pt x="128" y="325" on="1"/>
        <pt x="128" y="354" on="0"/>
        <pt x="113" y="391" on="0"/>
        <pt x="96" y="391" on="1"/>
        <pt x="91" y="391" on="0"/>
        <pt x="83" y="390" on="0"/>
        <pt x="79" y="389" on="1"/>
        <pt x="87" y="472" on="1"/>
        <pt x="99" y="477" on="0"/>
        <pt x="117" y="479" on="0"/>
        <pt x="126" y="479" on="1"/>
        <pt x="153" y="479" on="0"/>
        <pt x="187" y="450" on="0"/>
        <pt x="206" y="405" on="0"/>
        <pt x="212" y="351" on="0"/>
        <pt x="212" y="325" on="1"/>
        <pt x="212" y="311" on="0"/>
        <pt x="210" y="286" on="0"/>
        <pt x="208" y="275" on="1"/>
        <pt x="255" y="275" on="1"/>
        <pt x="301" y="470" on="1"/>
        <pt x="381" y="470" on="1"/>
        <pt x="335" y="275" on="1"/>
        <pt x="380" y="275" on="1"/>
        <pt x="390" y="313" on="0"/>
        <pt x="414" y="387" on="0"/>
        <pt x="448" y="444" on="0"/>
        <pt x="496" y="479" on="0"/>
      </contour>
    </TTGlyph>
    <TTGlyph name="afii10073" xMin="35" yMin="-13" xMax="493" yMax="482">
      <contour>
        <pt x="154" y="455" on="1"/>
        <pt x="190" y="469" on="0"/>
        <pt x="281" y="482" on="0"/>
        <pt x="323" y="482" on="1"/>
        <pt x="369" y="482" on="0"/>
        <pt x="434" y="463" on="0"/>
        <pt x="475" y="431" on="0"/>
        <pt x="493" y="387" on="0"/>
        <pt x="493" y="363" on="1"/>
        <pt x="493" y="334" on="0"/>
        <pt x="453" y="263" on="0"/>
        <pt x="401" y="241" on="1"/>
        <pt x="434" y="229" on="0"/>
        <pt x="463" y="177" on="0"/>
        <pt x="463" y="150" on="1"/>
        <pt x="463" y="106" on="0"/>
        <pt x="420" y="44" on="0"/>
        <pt x="349" y="5" on="0"/>
        <pt x="258" y="-13" on="0"/>
        <pt x="209" y="-13" on="1"/>
        <pt x="161" y="-13" on="0"/>
        <pt x="69" y="3" on="0"/>
        <pt x="35" y="17" on="1"/>
        <pt x="79" y="113" on="1"/>
        <pt x="104" y="102" on="0"/>
        <pt x="171" y="89" on="0"/>
        <pt x="209" y="89" on="1"/>
        <pt x="231" y="89" on="0"/>
        <pt x="278" y="95" on="0"/>
        <pt x="316" y="109" on="0"/>
        <pt x="340" y="132" on="0"/>
        <pt x="340" y="149" on="1"/>
        <pt x="340" y="162" on="0"/>
        <pt x="325" y="180" on="0"/>
        <pt x="300" y="190" on="0"/>
        <pt x="268" y="194" on="0"/>
        <pt x="251" y="194" on="1"/>
        <pt x="169" y="194" on="1"/>
        <pt x="190" y="283" on="1"/>
        <pt x="276" y="283" on="1"/>
        <pt x="324" y="283" on="0"/>
        <pt x="373" y="316" on="0"/>
        <pt x="373" y="339" on="1"/>
        <pt x="373" y="351" on="0"/>
        <pt x="358" y="367" on="0"/>
        <pt x="334" y="377" on="0"/>
        <pt x="303" y="382" on="0"/>
        <pt x="287" y="382" on="1"/>
        <pt x="236" y="382" on="0"/>
        <pt x="175" y="369" on="0"/>
        <pt x="158" y="363" on="1"/>
      </contour>
    </TTGlyph>
    <TTGlyph name="afii10074" xMin="76" yMin="-11" xMax="525" yMax="470">
      <component glyphName="u" x="0" y="0" flags="0x204"/>
    </TTGlyph>
    <TTGlyph name="afii10075" xMin="76" yMin="-11" xMax="525" yMax="685">
      <component glyphName="u" x="0" y="0" flags="0x204"/>
      <component glyphName="kratka" x="-4" y="0" flags="0x4"/>
    </TTGlyph>
    <TTGlyph name="afii10076" xMin="54" yMin="0" xMax="567" yMax="470">
      <contour>
        <pt x="567" y="470" on="1"/>
        <pt x="519" y="412" on="0"/>
        <pt x="399" y="299" on="0"/>
        <pt x="345" y="254" on="1"/>
        <pt x="363" y="232" on="0"/>
        <pt x="400" y="169" on="0"/>
        <pt x="436" y="99" on="0"/>
        <pt x="466" y="29" on="0"/>
        <pt x="476" y="0" on="1"/>
        <pt x="343" y="0" on="1"/>
        <pt x="335" y="25" on="0"/>
        <pt x="309" y="89" on="0"/>
        <pt x="279" y="153" on="0"/>
        <pt x="247" y="209" on="0"/>
        <pt x="232" y="227" on="1"/>
        <pt x="178" y="0" on="1"/>
        <pt x="54" y="0" on="1"/>
        <pt x="167" y="470" on="1"/>
        <pt x="290" y="470" on="1"/>
        <pt x="247" y="290" on="1"/>
        <pt x="265" y="305" on="0"/>
        <pt x="313" y="349" on="0"/>
        <pt x="363" y="398" on="0"/>
        <pt x="410" y="449" on="0"/>
        <pt x="427" y="470" on="1"/>
      </contour>
    </TTGlyph>
    <TTGlyph name="afii10077" xMin="12" yMin="-12" xMax="535" yMax="470">
      <contour>
        <pt x="12" y="93" on="1"/>
        <pt x="33" y="97" on="0"/>
        <pt x="63" y="110" on="0"/>
        <pt x="84" y="127" on="0"/>
        <pt x="100" y="146" on="0"/>
        <pt x="108" y="157" on="1"/>
        <pt x="125" y="181" on="0"/>
        <pt x="153" y="244" on="0"/>
        <pt x="176" y="314" on="0"/>
        <pt x="194" y="385" on="0"/>
        <pt x="202" y="416" on="1"/>
        <pt x="215" y="470" on="1"/>
        <pt x="535" y="470" on="1"/>
        <pt x="421" y="0" on="1"/>
        <pt x="301" y="0" on="1"/>
        <pt x="388" y="368" on="1"/>
        <pt x="301" y="368" on="1"/>
        <pt x="283" y="303" on="0"/>
        <pt x="243" y="171" on="0"/>
        <pt x="180" y="63" on="0"/>
        <pt x="88" y="-9" on="0"/>
        <pt x="18" y="-12" on="1"/>
      </contour>
    </TTGlyph>
    <TTGlyph name="afii10078" xMin="6" yMin="0" xMax="538" yMax="470">
      <contour>
        <pt x="254" y="470" on="1"/>
        <pt x="257" y="449" on="0"/>
        <pt x="263" y="388" on="0"/>
        <pt x="271" y="320" on="0"/>
        <pt x="279" y="250" on="0"/>
        <pt x="282" y="219" on="1"/>
        <pt x="302" y="253" on="0"/>
        <pt x="345" y="325" on="0"/>
        <pt x="385" y="391" on="0"/>
        <pt x="420" y="449" on="0"/>
        <pt x="433" y="470" on="1"/>
        <pt x="538" y="470" on="1"/>
        <pt x="530" y="408" on="0"/>
        <pt x="514" y="291" on="0"/>
        <pt x="496" y="176" on="0"/>
        <pt x="475" y="61" on="0"/>
        <pt x="463" y="0" on="1"/>
        <pt x="350" y="0" on="1"/>
        <pt x="432" y="332" on="1"/>
        <pt x="296" y="97" on="1"/>
        <pt x="214" y="97" on="1"/>
        <pt x="194" y="332" on="1"/>
        <pt x="118" y="0" on="1"/>
        <pt x="6" y="0" on="1"/>
        <pt x="22" y="58" on="0"/>
        <pt x="59" y="182" on="0"/>
        <pt x="97" y="305" on="0"/>
        <pt x="135" y="421" on="0"/>
        <pt x="154" y="470" on="1"/>
      </contour>
    </TTGlyph>
    <TTGlyph name="afii10079" xMin="40" yMin="0" xMax="534" yMax="470">
      <contour>
        <pt x="421" y="0" on="1"/>
        <pt x="298" y="0" on="1"/>
        <pt x="342" y="186" on="1"/>
        <pt x="207" y="186" on="1"/>
        <pt x="163" y="0" on="1"/>
        <pt x="40" y="0" on="1"/>
        <pt x="153" y="470" on="1"/>
        <pt x="276" y="470" on="1"/>
        <pt x="232" y="288" on="1"/>
        <pt x="367" y="288" on="1"/>
        <pt x="411" y="470" on="1"/>
        <pt x="534" y="470" on="1"/>
      </contour>
    </TTGlyph>
    <TTGlyph name="afii10080" xMin="65" yMin="-13" xMax="505" yMax="482">
      <component glyphName="o" x="0" y="0" flags="0x204"/>
    </TTGlyph>
    <TTGlyph name="afii10081" xMin="44" yMin="0" xMax="497" yMax="480">
      <component glyphName="n" x="0" y="0" flags="0x204"/>
    </TTGlyph>
    <TTGlyph name="afii10081.locl.ita" xMin="76" yMin="-11" xMax="566" yMax="647">
      <contour>
        <pt x="189" y="647" on="1"/>
        <pt x="566" y="647" on="1"/>
        <pt x="545" y="556" on="1"/>
        <pt x="168" y="556" on="1"/>
      </contour>
      <contour>
        <pt x="221" y="-11" on="1"/>
        <pt x="140" y="-11" on="0"/>
        <pt x="76" y="65" on="0"/>
        <pt x="76" y="131" on="1"/>
        <pt x="76" y="177" on="0"/>
        <pt x="90" y="238" on="1"/>
        <pt x="146" y="470" on="1"/>
        <pt x="269" y="470" on="1"/>
        <pt x="216" y="246" on="1"/>
        <pt x="208" y="216" on="0"/>
        <pt x="200" y="167" on="0"/>
        <pt x="200" y="148" on="1"/>
        <pt x="200" y="96" on="0"/>
        <pt x="250" y="96" on="1"/>
        <pt x="278" y="96" on="0"/>
        <pt x="311" y="119" on="0"/>
        <pt x="326" y="136" on="1"/>
        <pt x="328" y="150" on="0"/>
        <pt x="331" y="176" on="0"/>
        <pt x="336" y="193" on="1"/>
        <pt x="402" y="470" on="1"/>
        <pt x="525" y="470" on="1"/>
        <pt x="458" y="192" on="1"/>
        <pt x="454" y="174" on="0"/>
        <pt x="449" y="139" on="0"/>
        <pt x="449" y="121" on="1"/>
        <pt x="449" y="92" on="0"/>
        <pt x="461" y="37" on="0"/>
        <pt x="470" y="10" on="1"/>
        <pt x="362" y="-8" on="1"/>
        <pt x="360" y="-4" on="0"/>
        <pt x="354" y="8" on="0"/>
        <pt x="348" y="22" on="0"/>
        <pt x="344" y="33" on="0"/>
        <pt x="343" y="36" on="1"/>
        <pt x="323" y="21" on="0"/>
        <pt x="259" y="-11" on="0"/>
      </contour>
    </TTGlyph>
    <TTGlyph name="afii10082" xMin="-2" yMin="-165" xMax="506" yMax="480">
      <component glyphName="p" x="0" y="0" flags="0x204"/>
    </TTGlyph>
    <TTGlyph name="afii10083" xMin="77" yMin="-11" xMax="531" yMax="481">
      <component glyphName="c" x="0" y="0" flags="0x204"/>
    </TTGlyph>
    <TTGlyph name="afii10084" xMin="21" yMin="0" xMax="529" yMax="475">
      <component glyphName="m" x="0" y="0" flags="0x204"/>
    </TTGlyph>
    <TTGlyph name="afii10084.locl.ita" xMin="43" yMin="-12" xMax="591" yMax="647">
      <contour>
        <pt x="167" y="647" on="1"/>
        <pt x="591" y="647" on="1"/>
        <pt x="570" y="556" on="1"/>
        <pt x="146" y="556" on="1"/>
      </contour>
      <contour>
        <pt x="169" y="79" on="1"/>
        <pt x="184" y="79" on="0"/>
        <pt x="203" y="89" on="0"/>
        <pt x="211" y="95" on="1"/>
        <pt x="211" y="114" on="0"/>
        <pt x="215" y="154" on="0"/>
        <pt x="220" y="177" on="1"/>
        <pt x="263" y="357" on="1"/>
        <pt x="355" y="357" on="1"/>
        <pt x="312" y="174" on="1"/>
        <pt x="307" y="157" on="0"/>
        <pt x="302" y="127" on="0"/>
        <pt x="302" y="115" on="1"/>
        <pt x="302" y="98" on="0"/>
        <pt x="315" y="79" on="0"/>
        <pt x="331" y="79" on="1"/>
        <pt x="346" y="79" on="0"/>
        <pt x="365" y="94" on="0"/>
        <pt x="371" y="102" on="1"/>
        <pt x="375" y="132" on="0"/>
        <pt x="381" y="165" on="0"/>
        <pt x="384" y="179" on="1"/>
        <pt x="454" y="470" on="1"/>
        <pt x="550" y="470" on="1"/>
        <pt x="479" y="171" on="1"/>
        <pt x="468" y="132" on="0"/>
        <pt x="468" y="101" on="1"/>
        <pt x="468" y="84" on="0"/>
        <pt x="477" y="39" on="0"/>
        <pt x="488" y="8" on="1"/>
        <pt x="403" y="-5" on="1"/>
        <pt x="398" y="2" on="0"/>
        <pt x="388" y="19" on="0"/>
        <pt x="386" y="29" on="1"/>
        <pt x="374" y="14" on="0"/>
        <pt x="326" y="-11" on="0"/>
        <pt x="302" y="-11" on="1"/>
        <pt x="256" y="-11" on="0"/>
        <pt x="229" y="20" on="1"/>
        <pt x="211" y="3" on="0"/>
        <pt x="164" y="-12" on="0"/>
        <pt x="142" y="-12" on="1"/>
        <pt x="89" y="-12" on="0"/>
        <pt x="43" y="52" on="0"/>
        <pt x="43" y="98" on="1"/>
        <pt x="43" y="139" on="0"/>
        <pt x="54" y="180" on="1"/>
        <pt x="123" y="470" on="1"/>
        <pt x="220" y="470" on="1"/>
        <pt x="149" y="176" on="1"/>
        <pt x="147" y="168" on="0"/>
        <pt x="140" y="134" on="0"/>
        <pt x="140" y="118" on="1"/>
        <pt x="140" y="101" on="0"/>
        <pt x="152" y="79" on="0"/>
      </contour>
    </TTGlyph>
    <TTGlyph name="afii10085" xMin="-43" yMin="-168" xMax="549" yMax="470">
      <component glyphName="y" x="0" y="0" flags="0x204"/>
    </TTGlyph>
    <TTGlyph name="afii10086" xMin="51" yMin="-165" xMax="527" yMax="693">
      <contour>
        <pt x="302" y="84" on="1"/>
        <pt x="331" y="89" on="0"/>
        <pt x="377" y="127" on="0"/>
        <pt x="408" y="181" on="0"/>
        <pt x="425" y="245" on="0"/>
        <pt x="425" y="276" on="1"/>
        <pt x="425" y="318" on="0"/>
        <pt x="404" y="375" on="0"/>
        <pt x="375" y="387" on="1"/>
      </contour>
      <contour>
        <pt x="153" y="194" on="1"/>
        <pt x="153" y="152" on="0"/>
        <pt x="179" y="97" on="0"/>
        <pt x="205" y="86" on="1"/>
        <pt x="279" y="387" on="1"/>
        <pt x="250" y="382" on="0"/>
        <pt x="204" y="343" on="0"/>
        <pt x="171" y="288" on="0"/>
        <pt x="153" y="224" on="0"/>
      </contour>
      <contour>
        <pt x="395" y="470" on="1"/>
        <pt x="423" y="464" on="0"/>
        <pt x="472" y="436" on="0"/>
        <pt x="507" y="389" on="0"/>
        <pt x="527" y="322" on="0"/>
        <pt x="527" y="277" on="1"/>
        <pt x="527" y="225" on="0"/>
        <pt x="493" y="128" on="0"/>
        <pt x="428" y="51" on="0"/>
        <pt x="337" y="1" on="0"/>
        <pt x="280" y="-4" on="1"/>
        <pt x="242" y="-165" on="1"/>
        <pt x="146" y="-165" on="1"/>
        <pt x="185" y="-2" on="1"/>
        <pt x="114" y="15" on="0"/>
        <pt x="51" y="118" on="0"/>
        <pt x="51" y="196" on="1"/>
        <pt x="51" y="257" on="0"/>
        <pt x="93" y="357" on="0"/>
        <pt x="162" y="429" on="0"/>
        <pt x="252" y="471" on="0"/>
        <pt x="300" y="475" on="1"/>
        <pt x="346" y="672" on="1"/>
        <pt x="448" y="693" on="1"/>
      </contour>
    </TTGlyph>
    <TTGlyph name="afii10087" xMin="10" yMin="0" xMax="550" yMax="470">
      <component glyphName="x" x="0" y="0" flags="0x204"/>
    </TTGlyph>
    <TTGlyph name="afii10088" xMin="71" yMin="-134" xMax="511" yMax="470">
      <contour>
        <pt x="343" y="46" on="1"/>
        <pt x="320" y="20" on="0"/>
        <pt x="250" y="-11" on="0"/>
        <pt x="215" y="-11" on="1"/>
        <pt x="175" y="-11" on="0"/>
        <pt x="120" y="9" on="0"/>
        <pt x="86" y="46" on="0"/>
        <pt x="71" y="98" on="0"/>
        <pt x="71" y="131" on="1"/>
        <pt x="71" y="177" on="0"/>
        <pt x="85" y="238" on="1"/>
        <pt x="140" y="470" on="1"/>
        <pt x="262" y="470" on="1"/>
        <pt x="209" y="246" on="1"/>
        <pt x="201" y="216" on="0"/>
        <pt x="193" y="167" on="0"/>
        <pt x="193" y="148" on="1"/>
        <pt x="193" y="96" on="0"/>
        <pt x="243" y="96" on="1"/>
        <pt x="267" y="96" on="0"/>
        <pt x="299" y="119" on="0"/>
        <pt x="313" y="136" on="1"/>
        <pt x="315" y="150" on="0"/>
        <pt x="319" y="176" on="0"/>
        <pt x="323" y="193" on="1"/>
        <pt x="389" y="470" on="1"/>
        <pt x="511" y="470" on="1"/>
        <pt x="443" y="191" on="1"/>
        <pt x="440" y="181" on="0"/>
        <pt x="438" y="158" on="0"/>
        <pt x="438" y="144" on="1"/>
        <pt x="438" y="118" on="0"/>
        <pt x="462" y="75" on="0"/>
        <pt x="489" y="70" on="1"/>
        <pt x="441" y="-134" on="1"/>
        <pt x="327" y="-134" on="1"/>
        <pt x="363" y="13" on="1"/>
        <pt x="357" y="18" on="0"/>
        <pt x="347" y="33" on="0"/>
      </contour>
    </TTGlyph>
    <TTGlyph name="afii10089" xMin="88" yMin="0" xMax="524" yMax="470">
      <contour>
        <pt x="252" y="470" on="1"/>
        <pt x="218" y="327" on="1"/>
        <pt x="215" y="313" on="0"/>
        <pt x="215" y="303" on="1"/>
        <pt x="215" y="287" on="0"/>
        <pt x="228" y="267" on="0"/>
        <pt x="249" y="255" on="0"/>
        <pt x="277" y="251" on="0"/>
        <pt x="293" y="251" on="1"/>
        <pt x="309" y="251" on="0"/>
        <pt x="338" y="253" on="0"/>
        <pt x="349" y="255" on="1"/>
        <pt x="400" y="470" on="1"/>
        <pt x="524" y="470" on="1"/>
        <pt x="411" y="0" on="1"/>
        <pt x="287" y="0" on="1"/>
        <pt x="324" y="154" on="1"/>
        <pt x="280" y="148" on="0"/>
        <pt x="242" y="148" on="1"/>
        <pt x="209" y="148" on="0"/>
        <pt x="153" y="162" on="0"/>
        <pt x="112" y="193" on="0"/>
        <pt x="88" y="242" on="0"/>
        <pt x="88" y="276" on="1"/>
        <pt x="88" y="300" on="0"/>
        <pt x="96" y="334" on="1"/>
        <pt x="129" y="470" on="1"/>
      </contour>
    </TTGlyph>
    <TTGlyph name="afii10090" xMin="43" yMin="-12" xMax="550" yMax="470">
      <contour>
        <pt x="169" y="79" on="1"/>
        <pt x="184" y="79" on="0"/>
        <pt x="203" y="89" on="0"/>
        <pt x="211" y="95" on="1"/>
        <pt x="211" y="114" on="0"/>
        <pt x="215" y="154" on="0"/>
        <pt x="220" y="177" on="1"/>
        <pt x="263" y="357" on="1"/>
        <pt x="355" y="357" on="1"/>
        <pt x="312" y="174" on="1"/>
        <pt x="307" y="157" on="0"/>
        <pt x="302" y="127" on="0"/>
        <pt x="302" y="115" on="1"/>
        <pt x="302" y="98" on="0"/>
        <pt x="315" y="79" on="0"/>
        <pt x="331" y="79" on="1"/>
        <pt x="346" y="79" on="0"/>
        <pt x="365" y="94" on="0"/>
        <pt x="371" y="102" on="1"/>
        <pt x="375" y="132" on="0"/>
        <pt x="381" y="165" on="0"/>
        <pt x="384" y="179" on="1"/>
        <pt x="454" y="470" on="1"/>
        <pt x="550" y="470" on="1"/>
        <pt x="479" y="171" on="1"/>
        <pt x="468" y="132" on="0"/>
        <pt x="468" y="101" on="1"/>
        <pt x="468" y="84" on="0"/>
        <pt x="477" y="39" on="0"/>
        <pt x="488" y="8" on="1"/>
        <pt x="403" y="-5" on="1"/>
        <pt x="398" y="2" on="0"/>
        <pt x="388" y="19" on="0"/>
        <pt x="386" y="29" on="1"/>
        <pt x="374" y="14" on="0"/>
        <pt x="326" y="-11" on="0"/>
        <pt x="302" y="-11" on="1"/>
        <pt x="256" y="-11" on="0"/>
        <pt x="229" y="20" on="1"/>
        <pt x="211" y="3" on="0"/>
        <pt x="164" y="-12" on="0"/>
        <pt x="142" y="-12" on="1"/>
        <pt x="89" y="-12" on="0"/>
        <pt x="43" y="52" on="0"/>
        <pt x="43" y="98" on="1"/>
        <pt x="43" y="139" on="0"/>
        <pt x="54" y="180" on="1"/>
        <pt x="123" y="470" on="1"/>
        <pt x="220" y="470" on="1"/>
        <pt x="149" y="176" on="1"/>
        <pt x="147" y="168" on="0"/>
        <pt x="140" y="134" on="0"/>
        <pt x="140" y="118" on="1"/>
        <pt x="140" y="101" on="0"/>
        <pt x="152" y="79" on="0"/>
      </contour>
    </TTGlyph>
    <TTGlyph name="afii10091" xMin="39" yMin="-129" xMax="537" yMax="470">
      <contour>
        <pt x="383" y="38" on="1"/>
        <pt x="366" y="15" on="0"/>
        <pt x="316" y="-11" on="0"/>
        <pt x="293" y="-11" on="1"/>
        <pt x="271" y="-11" on="0"/>
        <pt x="236" y="3" on="0"/>
        <pt x="221" y="20" on="1"/>
        <pt x="204" y="3" on="0"/>
        <pt x="156" y="-12" on="0"/>
        <pt x="136" y="-12" on="1"/>
        <pt x="85" y="-12" on="0"/>
        <pt x="39" y="52" on="0"/>
        <pt x="39" y="98" on="1"/>
        <pt x="39" y="118" on="0"/>
        <pt x="44" y="160" on="0"/>
        <pt x="49" y="180" on="1"/>
        <pt x="119" y="470" on="1"/>
        <pt x="213" y="470" on="1"/>
        <pt x="143" y="176" on="1"/>
        <pt x="141" y="168" on="0"/>
        <pt x="134" y="134" on="0"/>
        <pt x="134" y="118" on="1"/>
        <pt x="134" y="101" on="0"/>
        <pt x="146" y="79" on="0"/>
        <pt x="163" y="79" on="1"/>
        <pt x="178" y="79" on="0"/>
        <pt x="196" y="89" on="0"/>
        <pt x="204" y="95" on="1"/>
        <pt x="204" y="114" on="0"/>
        <pt x="207" y="154" on="0"/>
        <pt x="213" y="177" on="1"/>
        <pt x="256" y="357" on="1"/>
        <pt x="346" y="357" on="1"/>
        <pt x="303" y="174" on="1"/>
        <pt x="298" y="157" on="0"/>
        <pt x="293" y="127" on="0"/>
        <pt x="293" y="115" on="1"/>
        <pt x="293" y="98" on="0"/>
        <pt x="305" y="79" on="0"/>
        <pt x="321" y="79" on="1"/>
        <pt x="335" y="79" on="0"/>
        <pt x="355" y="94" on="0"/>
        <pt x="361" y="102" on="1"/>
        <pt x="363" y="132" on="0"/>
        <pt x="369" y="165" on="0"/>
        <pt x="372" y="179" on="1"/>
        <pt x="442" y="470" on="1"/>
        <pt x="537" y="470" on="1"/>
        <pt x="471" y="195" on="1"/>
        <pt x="466" y="178" on="0"/>
        <pt x="461" y="143" on="0"/>
        <pt x="461" y="127" on="1"/>
        <pt x="461" y="105" on="0"/>
        <pt x="476" y="72" on="0"/>
        <pt x="497" y="67" on="1"/>
        <pt x="450" y="-129" on="1"/>
        <pt x="362" y="-129" on="1"/>
        <pt x="396" y="14" on="1"/>
        <pt x="393" y="17" on="0"/>
        <pt x="385" y="30" on="0"/>
      </contour>
    </TTGlyph>
    <TTGlyph name="afii10092" xMin="80" yMin="-10" xMax="496" yMax="470">
      <contour>
        <pt x="166" y="368" on="1"/>
        <pt x="87" y="368" on="1"/>
        <pt x="112" y="470" on="1"/>
        <pt x="312" y="470" on="1"/>
        <pt x="271" y="301" on="1"/>
        <pt x="290" y="306" on="0"/>
        <pt x="329" y="310" on="0"/>
        <pt x="344" y="310" on="1"/>
        <pt x="419" y="310" on="0"/>
        <pt x="496" y="235" on="0"/>
        <pt x="496" y="169" on="1"/>
        <pt x="496" y="131" on="0"/>
        <pt x="466" y="66" on="0"/>
        <pt x="405" y="18" on="0"/>
        <pt x="313" y="-10" on="0"/>
        <pt x="251" y="-10" on="1"/>
        <pt x="208" y="-10" on="0"/>
        <pt x="128" y="0" on="0"/>
        <pt x="80" y="12" on="1"/>
      </contour>
      <contour>
        <pt x="302" y="214" on="1"/>
        <pt x="285" y="214" on="0"/>
        <pt x="261" y="210" on="0"/>
        <pt x="248" y="206" on="1"/>
        <pt x="221" y="90" on="1"/>
        <pt x="238" y="88" on="0"/>
        <pt x="258" y="86" on="0"/>
        <pt x="272" y="86" on="1"/>
        <pt x="324" y="86" on="0"/>
        <pt x="376" y="124" on="0"/>
        <pt x="376" y="159" on="1"/>
        <pt x="376" y="187" on="0"/>
        <pt x="344" y="214" on="0"/>
      </contour>
    </TTGlyph>
    <TTGlyph name="afii10093" xMin="20" yMin="-8" xMax="557" yMax="470">
      <contour>
        <pt x="463" y="470" on="1"/>
        <pt x="557" y="470" on="1"/>
        <pt x="445" y="0" on="1"/>
        <pt x="350" y="0" on="1"/>
      </contour>
      <contour>
        <pt x="163" y="81" on="1"/>
        <pt x="186" y="81" on="0"/>
        <pt x="219" y="96" on="0"/>
        <pt x="240" y="121" on="0"/>
        <pt x="250" y="154" on="0"/>
        <pt x="250" y="171" on="1"/>
        <pt x="250" y="192" on="0"/>
        <pt x="222" y="221" on="0"/>
        <pt x="179" y="221" on="1"/>
        <pt x="164" y="221" on="1"/>
        <pt x="132" y="84" on="1"/>
        <pt x="145" y="81" on="0"/>
      </contour>
      <contour>
        <pt x="145" y="-8" on="1"/>
        <pt x="116" y="-8" on="0"/>
        <pt x="51" y="-1" on="0"/>
        <pt x="20" y="9" on="1"/>
        <pt x="129" y="470" on="1"/>
        <pt x="224" y="470" on="1"/>
        <pt x="186" y="310" on="1"/>
        <pt x="191" y="311" on="0"/>
        <pt x="204" y="312" on="0"/>
        <pt x="209" y="312" on="1"/>
        <pt x="275" y="312" on="0"/>
        <pt x="345" y="245" on="0"/>
        <pt x="345" y="189" on="1"/>
        <pt x="345" y="141" on="0"/>
        <pt x="314" y="68" on="0"/>
        <pt x="260" y="18" on="0"/>
        <pt x="187" y="-8" on="0"/>
      </contour>
    </TTGlyph>
    <TTGlyph name="afii10094" xMin="45" yMin="-10" xMax="490" yMax="470">
      <contour>
        <pt x="280" y="214" on="1"/>
        <pt x="263" y="214" on="0"/>
        <pt x="227" y="210" on="0"/>
        <pt x="215" y="205" on="1"/>
        <pt x="188" y="90" on="1"/>
        <pt x="204" y="88" on="0"/>
        <pt x="237" y="86" on="0"/>
        <pt x="251" y="86" on="1"/>
        <pt x="308" y="86" on="0"/>
        <pt x="369" y="124" on="0"/>
        <pt x="369" y="159" on="1"/>
        <pt x="369" y="214" on="0"/>
      </contour>
      <contour>
        <pt x="155" y="470" on="1"/>
        <pt x="279" y="470" on="1"/>
        <pt x="238" y="301" on="1"/>
        <pt x="246" y="304" on="0"/>
        <pt x="268" y="307" on="0"/>
        <pt x="292" y="309" on="0"/>
        <pt x="314" y="310" on="0"/>
        <pt x="322" y="310" on="1"/>
        <pt x="403" y="310" on="0"/>
        <pt x="490" y="235" on="0"/>
        <pt x="490" y="169" on="1"/>
        <pt x="490" y="131" on="0"/>
        <pt x="458" y="66" on="0"/>
        <pt x="393" y="18" on="0"/>
        <pt x="295" y="-10" on="0"/>
        <pt x="230" y="-10" on="1"/>
        <pt x="186" y="-10" on="0"/>
        <pt x="96" y="1" on="0"/>
        <pt x="45" y="13" on="1"/>
      </contour>
    </TTGlyph>
</ttFont>
